<svg width="94" height="97" viewBox="0 0 94 97" fill="none" xmlns="http://www.w3.org/2000/svg">
<g id="&#208;&#186;&#209;&#128;&#209;&#141;&#209;&#130; 1">
<g id="&#208;&#161;&#208;&#187;&#208;&#190;&#208;&#185; 1">
<path id="Vector" d="M47.0561 -0.000118494L28 19.1274L47.0584 38.2528L66.1145 19.1252L47.0561 -0.000118494Z" fill="#CB2324"/>
<path id="Vector_2" d="M71.0568 24.0005L52 43.1274L71.0577 62.2534L90.1145 43.1265L71.0568 24.0005Z" fill="black"/>
<path id="Vector_3" d="M23.0562 23.9999L4 43.1274L23.0587 62.2524L42.1149 43.1249L23.0562 23.9999Z" fill="black"/>
<path id="Vector_4" d="M73 69.1274V74.1974H80.7112V94.1274H86.2888V74.1974H94V69.1274H73Z" fill="black"/>
<path id="Vector_5" d="M15.1297 70.1274L5.31854 81.0559V70.1274H0V95.1274H5.31854V87.4827L8.11547 84.4853L15.6099 95.1274H22L11.7086 80.734L21.5511 70.1274H15.1297Z" fill="black"/>
<path id="Vector_6" d="M26 70.1274H36.3252C42.3522 70.1274 46 73.6618 46 78.8386C46 84.6269 41.4526 87.6255 35.7835 87.6255H31.5589V95.1274H26V70.1274ZM35.9641 82.7333C36.5161 82.8001 37.0762 82.7502 37.6072 82.5868C38.1383 82.4234 38.6282 82.1503 39.0445 81.7855C39.4608 81.4207 39.7941 80.9726 40.0222 80.4708C40.2503 79.969 40.3681 79.425 40.3677 78.8749C40.3677 76.4123 38.6356 75.0907 35.8571 75.0907H31.5589V82.7333H35.9641Z" fill="black"/>
<path id="Vector_7" d="M57.0309 80.7139H67.1376C66.7582 79.1176 65.8634 77.6962 64.5958 76.6759C63.3282 75.6556 61.7607 75.0951 60.1429 75.0838C57.7334 75.1061 55.4216 76.0535 53.6723 77.7355L50.6704 73.9348C51.9071 72.6842 53.3816 71.7022 55.0041 71.0485C56.6266 70.3948 58.3633 70.0832 60.1083 70.1325C63.5001 70.1061 66.7633 71.4479 69.1807 73.8627C71.5981 76.2775 72.9717 79.5679 72.9996 83.0103C73.0274 86.4527 71.7073 89.7655 69.3294 92.2204C66.9514 94.6752 63.7103 96.0712 60.3186 96.1014C58.3964 96.2248 56.4713 95.9086 54.6854 95.1764C52.8996 94.4441 51.2984 93.3144 50 91.8704L53.3553 88.1749C54.2298 89.1108 55.2821 89.8572 56.4487 90.3688C57.6153 90.8805 58.872 91.1468 60.1429 91.1518C61.7992 91.1479 63.4033 90.5638 64.6844 89.4982C65.9654 88.4326 66.8447 86.9509 67.1737 85.3033H57.0309V80.7139Z" fill="black"/>
</g>
</g>
</svg>
