<svg width="177" height="32" viewBox="0 0 177 32" fill="none" xmlns="http://www.w3.org/2000/svg">
<g id="&#208;&#188;&#208;&#181;&#208;&#179;&#208;&#176;&#209;&#132;&#208;&#190;&#208;&#189; 1">
<g id="Layer 1">
<path id="Vector" d="M17.3816 0V16.5192C17.3857 16.6939 17.3554 16.8676 17.2926 17.0299C17.2298 17.1922 17.1357 17.3396 17.016 17.4631C16.8964 17.5867 16.7537 17.6839 16.5966 17.7488C16.4395 17.8137 16.2712 17.845 16.1021 17.8407H14.1828C14.1354 17.844 14.0907 17.865 14.0571 17.8997C14.0235 17.9344 14.0032 17.9805 14 18.0295V31.9056C14.457 31.9056 14.9139 32 15.4623 32C19.418 31.9963 23.2237 30.4359 26.1047 27.6364C28.9858 24.8368 30.7257 21.0086 30.9702 16.9308C31.2148 12.8531 29.9457 8.83228 27.4212 5.68689C24.8967 2.54149 21.3066 0.507892 17.3816 0ZM17.016 24.7316C16.6364 24.7316 16.2653 24.6153 15.9497 24.3975C15.6341 24.1797 15.3881 23.8701 15.2428 23.5079C15.0976 23.1456 15.0596 22.7471 15.1336 22.3625C15.2077 21.978 15.3905 21.6248 15.6589 21.3476C15.9273 21.0703 16.2693 20.8815 16.6416 20.805C17.0139 20.7286 17.3998 20.7678 17.7505 20.9179C18.1012 21.0679 18.4009 21.322 18.6118 21.648C18.8227 21.9739 18.9353 22.3572 18.9353 22.7493C18.9417 23.0114 18.8964 23.2721 18.8022 23.5156C18.708 23.7591 18.5669 23.9802 18.3874 24.1656C18.2079 24.3511 17.9937 24.4968 17.758 24.5941C17.5222 24.6914 17.2698 24.7382 17.016 24.7316ZM21.5857 24.7316C21.2061 24.7316 20.8351 24.6153 20.5194 24.3975C20.2038 24.1797 19.9578 23.8701 19.8125 23.5079C19.6673 23.1456 19.6293 22.7471 19.7033 22.3625C19.7774 21.978 19.9602 21.6248 20.2286 21.3476C20.497 21.0703 20.839 20.8815 21.2113 20.805C21.5836 20.7286 21.9695 20.7678 22.3202 20.9179C22.6709 21.0679 22.9707 21.322 23.1816 21.648C23.3925 21.9739 23.505 22.3572 23.505 22.7493C23.5021 23.2741 23.2989 23.7765 22.9396 24.1476C22.5803 24.5187 22.0939 24.7285 21.5857 24.7316ZM26.1555 24.7316C25.7759 24.7316 25.4048 24.6153 25.0892 24.3975C24.7735 24.1797 24.5275 23.8701 24.3823 23.5079C24.237 23.1456 24.199 22.7471 24.273 22.3625C24.3471 21.978 24.5299 21.6248 24.7983 21.3476C25.0667 21.0703 25.4087 20.8815 25.781 20.805C26.1533 20.7286 26.5392 20.7678 26.8899 20.9179C27.2406 21.0679 27.5404 21.322 27.7513 21.648C27.9622 21.9739 28.0747 22.3572 28.0747 22.7493C28.0718 23.2741 27.8686 23.7765 27.5093 24.1476C27.15 24.5187 26.6636 24.7285 26.1555 24.7316Z" fill="#00B956"/>
<path id="Vector_2" d="M16 1.80346e-06C12.0522 -0.00188313 8.24328 1.47386 5.30623 4.14319C2.36918 6.81253 0.511616 10.4868 0.0910477 14.4588C-0.32952 18.4309 0.716633 22.42 3.02816 25.6584C5.33969 28.8967 8.75322 31.1555 12.6118 32V17.4286C12.6296 17.0967 12.7617 16.7816 12.9852 16.538C13.2088 16.2944 13.5095 16.1378 13.8353 16.0952H15.8118C15.8606 16.0919 15.9066 16.0707 15.9412 16.0357C15.9758 16.0007 15.9967 15.9542 16 15.9048V1.80346e-06ZM12.8941 13.3333C12.5032 13.3333 12.1211 13.216 11.7961 12.9963C11.471 12.7765 11.2177 12.4642 11.0681 12.0987C10.9185 11.7333 10.8794 11.3311 10.9556 10.9432C11.0319 10.5552 11.2201 10.1988 11.4966 9.91912C11.773 9.63942 12.1251 9.44894 12.5085 9.37177C12.8919 9.29459 13.2893 9.3342 13.6505 9.48558C14.0116 9.63695 14.3203 9.8933 14.5375 10.2222C14.7547 10.5511 14.8706 10.9378 14.8706 11.3333C14.8676 11.8628 14.6584 12.3698 14.2884 12.7442C13.9183 13.1186 13.4174 13.3303 12.8941 13.3333Z" fill="#00B956"/>
<path id="Vector_3" d="M173.07 9V15.0235H165.023V9H161V25H165.023V18.5059H173.07V25H177V9H173.07Z" fill="#00B956"/>
<path id="Vector_4" d="M107.697 10.1149C107.422 9.49086 106.974 8.95965 106.407 8.58465C105.84 8.20965 105.178 8.0067 104.5 8C103.822 8.0067 103.16 8.20966 102.593 8.58465C102.026 8.95965 101.578 9.49086 101.303 10.1149L95 24H99.1106L100.481 20.6897H108.519L109.889 24H114L107.697 10.1149ZM101.76 17.5632L104.135 11.8621C104.226 11.6782 104.317 11.6782 104.409 11.6782C104.5 11.6782 104.683 11.6782 104.683 11.8621L107.058 17.5632H101.76Z" fill="#00B956"/>
<path id="Vector_5" d="M60.4815 6C58.6296 6 57.4259 7.02956 56.5926 8.99507L51.5 20.9754L46.4074 8.99507C45.5741 7.02956 44.3704 6 42.5185 6C40.7593 6 39 7.21675 39 9.93103V24.7192H42.8889V10.399L48.0741 22.2857C48.2881 23.0461 48.7349 23.7183 49.3504 24.206C49.9659 24.6936 50.7185 24.9716 51.5 25C53.1667 25 54.2778 23.9704 54.9259 22.2857L60.1111 10.399V24.8128H64V10.0246C64 7.31035 62.2407 6 60.4815 6Z" fill="#00B956"/>
<path id="Vector_6" d="M71.265 21.7811C71.1688 21.7744 71.0782 21.7324 71.01 21.6627C70.9418 21.5931 70.9007 21.5006 70.8941 21.4024V18.5622H80.7219V15.2486H70.8941V12.7871C70.9007 12.6888 70.9418 12.5963 71.01 12.5267C71.0782 12.4571 71.1688 12.4151 71.265 12.4084H81V9.00013H69.318C69.0127 8.99688 68.7099 9.05589 68.4272 9.17369C68.1446 9.29148 67.8878 9.4657 67.6719 9.68613C67.4561 9.90656 67.2854 10.1688 67.1701 10.4574C67.0547 10.746 66.9969 11.0553 67.0001 11.367V22.6332C67.0097 23.2578 67.257 23.8542 67.6896 24.296C68.1222 24.7377 68.7062 24.9902 69.318 25H81V21.5917H71.265V21.7811Z" fill="#00B956"/>
<path id="Vector_7" d="M87.8941 25V12.7648C87.9007 12.6671 87.9418 12.5752 88.01 12.506C88.0782 12.4368 88.1688 12.395 88.265 12.3883H98V9.00013H86.318C86.0127 8.9969 85.7099 9.05556 85.4272 9.17266C85.1446 9.28977 84.8878 9.46296 84.6719 9.6821C84.4561 9.90123 84.2854 10.1619 84.1701 10.4488C84.0547 10.7357 83.9969 11.0432 84.0001 11.353V24.9059H87.8941V25Z" fill="#00B956"/>
<path id="Vector_8" d="M159 16C159 10.5747 156.6 8 150.692 8H149.308C143.4 8 141 10.5747 141 16C141 21.3333 143.4 24 149.308 24H150.6C156.6 23.908 159 21.3333 159 16ZM150.6 20.6897H149.308C146.077 20.6897 144.785 19.2184 144.785 16C144.785 12.8736 145.892 11.3103 149.308 11.3103H150.6C153.923 11.3103 155.123 12.8736 155.123 16C155.123 19.2184 153.923 20.6897 150.6 20.6897Z" fill="#00B956"/>
<path id="Vector_9" d="M129.816 6H122.092C116.299 6 114 8.93878 114 13.9898C114.008 14.728 114.069 15.4646 114.184 16.1939C114.828 19.7755 116.943 21.9796 122.368 21.9796H124.115V24H127.977V21.9796H129.632C135.057 21.9796 137.172 19.7755 137.816 16.1939C137.931 15.4646 137.992 14.728 138 13.9898C137.908 8.93878 135.517 6 129.816 6ZM123.931 18.7653H122.184C119.517 18.7653 118.598 17.7551 118.046 16.1939C117.881 15.4714 117.82 14.7295 117.862 13.9898C117.862 10.6837 119.425 9.30612 121.632 9.30612H124.023V18.7653H123.931ZM133.862 16.2857C133.31 17.8469 132.299 18.8571 129.724 18.8571H127.977V9.30612H130.368C132.575 9.30612 134.138 10.6837 134.138 13.9898C134.108 14.7613 134.016 15.5291 133.862 16.2857Z" fill="#00B956"/>
</g>
</g>
</svg>
