<svg width="165" height="121" viewBox="0 0 165 121" fill="none" xmlns="http://www.w3.org/2000/svg">
<g id="&#209;&#128;&#208;&#182;&#208;&#180;&#209;&#129;&#209;&#130;&#209;&#128;&#208;&#190;&#208;&#185; 1">
<g id="&#208;&#161;&#208;&#187;&#208;&#190;&#208;&#185; 1">
<path id="Vector" fill-rule="evenodd" clip-rule="evenodd" d="M159.448 108.567L160.116 107H160.111C157.881 108.152 154.963 108.029 154.143 107.02L153.481 108.593C154.397 109.447 157.218 109.723 159.448 108.567ZM165 110.293V110.288H159.489L159.479 110.313L150.107 118.033L152.63 110.288H147.114L143.63 120.99H146.517L146.505 121H149.072L149.083 120.99H149.144L149.169 120.916L158.628 112.926L156.003 120.99H161.517L165 110.293ZM132.009 120.99V119.513H133.172C135.682 117.1 136.507 113.849 135.693 111.754H132.009V110.288H141.042C142.047 112.761 140.657 118.061 137.556 120.99H132.009ZM132.009 110.288H126.472C123.855 112.761 121.791 118.061 122.985 120.99H129.13L129.129 120.985H131.418L131.412 120.99H132.009V119.513H128.334C127.391 117.1 128.689 113.849 130.863 111.754H132.009L132.009 110.288ZM101.101 120.99V120.45L104.412 110.288H120.585C121.251 111.943 120.466 114.307 118.733 115.957H109.505L109.982 114.486H113.95C114.536 113.691 114.847 112.734 114.838 111.754H109.449L106.441 120.99H101.101ZM101.101 110.951L101.278 110.288H101.101V110.951ZM101.101 110.288H86.7542L86.3649 111.754H90.7447L87.738 120.99H93.2522L96.259 111.754H100.888L101.101 110.951V110.288ZM101.101 120.45L100.927 120.99H101.101V120.45ZM68 119.422V118.537C68.2932 115.448 69.6382 112.544 71.8203 110.288H84.3147L83.8383 111.754H76.8068C74.634 113.849 73.3377 117.1 74.2777 119.513H81.3111L80.8309 120.985H74.4784L74.4809 120.99H68.3341C68.1402 120.487 68.0276 119.958 68 119.422" fill="#6F7170"/>
<path id="Vector_2" fill-rule="evenodd" clip-rule="evenodd" d="M19.7616 110H3.50356L0 121H5.54427L8.56639 111.509H13.9836C13.9948 112.516 13.6831 113.5 13.0941 114.317H9.10402L8.62322 115.828H17.9047C19.6434 114.128 20.4339 111.701 19.7616 110Z" fill="#D32B1F"/>
<path id="Vector_3" fill-rule="evenodd" clip-rule="evenodd" d="M27.5216 110H21.7868L26.2534 115.088L19 121H22.5544L31 113.992L27.5216 110Z" fill="#D32B1F"/>
<path id="Vector_4" fill-rule="evenodd" clip-rule="evenodd" d="M47 110H43.721L36.0053 114.642H36.012H36L39.1561 121H44.2337L40.7375 113.941L47 110Z" fill="#D32B1F"/>
<path id="Vector_5" fill-rule="evenodd" clip-rule="evenodd" d="M31.5108 110L28 121H33.4861L37 110H31.5108Z" fill="#D32B1F"/>
<path id="Vector_6" fill-rule="evenodd" clip-rule="evenodd" d="M53.4671 115.186L55.8009 113.23L58.5801 119.477H53.4671V120.983H66C65.8205 120.5 65.7145 119.992 65.6858 119.477H64.0067L59.6595 110L59.6388 110.01L59.647 110.006H57.4323L53.4671 113.251V115.186ZM48.3522 119.477H53.4671V120.983H46.5527L46.5346 121H44L53.4671 113.251V115.186L48.3522 119.477Z" fill="#D32B1F"/>
<path id="Vector_7" fill-rule="evenodd" clip-rule="evenodd" d="M77.5406 6.14489L79.1852 0H84.3285L85.9586 6.09051L87.7519 6.31308L90.9293 0.806208L95.8949 2.13661L95.893 8.43262L97.5718 9.11553L102.061 4.62416L106.516 7.1958L104.883 13.2831L106.345 14.3922L111.855 11.2148L115.488 14.8532L112.33 20.3101L113.438 21.7341L119.58 20.0913L122.148 24.5479L117.694 28.9944L118.397 30.6644L124.748 30.6675L126.076 35.6344L120.616 38.7789L120.86 40.569L127 42.2181L126.996 47.3633L120.908 48.9877L120.684 50.7797L126.188 53.9609L124.853 58.9265L118.559 58.9202L117.874 60.5984L122.363 65.0917L119.788 69.5438L113.701 67.9067L112.627 69.3212L115.81 74.8306L112.173 78.4671L106.713 75.3125L105.29 76.4203L106.937 82.562L102.482 85.1337L98.0322 80.6815L96.3635 81.3859L96.3647 87.7376L91.3991 89.0692L88.2502 83.611L86.4594 83.8557L84.8148 90H79.6715L78.0414 83.9095L76.2481 83.6876L73.0707 89.1938L68.1051 87.8634L68.107 81.5674L66.4288 80.8845L61.9387 85.3758L57.484 82.8042L59.1167 76.7162L57.6813 75.6274L52.1706 78.8105L48.5341 75.1746L51.6894 69.7126L50.5822 68.2899L44.4373 69.9384L41.8657 65.4843L46.3198 61.0322L45.6154 59.3635L39.2624 59.3647L37.9314 54.3991L43.3902 51.2495L43.1449 49.4601L37 47.8148V42.6721L43.0918 41.0414L43.3137 39.2494L37.8056 36.0707L39.1366 31.1051L45.4339 31.1076L46.1162 29.4288L41.6229 24.9381L44.1952 20.484L50.2844 22.1173L51.3733 20.6807L48.1908 15.1706L51.8266 11.5348L57.288 14.6901L58.7107 13.5822L57.0629 7.43924L61.5176 4.8676L65.9678 9.31976L67.6372 8.61473L67.6353 2.26244L72.6009 0.932672L75.7505 6.39023L77.5406 6.14489Z" fill="#878787"/>
<path id="Vector_8" fill-rule="evenodd" clip-rule="evenodd" d="M81.9994 83C89.5151 83.0001 96.862 80.7716 103.111 76.5962C109.36 72.4207 114.231 66.486 117.107 59.5424C119.983 52.5988 120.736 44.9583 119.27 37.587C117.804 30.2157 114.185 23.4446 108.87 18.1302C103.556 12.8157 96.785 9.19651 89.4137 7.73022C82.0424 6.26393 74.4018 7.01642 67.4582 9.89253C60.5145 12.7686 54.5797 17.6392 50.4042 23.8883C46.2287 30.1374 44 37.4843 44 45C44.0194 55.0722 48.0291 64.7263 55.1511 71.8484C62.2732 78.9706 71.9272 82.9805 81.9994 83Z" fill="white"/>
<path id="Vector_9" fill-rule="evenodd" clip-rule="evenodd" d="M109.163 71.1627C103.11 77.2157 95.1458 80.9826 86.6269 81.8217C78.108 82.6609 69.5617 80.5202 62.4441 75.7645C55.3266 71.0088 50.0782 63.9323 47.5933 55.7407C45.1083 47.5492 45.5406 38.7495 48.8164 30.8409C52.0922 22.9323 58.0088 16.4043 65.5582 12.369C73.1076 8.33378 81.8226 7.041 90.2182 8.71098C98.6139 10.381 106.171 14.9104 111.601 21.5274C117.032 28.1445 120 36.4398 120 45C120.006 49.8598 119.052 54.6729 117.192 59.1627C115.333 63.6526 112.604 67.7307 109.163 71.1627ZM80.7511 22.0019C80.0921 21.9905 79.4993 21.9803 78.9607 21.9866C75.0109 22.0351 74.0229 22.8758 74.1019 29.4153L74.1039 29.6454C74.0618 29.9506 74.1164 30.2614 74.26 30.5339C74.4023 30.7317 74.5999 30.883 74.8279 30.9686C74.9382 31.026 75.0759 31.0974 75.2104 31.1751C76.3836 31.8083 77.4648 32.5987 78.424 33.5245C78.9872 34.0223 79.3595 34.7007 79.477 35.4431L79.4643 36.5368L70.8985 30.822C71.1566 30.5371 71.423 30.2518 71.6977 29.966C71.8972 29.7915 72.0591 29.5782 72.1734 29.3391C72.2877 29.1 72.352 28.8401 72.3625 28.5753C72.3338 28.2865 72.2353 28.009 72.0754 27.7668C71.9155 27.5246 71.699 27.325 71.4447 27.1851V27.1832C70.9686 26.8511 70.6703 26.6421 70.4 26.4521C69.2941 25.6758 68.4515 25.0837 67.8218 24.7197H67.8192C67.4496 24.4718 67.0019 24.3684 66.561 24.4291C66.0811 24.5415 65.6645 24.8379 65.401 25.2545C65.081 25.6873 64.7636 26.1088 64.4487 26.5191L63.9764 26.2048C63.8521 26.1213 63.7533 26.0512 63.6571 25.9843C62.5857 25.2341 61.8801 24.7408 60.5275 26.0933C60.2535 26.3667 59.82 26.7562 59.386 27.1456H59.3841C59.1208 27.3814 58.8576 27.6179 58.6109 27.8455C58.3503 28.0325 58.1428 28.2841 58.0087 28.5755C57.8746 28.8669 57.8186 29.1881 57.8461 29.5078C58.0001 30.1055 58.3831 30.6185 58.9124 30.9361L58.915 30.9374L60.0138 31.7488C59.1322 32.6752 58.1952 33.5472 57.208 34.3601C54.7758 36.336 52.5717 37.3272 50.562 37.266C50.2624 37.2539 49.964 37.2207 49.6691 37.1665C49.147 37.0792 48.8456 37.0301 48.6422 37.4852C48.4791 37.8498 48.7015 38.194 49.228 39.0048C49.2771 39.08 49.3485 39.1915 49.4989 39.4254C51.0771 41.9018 53.1438 44.0302 55.5726 45.6807C58.1723 47.399 61.0428 48.6671 64.0638 49.4317C65.1422 49.7224 65.5514 49.7574 65.7184 49.1347C65.7604 48.8573 65.7166 48.5738 65.5929 48.322C65.4883 48.0266 65.4004 47.7255 65.3296 47.4201C64.6765 44.5135 64.8836 41.4796 65.9256 38.6886C66.1685 38.0201 66.4492 37.366 66.7663 36.7293L76.9868 44.2689L54.8625 58.2282L54.8243 58.2557C53.8243 58.9269 53.1241 59.9603 52.8713 61.1379C52.72 62.3494 53.023 63.574 53.7216 64.5753L53.7407 64.6053C54.3824 65.6446 55.387 66.4089 56.5599 66.7501C57.74 66.9868 58.966 66.7555 59.9788 66.105L60.0189 66.0795L79.1851 52.9788C77.8644 62.4229 72.5627 62.6855 68.6058 62.8805C65.8784 63.015 63.7037 63.1221 63.3563 65.6646L63.3499 65.7118V69.1332H102.159V65.7118L102.153 65.6646C101.805 63.1221 99.6298 63.015 96.9025 62.8805C92.8359 62.6804 87.3481 62.4095 86.2224 52.1725L86.2097 51.0717L104.011 64.2031L104.039 64.2241L104.066 64.2394C105.33 64.9738 106.786 65.3084 108.243 65.1993C108.877 65.1512 109.493 64.9636 110.045 64.65C110.598 64.3364 111.075 63.9046 111.442 63.3853L111.461 63.3554C111.788 62.8275 111.991 62.2322 112.054 61.6145C112.116 60.9967 112.038 60.3728 111.824 59.7898C111.306 58.4271 110.401 57.2454 109.221 56.3894L109.195 56.3703L91.4955 44.5627L105.111 35.2563L105.119 35.2684L106.707 37.7223L108.23 40.0743C108.704 40.8079 109.017 41.1731 109.487 41.2528C109.964 41.3338 110.354 41.0865 111.001 40.5982C112.932 39.1418 114.35 38.0997 115.274 37.4202L115.816 37.0206C116.288 36.6732 116.533 36.4074 116.587 36.0282C116.596 35.8149 116.561 35.6021 116.486 35.4023C116.411 35.2025 116.296 35.0198 116.15 34.865C112.511 29.7621 110.128 26.0245 108.719 23.8159C108.265 23.1046 107.91 22.5475 107.659 22.1715C107.477 21.8553 107.235 21.5779 106.947 21.355V21.3524C106.656 21.1741 106.33 21.0594 105.991 21.0159L102.671 20.3358L100.166 19.8208C99.8129 19.726 99.4448 19.7014 99.0823 19.7481C98.7608 19.8184 98.4582 19.9571 98.1951 20.1548C98.03 20.2625 97.8694 20.3696 97.7234 20.4684C97.4767 20.6328 97.2728 20.7692 97.1275 20.8527H97.1249C96.9681 20.9265 96.8342 21.0415 96.7376 21.1854C96.6409 21.3293 96.5851 21.4967 96.5761 21.6698C96.5795 21.9616 96.6752 22.2447 96.8496 22.4787V22.4793L99.0396 25.8689H99.0415L101.015 28.922L101.014 28.9233C101.045 28.9723 101.07 29.0125 101.095 29.052L101.098 29.0571L86.0669 38.5401L86.0319 35.4431C86.1541 34.6842 86.5389 33.9923 87.1192 33.4882C88.1122 32.5441 89.2289 31.7393 90.4387 31.0961C90.5446 31.0356 90.6459 30.982 90.7294 30.9374C90.9511 30.8537 91.1412 30.7028 91.2731 30.5059C91.393 30.2785 91.439 30.0194 91.4044 29.7646C91.4044 29.6875 91.4037 29.5963 91.4057 29.488C91.4923 22.8987 90.5171 22.0395 86.5743 21.9866C86.0293 21.9803 85.427 21.9905 84.7571 22.0019C84.2058 22.0121 83.6022 22.0223 82.7538 22.0223C81.9061 22.0223 81.3031 22.0121 80.7511 22.0019H80.7511ZM82.9998 80.9051C91.3068 80.9052 99.3569 78.025 105.778 72.7551C112.2 67.4853 116.595 60.1519 118.216 52.0046C119.837 43.8572 118.582 35.4 114.666 28.0738C110.751 20.7477 104.416 15.006 96.7409 11.8271C89.0662 8.6481 80.5267 8.22859 72.5774 10.64C64.6281 13.0514 57.7609 18.1445 53.1458 25.0516C48.5307 31.9586 46.4533 40.2522 47.2676 48.5192C48.082 56.7861 51.7375 64.515 57.6115 70.3889C60.942 73.7278 64.8993 76.3757 69.2563 78.1804C73.6133 79.9851 78.2839 80.9111 82.9998 80.9051Z" fill="#878787"/>
</g>
</g>
</svg>
