<svg width="17" height="17" viewBox="0 0 17 17" fill="none" xmlns="http://www.w3.org/2000/svg">
<g id="phone">
<g id="Group 46">
<g id="Group">
<path id="Vector" d="M8.76491 15.7441C4.63425 15.7441 1.28569 12.3955 1.28569 8.26487C1.28569 4.13421 4.63425 0.785645 8.76491 0.785645C12.8956 0.785645 16.2441 4.13421 16.2441 8.26487C16.2441 12.3955 12.8956 15.7441 8.76491 15.7441Z" stroke="white" stroke-width="0.8"/>
</g>
<g id="Group_2">
<path id="Vector_2" d="M11.4147 8.69168C11.1786 8.69168 10.9873 8.50034 10.9873 8.2643C10.9873 8.02826 11.1786 7.83691 11.4147 7.83691C11.6507 7.83691 11.842 8.02826 11.842 8.2643C11.842 8.50034 11.6507 8.69168 11.4147 8.69168Z" fill="white" stroke="white" stroke-width="0.8"/>
<path id="Vector_3" d="M6.15782 8.69168C5.92178 8.69168 5.73044 8.50034 5.73044 8.2643C5.73044 8.02826 5.92178 7.83691 6.15782 7.83691C6.39386 7.83691 6.58521 8.02826 6.58521 8.2643C6.58521 8.50034 6.39386 8.69168 6.15782 8.69168Z" fill="white" stroke="white" stroke-width="0.8"/>
<path id="Vector_4" d="M8.76475 8.69168C8.52872 8.69168 8.33737 8.50034 8.33737 8.2643C8.33737 8.02826 8.52872 7.83691 8.76475 7.83691C9.00079 7.83691 9.19214 8.02826 9.19214 8.2643C9.19214 8.50034 9.00079 8.69168 8.76475 8.69168Z" fill="white" stroke="white" stroke-width="0.8"/>
</g>
</g>
<path id="Vector_5" d="M8.0811 15.7446H16.2441V8.22266" stroke="white" stroke-width="0.8"/>
</g>
</svg>
