<svg width="17" height="17" viewBox="0 0 17 17" fill="none" xmlns="http://www.w3.org/2000/svg">
<g id="WhatsApp">
<g id="Group 46">
<g id="Group">
<path id="Vector" d="M8.76491 16.2441C4.63425 16.2441 1.28568 12.8955 1.28568 8.76487C1.28569 4.63421 4.63425 1.28564 8.76491 1.28564C12.8956 1.28564 16.2441 4.63421 16.2441 8.76487C16.2441 12.8955 12.8956 16.2441 8.76491 16.2441Z" stroke="white" stroke-width="0.8"/>
</g>
</g>
<path id="Vector_2" d="M8.0811 16.2446L16.2441 16.2446L16.2441 8.72266" stroke="white" stroke-width="0.8"/>
<path id="Vector_3" d="M7.72657 7.85129C8.14287 8.60031 8.7138 9.17396 9.47503 9.59306C9.55235 9.50686 9.62966 9.41769 9.71292 9.33447C10.046 9.00454 10.4504 9.00157 10.7804 9.3315C11.0213 9.57225 11.2622 9.81004 11.503 10.0538C11.8212 10.3778 11.8242 10.782 11.509 11.106C11.3395 11.2784 11.1611 11.4418 10.9975 11.6202C10.6764 11.9709 10.2749 12.0512 9.82889 11.9739C9.17768 11.8639 8.61865 11.5459 8.09232 11.1684C7.18241 10.5145 6.42117 9.7179 5.84133 8.75784C5.60344 8.35658 5.41313 7.93748 5.33879 7.4738C5.26743 7.03093 5.34771 6.63561 5.69562 6.31757C5.87106 6.15707 6.03164 5.9817 6.20113 5.81525C6.5312 5.49127 6.9356 5.49127 7.2627 5.81525C7.50653 6.05601 7.75036 6.29974 7.99122 6.54644C8.30642 6.86448 8.30642 7.26871 7.99419 7.58972C7.91093 7.67295 7.82173 7.75914 7.72657 7.85129ZM6.71853 6.30271C6.54012 6.48105 6.36468 6.67128 6.17734 6.84367C6.04353 6.96851 6.01379 7.11415 6.02866 7.28357C6.06137 7.60756 6.18329 7.90479 6.33791 8.18418C6.92965 9.26016 7.76523 10.1102 8.78814 10.776C9.12713 10.996 9.48693 11.1803 9.88836 11.2605C10.0489 11.2932 10.2303 11.3378 10.3582 11.2249C10.5872 11.0227 10.7894 10.7879 10.9826 10.5858C10.7358 10.3391 10.4831 10.0865 10.2244 9.8249C10.1262 9.92299 10.0192 10.033 9.90918 10.1429C9.68616 10.3659 9.45719 10.3926 9.17768 10.241C8.26479 9.75059 7.56303 9.04913 7.07239 8.13663C6.92073 7.85129 6.9475 7.62539 7.17646 7.39652C7.28351 7.28655 7.39651 7.18252 7.50058 7.08146C7.23593 6.81692 6.98615 6.56725 6.71853 6.30271Z" fill="white"/>
</g>
</svg>
