<svg width="24" height="24" viewBox="0 0 24 24" fill="none" xmlns="http://www.w3.org/2000/svg">
<g id="icon/20/user/admin">
<path id="icon color" fill-rule="evenodd" clip-rule="evenodd" d="M9 3C11.0711 3 12.75 4.67893 12.75 6.75C12.75 8.82107 11.0711 10.5 9 10.5C6.92893 10.5 5.25 8.82107 5.25 6.75C5.25236 4.67991 6.92991 3.00236 9 3V3ZM9 1.5C6.10051 1.5 3.75 3.85051 3.75 6.75C3.75 9.64949 6.10051 12 9 12C11.8995 12 14.25 9.64949 14.25 6.75C14.25 3.85051 11.8995 1.5 9 1.5ZM16.5 22.5H15V18.75C14.9976 16.6799 13.3201 15.0024 11.25 15H6.75C4.67994 15.0024 3.00244 16.6799 3 18.75V22.5H1.5V18.75C1.50339 15.8519 3.85191 13.5034 6.75 13.5H11.25C14.1481 13.5034 16.4966 15.8519 16.5 18.75V22.5ZM18.75 12.135L16.8075 10.1925L15.75 11.25L18.75 14.25L24 9.00002L22.9425 7.94252L18.75 12.135V12.135Z" fill="#5C4DD8"/>
<mask id="mask0_1077_3225" style="mask-type:luminance" maskUnits="userSpaceOnUse" x="1" y="1" width="23" height="22">
<path id="icon color_2" fill-rule="evenodd" clip-rule="evenodd" d="M9 3C11.0711 3 12.75 4.67893 12.75 6.75C12.75 8.82107 11.0711 10.5 9 10.5C6.92893 10.5 5.25 8.82107 5.25 6.75C5.25236 4.67991 6.92991 3.00236 9 3V3ZM9 1.5C6.10051 1.5 3.75 3.85051 3.75 6.75C3.75 9.64949 6.10051 12 9 12C11.8995 12 14.25 9.64949 14.25 6.75C14.25 3.85051 11.8995 1.5 9 1.5ZM16.5 22.5H15V18.75C14.9976 16.6799 13.3201 15.0024 11.25 15H6.75C4.67994 15.0024 3.00244 16.6799 3 18.75V22.5H1.5V18.75C1.50339 15.8519 3.85191 13.5034 6.75 13.5H11.25C14.1481 13.5034 16.4966 15.8519 16.5 18.75V22.5ZM18.75 12.135L16.8075 10.1925L15.75 11.25L18.75 14.25L24 9.00002L22.9425 7.94252L18.75 12.135V12.135Z" fill="white"/>
</mask>
<g mask="url(#mask0_1077_3225)">
</g>
</g>
</svg>
