<svg width="24" height="24" viewBox="0 0 24 24" fill="none" xmlns="http://www.w3.org/2000/svg">
<g id="icon/20/image/settings">
<path id="icon color" fill-rule="evenodd" clip-rule="evenodd" d="M20.25 12.5701C20.25 12.3826 20.25 12.1951 20.25 12.0001C20.25 11.8051 20.25 11.6176 20.25 11.4226L21.69 10.1551C22.234 9.67299 22.3541 8.87024 21.975 8.25006L20.205 5.25006C19.8466 4.63317 19.1034 4.35404 18.4275 4.58256L16.605 5.19756C16.291 4.98522 15.9627 4.79477 15.6225 4.62756L15.2475 2.73756C15.106 2.02489 14.474 1.51614 13.7475 1.53006H10.23C9.50355 1.51614 8.87156 2.02489 8.73001 2.73756L8.35501 4.62756C8.00988 4.79173 7.67658 4.97969 7.35751 5.19006L5.57251 4.54506C4.8876 4.323 4.14152 4.61891 3.79501 5.25006L2.02501 8.25006C1.66814 8.86858 1.79677 9.65293 2.33251 10.1251L3.75001 11.4301C3.75001 11.6176 3.75001 11.8051 3.75001 12.0001C3.75001 12.1951 3.75001 12.3826 3.75001 12.5776L2.33251 13.8376C1.77695 14.3146 1.64697 15.123 2.02501 15.7501L3.79501 18.7501C4.15338 19.367 4.89666 19.6461 5.57251 19.4176L7.39501 18.8026C7.70903 19.0149 8.0373 19.2054 8.37751 19.3726L8.75251 21.2626C8.89406 21.9752 9.52605 22.484 10.2525 22.4701H13.7925C14.519 22.484 15.151 21.9752 15.2925 21.2626L15.6675 19.3726C16.0126 19.2084 16.3459 19.0204 16.665 18.8101L18.48 19.4251C19.1419 19.6244 19.8542 19.3456 20.205 18.7501L21.975 15.7501C22.3319 15.1315 22.2032 14.3472 21.6675 13.8751L20.25 12.5701ZM18.9075 18.0001L16.335 17.1301C15.731 17.6357 15.0431 18.0316 14.3025 18.3001L13.77 21.0001H10.23L9.69751 18.3376C8.96234 18.0639 8.27984 17.6656 7.68001 17.1601L5.09251 18.0001L3.32251 15.0001L5.37001 13.2076C5.23181 12.4312 5.23181 11.6365 5.37001 10.8601L3.32251 9.00005L5.09251 6.00005L7.66501 6.87005C8.26905 6.36444 8.95693 5.96847 9.69751 5.70005L10.23 3.00005H13.77L14.3025 5.66255C15.0377 5.93619 15.7202 6.33453 16.32 6.84005L18.9075 6.00005L20.6775 9.00005L18.63 10.8001C18.7684 11.5764 18.7684 12.3712 18.63 13.1476L20.6775 15.0001L18.9075 18.0001ZM12 16.5001C9.51473 16.5001 7.50001 14.4853 7.50001 12.0001C7.50001 9.51477 9.51473 7.50005 12 7.50005C14.4853 7.50005 16.5 9.51477 16.5 12.0001C16.5122 13.1972 16.042 14.3489 15.1954 15.1954C14.3488 16.042 13.1972 16.5122 12 16.5001ZM12 9.00006C11.1988 8.9814 10.4248 9.29147 9.85811 9.85818C9.29141 10.4249 8.98133 11.1988 9 12.0001C8.98133 12.8013 9.29141 13.5752 9.85811 14.1419C10.4248 14.7087 11.1988 15.0187 12 15.0001C12.8012 15.0187 13.5752 14.7087 14.1419 14.1419C14.7086 13.5752 15.0187 12.8013 15 12.0001C15.0187 11.1988 14.7086 10.4249 14.1419 9.85818C13.5752 9.29147 12.8012 8.9814 12 9.00006Z" fill="#5C4DD8"/>
<mask id="mask0_1077_2138" style="mask-type:luminance" maskUnits="userSpaceOnUse" x="1" y="1" width="22" height="22">
<path id="icon color_2" fill-rule="evenodd" clip-rule="evenodd" d="M20.25 12.5701C20.25 12.3826 20.25 12.1951 20.25 12.0001C20.25 11.8051 20.25 11.6176 20.25 11.4226L21.69 10.1551C22.234 9.67299 22.3541 8.87024 21.975 8.25006L20.205 5.25006C19.8466 4.63317 19.1034 4.35404 18.4275 4.58256L16.605 5.19756C16.291 4.98522 15.9627 4.79477 15.6225 4.62756L15.2475 2.73756C15.106 2.02489 14.474 1.51614 13.7475 1.53006H10.23C9.50355 1.51614 8.87156 2.02489 8.73001 2.73756L8.35501 4.62756C8.00988 4.79173 7.67658 4.97969 7.35751 5.19006L5.57251 4.54506C4.8876 4.323 4.14152 4.61891 3.79501 5.25006L2.02501 8.25006C1.66814 8.86858 1.79677 9.65293 2.33251 10.1251L3.75001 11.4301C3.75001 11.6176 3.75001 11.8051 3.75001 12.0001C3.75001 12.1951 3.75001 12.3826 3.75001 12.5776L2.33251 13.8376C1.77695 14.3146 1.64697 15.123 2.02501 15.7501L3.79501 18.7501C4.15338 19.367 4.89666 19.6461 5.57251 19.4176L7.39501 18.8026C7.70903 19.0149 8.0373 19.2054 8.37751 19.3726L8.75251 21.2626C8.89406 21.9752 9.52605 22.484 10.2525 22.4701H13.7925C14.519 22.484 15.151 21.9752 15.2925 21.2626L15.6675 19.3726C16.0126 19.2084 16.3459 19.0204 16.665 18.8101L18.48 19.4251C19.1419 19.6244 19.8542 19.3456 20.205 18.7501L21.975 15.7501C22.3319 15.1315 22.2032 14.3472 21.6675 13.8751L20.25 12.5701ZM18.9075 18.0001L16.335 17.1301C15.731 17.6357 15.0431 18.0316 14.3025 18.3001L13.77 21.0001H10.23L9.69751 18.3376C8.96234 18.0639 8.27984 17.6656 7.68001 17.1601L5.09251 18.0001L3.32251 15.0001L5.37001 13.2076C5.23181 12.4312 5.23181 11.6365 5.37001 10.8601L3.32251 9.00005L5.09251 6.00005L7.66501 6.87005C8.26905 6.36444 8.95693 5.96847 9.69751 5.70005L10.23 3.00005H13.77L14.3025 5.66255C15.0377 5.93619 15.7202 6.33453 16.32 6.84005L18.9075 6.00005L20.6775 9.00005L18.63 10.8001C18.7684 11.5764 18.7684 12.3712 18.63 13.1476L20.6775 15.0001L18.9075 18.0001ZM12 16.5001C9.51473 16.5001 7.50001 14.4853 7.50001 12.0001C7.50001 9.51477 9.51473 7.50005 12 7.50005C14.4853 7.50005 16.5 9.51477 16.5 12.0001C16.5122 13.1972 16.042 14.3489 15.1954 15.1954C14.3488 16.042 13.1972 16.5122 12 16.5001ZM12 9.00006C11.1988 8.9814 10.4248 9.29147 9.85811 9.85818C9.29141 10.4249 8.98133 11.1988 9 12.0001C8.98133 12.8013 9.29141 13.5752 9.85811 14.1419C10.4248 14.7087 11.1988 15.0187 12 15.0001C12.8012 15.0187 13.5752 14.7087 14.1419 14.1419C14.7086 13.5752 15.0187 12.8013 15 12.0001C15.0187 11.1988 14.7086 10.4249 14.1419 9.85818C13.5752 9.29147 12.8012 8.9814 12 9.00006Z" fill="white"/>
</mask>
<g mask="url(#mask0_1077_2138)">
</g>
</g>
</svg>
