<svg width="24" height="24" viewBox="0 0 24 24" fill="none" xmlns="http://www.w3.org/2000/svg">
<g id="icon/20/navigation/app switcher">
<path id="icon color" fill-rule="evenodd" clip-rule="evenodd" d="M3.75 3.75H6.75V6.75H3.75V3.75ZM10.5 3.75H13.5V6.75H10.5V3.75ZM20.25 3.75H17.25V6.75H20.25V3.75ZM10.5 10.5H13.5V13.5H10.5V10.5ZM6.75 10.5H3.75V13.5H6.75V10.5ZM17.25 10.5H20.25V13.5H17.25V10.5ZM13.5 17.25H10.5V20.25H13.5V17.25ZM3.75 17.25H6.75V20.25H3.75V17.25ZM20.25 17.25H17.25V20.25H20.25V17.25Z" fill="#5C4DD8"/>
<mask id="mask0_1077_2100" style="mask-type:luminance" maskUnits="userSpaceOnUse" x="3" y="3" width="18" height="18">
<path id="icon color_2" fill-rule="evenodd" clip-rule="evenodd" d="M3.75 3.75H6.75V6.75H3.75V3.75ZM10.5 3.75H13.5V6.75H10.5V3.75ZM20.25 3.75H17.25V6.75H20.25V3.75ZM10.5 10.5H13.5V13.5H10.5V10.5ZM6.75 10.5H3.75V13.5H6.75V10.5ZM17.25 10.5H20.25V13.5H17.25V10.5ZM13.5 17.25H10.5V20.25H13.5V17.25ZM3.75 17.25H6.75V20.25H3.75V17.25ZM20.25 17.25H17.25V20.25H20.25V17.25Z" fill="white"/>
</mask>
<g mask="url(#mask0_1077_2100)">
</g>
</g>
</svg>
