<svg width="24" height="24" viewBox="0 0 24 24" fill="none" xmlns="http://www.w3.org/2000/svg">
<g id="user-profile">
<path id="Vector" d="M8.4002 2.64001C9.11221 2.64001 9.80823 2.85115 10.4002 3.24672C10.9923 3.64229 11.4537 4.20454 11.7262 4.86235C11.9986 5.52017 12.0699 6.24401 11.931 6.94234C11.7921 7.64067 11.4492 8.28213 10.9458 8.7856C10.4423 9.28907 9.80085 9.63193 9.10252 9.77084C8.40419 9.90975 7.68035 9.83845 7.02253 9.56598C6.36472 9.2935 5.80248 8.83208 5.4069 8.24006C5.01133 7.64805 4.8002 6.95202 4.8002 6.24001C4.8002 5.28523 5.17948 4.36956 5.85461 3.69443C6.52974 3.0193 7.44542 2.64001 8.4002 2.64001ZM8.4002 1.20001C7.40338 1.20001 6.42895 1.4956 5.60012 2.04941C4.7713 2.60321 4.12531 3.39035 3.74384 4.31129C3.36238 5.23223 3.26257 6.2456 3.45704 7.22327C3.65151 8.20093 4.13152 9.09897 4.83638 9.80383C5.54123 10.5087 6.43928 10.9887 7.41694 11.1832C8.3946 11.3776 9.40798 11.2778 10.3289 10.8964C11.2499 10.5149 12.037 9.86891 12.5908 9.04009C13.1446 8.21126 13.4402 7.23683 13.4402 6.24001C13.4402 4.90332 12.9092 3.62138 11.964 2.67619C11.0188 1.73101 9.73689 1.20001 8.4002 1.20001ZM15.6002 22.8H14.1602V19.2C14.1602 18.2452 13.7809 17.3296 13.1058 16.6544C12.4306 15.9793 11.515 15.6 10.5602 15.6H6.2402C5.28542 15.6 4.36974 15.9793 3.69461 16.6544C3.01948 17.3296 2.6402 18.2452 2.6402 19.2V22.8H1.2002V19.2C1.2002 17.8633 1.73119 16.5814 2.67638 15.6362C3.62156 14.691 4.9035 14.16 6.2402 14.16H10.5602C11.8969 14.16 13.1788 14.691 14.124 15.6362C15.0692 16.5814 15.6002 17.8633 15.6002 19.2V22.8ZM15.6002 4.08001H22.8002V5.52001H15.6002V4.08001ZM15.6002 7.68001H22.8002V9.12001H15.6002V7.68001ZM15.6002 11.28H20.6402V12.72H15.6002V11.28Z" fill="#5C4DD8"/>
</g>
</svg>
