<svg width="63" height="63" viewBox="0 0 63 63" fill="none" xmlns="http://www.w3.org/2000/svg">
<path id="&#208;&#155;&#208;&#190;&#208;&#179;&#208;&#190;&#209;&#130;&#208;&#184;&#208;&#191; 1&#208;&#161; &#208;&#145;&#208;&#184;&#209;&#130;&#209;&#128;&#208;&#184;&#208;&#186;&#209;&#129;" d="M11.2044 7.49479C11.2044 15.6564 11.2358 23.5669 11.2044 31.4773C11.173 36.1859 12.586 40.4551 15.569 44.065C21.0325 50.6885 28.0975 53.1055 36.4184 51.1593C44.4253 49.3073 50.3285 42.7152 51.5216 34.8047C53.3114 23.1902 45.3045 12.6743 33.6866 11.3245C33.1214 11.2617 32.5562 11.3245 31.9282 11.3245C31.9282 13.2393 31.9282 15.0286 31.9282 16.9434C35.9474 17.3201 39.37 18.7327 42.1331 21.652C46.4977 26.2665 47.3141 33.4235 44.0799 38.8855C40.6887 44.5673 34.0948 47.2669 27.7835 45.6032C21.5977 43.9708 17.0762 38.3519 17.0448 31.9796C16.9192 22.9076 17.0134 13.8043 16.9506 4.73241C16.9506 3.38261 17.7042 3.10009 18.9602 2.7234C18.9602 3.35121 18.9602 3.88486 18.9602 4.4185C18.9602 13.2707 18.9288 22.1543 18.9602 31.0065C18.9916 37.4416 22.8223 42.3699 28.8511 43.7511C35.759 45.3206 42.6355 40.612 43.8915 33.4863C45.0533 26.8629 40.0922 20.0825 33.404 19.1408C32.9644 19.078 32.4934 19.1408 31.9282 19.1408C31.9282 21.0242 31.9282 22.8449 31.9282 24.6969C35.1624 25.262 37.3604 26.9571 38.114 30.1589C38.9618 33.7375 36.3242 37.5985 32.6504 38.1635C28.7883 38.76 24.9261 35.9976 24.8633 32.2935C24.7377 21.9345 24.8005 11.5442 24.8005 1.18525C24.8005 1.09108 24.8633 0.99691 24.8947 0.902737C35.7904 -2.26773 52.9346 2.75479 60.1566 18.4816C66.9389 33.2038 61.1928 51.0024 47.1257 58.8814C32.5876 67.0116 14.47 62.7739 5.30129 49.0875C-3.61622 35.8092 -1.04145 17.1945 11.2044 7.49479Z" fill="white"/>
</svg>
