<svg width="192" height="95" viewBox="0 0 192 95" fill="none" xmlns="http://www.w3.org/2000/svg">
<path d="M131.217 13.7378H63.7307V81.2246H131.217V13.7378Z" stroke="white" stroke-width="0.5699" stroke-linecap="round" stroke-linejoin="round"/>
<path d="M121.254 71.25C134.371 58.1332 134.371 36.8668 121.254 23.75C108.138 10.6332 86.8712 10.6332 73.7544 23.75C60.6376 36.8668 60.6376 58.1332 73.7544 71.25C86.8712 84.3668 108.138 84.3668 121.254 71.25Z" stroke="white" stroke-width="0.5699" stroke-linecap="round" stroke-linejoin="round"/>
<path d="M121.132 23.8232H73.8604V71.0951H121.132V23.8232Z" stroke="white" stroke-width="0.5699" stroke-linecap="round" stroke-linejoin="round"/>
<path d="M131.262 13.7378L63.7307 81.269" stroke="white" stroke-width="0.5699" stroke-linecap="round" stroke-linejoin="round"/>
<path d="M63.7307 13.7378L131.262 81.269" stroke="white" stroke-width="0.5699" stroke-linecap="round" stroke-linejoin="round"/>
<path d="M135.996 50.5803C134.843 51.709 133.38 52.3167 131.651 52.3167C129.921 52.3167 128.458 51.7524 127.305 50.5803C126.152 49.4516 125.532 47.9757 125.532 46.2392C125.532 44.5028 126.108 43.0703 127.305 41.8982C128.458 40.7695 129.921 40.1618 131.651 40.1618C133.38 40.1618 134.843 40.7261 135.996 41.8982C137.149 43.0269 137.77 44.5028 137.77 46.2392C137.77 47.9757 137.149 49.4082 135.996 50.5803ZM131.651 36.6455C128.902 36.6455 126.551 37.5571 124.689 39.4238C122.782 41.2904 121.807 43.5912 121.807 46.2392C121.807 48.8873 122.782 51.1881 124.689 53.0547C126.551 54.878 128.902 55.833 131.651 55.833C134.4 55.833 136.75 54.9214 138.612 53.0547C140.519 51.1881 141.495 48.8873 141.495 46.2392C141.495 43.5912 140.519 41.2904 138.612 39.4238C136.706 37.6005 134.356 36.6455 131.651 36.6455Z" fill="white"/>
<path d="M157.103 50.5803C155.95 51.709 154.487 52.3167 152.758 52.3167C151.028 52.3167 149.565 51.7524 148.412 50.5803C147.259 49.4516 146.638 47.9757 146.638 46.2392C146.638 44.5028 147.215 43.0703 148.412 41.8982C149.565 40.7695 151.028 40.1618 152.758 40.1618C154.487 40.1618 155.95 40.7261 157.103 41.8982C158.256 43.0269 158.877 44.5028 158.877 46.2392C158.832 47.9757 158.256 49.4082 157.103 50.5803ZM152.713 36.6455C149.964 36.6455 147.614 37.5571 145.752 39.4238C143.845 41.2904 142.869 43.5912 142.869 46.2392C142.869 48.8873 143.845 51.1881 145.752 53.0547C147.614 54.878 149.964 55.833 152.713 55.833C155.462 55.833 157.813 54.9214 159.675 53.0547C161.582 51.1881 162.557 48.8873 162.557 46.2392C162.557 43.5912 161.582 41.2904 159.675 39.4238C157.813 37.6005 155.462 36.6455 152.713 36.6455Z" fill="white"/>
<path d="M101.587 54.5735C102.873 55.4417 105.046 55.7022 108.017 55.3549V52.1425C107.085 52.1859 106.243 52.1859 105.622 52.1425C104.868 52.0991 104.292 51.882 103.937 51.5348C103.538 51.1441 103.361 50.5797 103.361 49.7549V40.6387H108.061V37.1659H103.316V32L99.6361 33.0853V37.1659H96.1331V40.6387H99.6361V49.7549C99.6361 52.0557 100.301 53.7053 101.587 54.5735Z" fill="white"/>
<path d="M5.45404 41.8543C6.60693 40.6823 8.11455 40.0745 9.88822 40.0745C11.6619 40.0745 13.1252 40.6823 14.3224 41.8543C15.4753 42.983 16.0961 44.459 16.0961 46.2388C16.0961 47.9752 15.5196 49.4946 14.3224 50.6667C13.1695 51.7954 11.6619 52.4031 9.88822 52.4031C8.11455 52.4031 6.65127 51.8388 5.45404 50.6667C4.30116 49.4512 3.68037 47.9752 3.68037 46.2822C3.68037 44.5024 4.30116 43.0264 5.45404 41.8543ZM10.5534 55.8325C13.0808 55.8325 15.2979 54.9209 17.0716 53.0543C18.8896 51.231 19.7764 48.9303 19.7764 46.2388C19.7764 43.5908 18.8453 41.29 17.0716 39.4668C15.2536 37.6001 13.0365 36.6885 10.5534 36.6885C7.75982 36.6885 5.58707 37.7303 4.07945 39.7706L3.72471 40.2481V37.166H0V60H3.68037V52.3163L4.0351 52.7938C5.58707 54.7907 7.75982 55.8325 10.5534 55.8325Z" fill="white"/>
<path d="M28.6448 41.9423C29.7977 41.1175 31.1723 40.7268 32.6799 40.7702V36.8198C29.975 36.8632 28.2014 37.9485 27.2258 40.1624L26.7824 40.9872V37.1237H23.1021V51.9701H26.7824V46.1531C26.7824 44.1996 27.4032 42.7671 28.6448 41.9423Z" fill="white"/>
<path d="M117.107 41.9423C118.26 41.1175 119.634 40.7268 121.142 40.7702V36.8198C118.437 36.8632 116.663 37.9485 115.688 40.1624L115.289 40.9872V37.1237H111.608V51.9701H115.289V46.1531C115.289 44.1996 115.91 42.7671 117.107 41.9423Z" fill="white"/>
<path d="M47.5345 50.5803C46.3816 51.709 44.9183 52.3167 43.189 52.3167C41.4597 52.3167 39.9964 51.7524 38.8435 50.5803C37.6906 49.4516 37.0698 47.9757 37.0698 46.2392C37.0698 44.5028 37.6463 43.0703 38.8435 41.8982C39.9964 40.7695 41.4597 40.1618 43.189 40.1618C44.9183 40.1618 46.3816 40.7261 47.5345 41.8982C48.6874 43.0269 49.3082 44.5028 49.3082 46.2392C49.2638 47.9757 48.6874 49.4082 47.5345 50.5803ZM43.1447 36.6455C40.3955 36.6455 38.0454 37.5571 36.183 39.4238C34.2763 41.2904 33.3008 43.5912 33.3008 46.2392C33.3008 48.8873 34.2763 51.1881 36.183 53.0547C38.0454 54.878 40.3955 55.833 43.1447 55.833C45.8939 55.833 48.244 54.9214 50.1063 53.0547C52.013 51.1881 52.9885 48.8873 52.9885 46.2392C52.9885 43.5912 52.013 41.2904 50.1063 39.4238C48.244 37.6005 45.8939 36.6455 43.1447 36.6455Z" fill="white"/>
<path d="M55.5159 55.2256C54.8951 55.7465 54.0083 55.9635 52.811 55.8767V59.3496C55.2055 59.4798 57.0678 59.0023 58.2651 57.917C59.5066 56.7883 60.1718 54.9217 60.1718 52.4039V44.2427H56.4914V52.3605C56.4471 53.7062 56.1367 54.6612 55.5159 55.2256Z" fill="white"/>
<path d="M58.3094 36.2114C57.6443 36.2114 57.0678 36.4285 56.5801 36.9494C56.0923 37.4269 55.8706 37.9478 55.8706 38.599C55.8706 39.2502 56.0923 39.8145 56.5801 40.292C57.0678 40.7695 57.6443 40.9866 58.3094 40.9866C58.9745 40.9866 59.5066 40.7695 59.9944 40.292C60.4822 39.8145 60.7482 39.2502 60.7482 38.599C60.7482 37.9478 60.5265 37.4269 59.9944 36.9494C59.5066 36.4285 58.9745 36.2114 58.3094 36.2114Z" fill="white"/>
<path d="M67.2221 44.8931L67.2664 44.676C67.5325 43.2435 68.2419 42.0714 69.2618 41.2032C70.326 40.3784 71.6119 39.9443 73.1639 39.9443C74.5828 39.9443 75.8244 40.3784 76.8443 41.1598C77.8641 41.9846 78.4849 43.1567 78.7953 44.6326L78.8396 44.8497H67.2221V44.8931ZM82.5643 46.2822C82.5643 43.6342 81.6775 41.3334 79.9038 39.4668C78.1745 37.6001 75.9131 36.6885 73.2082 36.6885C70.326 36.6885 67.9316 37.6001 66.1579 39.4668C64.3399 41.29 63.4087 43.5908 63.4087 46.2822C63.4087 49.0171 64.3399 51.3613 66.2022 53.1845C68.0646 54.9643 70.5477 55.876 73.5186 55.876C77.066 55.876 79.7265 54.617 81.5445 52.0992L78.5292 50.3628C77.3764 51.8388 75.7357 52.6202 73.563 52.6202C71.9223 52.6202 70.5477 52.2295 69.4392 51.4481C68.3306 50.6667 67.6212 49.538 67.3108 48.1055L67.2664 47.8884H82.4313C82.52 47.1938 82.5643 46.7163 82.5643 46.2822Z" fill="white"/>
<path d="M184.462 39.8581C185.659 39.8581 186.59 40.2488 187.3 40.9868C188.009 41.7248 188.32 42.7667 188.32 44.069V47.7155H192V43.8085C192 41.5512 191.335 39.7713 190.093 38.4256C188.807 37.1233 187.122 36.4287 185.038 36.4287C182.511 36.4287 180.604 37.3837 179.407 39.2504L179.23 39.5109L179.052 39.2504C177.899 37.3403 176.214 36.4287 173.82 36.4287C171.514 36.4287 169.74 37.2969 168.543 39.0333L168.188 39.5977V36.9062H164.508V55.0953H168.188V44.9372C168.188 43.331 168.588 42.0287 169.386 41.1605C170.184 40.2923 171.292 39.8147 172.578 39.8147C173.775 39.8147 174.707 40.2054 175.372 40.9434C176.037 41.6814 176.347 42.7232 176.347 44.069V55.1387H180.028V44.9372C180.028 43.2876 180.427 42.0287 181.181 41.1605C182.067 40.2923 183.132 39.8581 184.462 39.8581Z" fill="white"/>
<path d="M84.604 46.2388C84.604 48.8869 85.5352 51.1876 87.3975 53.0543C89.1269 54.7473 91.2553 55.6589 93.7828 55.7891V52.2295C92.3195 52.0992 91.0779 51.5349 90.058 50.5365C88.9052 49.3644 88.3287 47.9318 88.3287 46.2388C88.3287 44.5458 88.9052 43.1132 90.058 41.9412C91.0779 40.9427 92.3638 40.3784 93.7828 40.2481V36.6885C91.2553 36.8187 89.1269 37.7303 87.3975 39.4233C85.5352 41.2466 84.604 43.5473 84.604 46.2388Z" fill="white"/>
</svg>
