<svg width="17" height="17" viewBox="0 0 17 17" fill="none" xmlns="http://www.w3.org/2000/svg">
<g id="Telegram">
<g id="Group 46">
<g id="Group">
<path id="Vector" d="M8.76491 16.2441C4.63425 16.2441 1.28569 12.8955 1.28569 8.76487C1.28569 4.63421 4.63425 1.28564 8.76491 1.28564C12.8956 1.28564 16.2441 4.63421 16.2441 8.76487C16.2441 12.8955 12.8956 16.2441 8.76491 16.2441Z" stroke="white" stroke-width="0.8"/>
</g>
</g>
<path id="Vector_2" d="M8.0811 16.2446L16.2441 16.2446L16.2441 8.72266" stroke="white" stroke-width="0.8"/>
<g id="Group_2">
<path id="Vector_3" d="M11.5629 6.74534C11.5332 6.88555 11.5034 7.02576 11.4779 7.16597C11.3037 8.07948 11.1295 8.99723 10.9553 9.91073C10.8278 10.5778 10.7004 11.2491 10.5729 11.9162C10.5517 12.0267 10.5134 12.1159 10.403 12.1584C10.3052 12.1966 10.2203 12.1669 10.1395 12.1116C9.63817 11.7717 9.1368 11.4318 8.63544 11.0877C8.57171 11.0452 8.53347 11.0452 8.47398 11.0919C8.22755 11.2746 7.97262 11.4531 7.72193 11.6358C7.53074 11.776 7.34379 11.708 7.28005 11.4743C7.14409 10.9559 7.00813 10.4418 6.87216 9.92348C6.85942 9.88099 6.84242 9.85974 6.80418 9.847C6.31557 9.66005 5.82695 9.4731 5.34258 9.28615C5.18537 9.22667 5.11739 9.11619 5.15138 8.97173C5.17687 8.87401 5.24485 8.81878 5.33408 8.78054C5.8142 8.58934 6.29432 8.39814 6.77869 8.20694C8.24029 7.62485 9.7019 7.04276 11.1635 6.46491C11.2272 6.43942 11.2995 6.42242 11.3632 6.43092C11.4737 6.43942 11.5332 6.5244 11.5714 6.62212C11.5629 6.66886 11.5629 6.7071 11.5629 6.74534ZM8.10433 10.1232C8.78415 10.582 9.45122 11.0367 10.131 11.4998C10.3902 10.1444 10.6451 8.79328 10.9043 7.4464C10.9001 7.4464 10.8958 7.44215 10.8916 7.44215C9.96533 8.33016 9.03908 9.22666 8.10433 10.1232ZM7.44151 10.0934C7.484 10.0382 7.51799 9.98296 7.56473 9.93622C8.41875 9.1162 9.26852 8.29617 10.1225 7.47189C10.1395 7.45489 10.1608 7.4379 10.182 7.4209C10.1778 7.41665 10.1735 7.41241 10.1735 7.40816C8.81814 7.94776 7.46276 8.48736 6.09462 9.03122C6.12012 9.04396 6.13711 9.04821 6.14986 9.05246C6.47702 9.17568 6.79993 9.30314 7.1271 9.42636C7.23332 9.4646 7.3013 9.53683 7.32679 9.6473C7.36078 9.80451 7.40327 9.95322 7.44151 10.0934ZM7.68794 11.0367C7.82816 10.9347 7.96412 10.837 8.10433 10.7393C7.90039 10.599 7.70494 10.4673 7.50099 10.3314C7.56473 10.5651 7.62421 10.7945 7.68794 11.0367Z" fill="white"/>
</g>
</g>
</svg>
