<svg width="41" height="68" viewBox="0 0 41 68" fill="none" xmlns="http://www.w3.org/2000/svg">
<g id="vs">
<g id="vs_2">
<path d="M40.2115 54.721L0.788461 67.8328L0.788461 59.4635L31.0879 49.9226L0.78846 40.4375L0.78846 32.0125L40.2115 45.18L40.2115 54.721Z" fill="#333333"/>
<path d="M41 16.0032C41 19.8717 40.1364 23.1264 38.4093 25.7673C36.6447 28.4083 34.2605 30.2681 31.2569 31.3468L27.3709 24.763C31.3883 23.238 33.397 20.2437 33.397 15.7801C33.397 13.6227 33.0027 12.0418 32.2143 11.0375C31.4258 10.0332 30.4309 9.53104 29.2294 9.53104C27.8402 9.53104 26.7701 10.1448 26.0192 11.3723C25.2308 12.5998 24.386 14.7944 23.4849 17.9561C22.9592 19.7043 22.4336 21.1922 21.908 22.4197C21.3823 23.6099 20.6877 24.8188 19.8242 26.0463C18.9231 27.2366 17.7967 28.1479 16.445 28.7803C15.0934 29.4126 13.5165 29.7288 11.7143 29.7288C8.14743 29.7288 5.31273 28.4827 3.21016 25.9905C1.07005 23.4612 -2.07206e-06 20.4296 -2.22652e-06 16.896C-2.36472e-06 13.7343 0.788459 10.9631 2.36538 8.58253C3.90476 6.16475 6.06364 4.28632 8.84203 2.94724L12.6154 9.41945C9.23626 10.9817 7.5467 13.4739 7.5467 16.896C7.5467 18.4954 7.92216 19.7601 8.67308 20.69C9.38645 21.5827 10.3251 22.0291 11.489 22.0291C12.728 22.0291 13.7418 21.5269 14.5302 20.5226C15.2811 19.4811 16.1071 17.5097 17.0082 14.6084C17.3837 13.4181 17.6841 12.5254 17.9093 11.9302C18.0971 11.2979 18.4162 10.461 18.8668 9.41945C19.2798 8.34075 19.674 7.52242 20.0494 6.96447C20.4249 6.36933 20.9318 5.69979 21.5701 4.95586C22.2083 4.21192 22.8654 3.65398 23.5412 3.28201C24.217 2.87285 25.043 2.53808 26.0192 2.27771C26.9579 1.98014 27.9904 1.83134 29.1168 1.83134C32.7587 1.83134 35.6497 3.15182 37.7898 5.79278C39.9299 8.39654 41 11.8 41 16.0032Z" fill="#333333"/>
</g>
<path id="Line (Stroke)" fill-rule="evenodd" clip-rule="evenodd" d="M19.0921 68L19.0921 1.52429e-07L22.6121 0L22.6121 68L19.0921 68Z" fill="#333333"/>
<path id="+" d="M33.5604 29.3762V36.1274H24.2679V45.3335H17.4533V36.1274H8.21704V29.3762H17.4533V20.2258H24.2679V29.3762H33.5604Z" fill="white"/>
</g>
</svg>
