<svg width="113" height="107" viewBox="0 0 113 107" fill="none" xmlns="http://www.w3.org/2000/svg">
<g id="&#208;&#145;&#208;&#184;&#208;&#183;&#208;&#189;&#208;&#181;&#209;&#129; &#208;&#152;&#208;&#180;&#208;&#176;&#208;&#187;&#208;&#190;&#208;&#179; 1" clip-path="url(#clip0_4_1795)">
<g id="&#208;&#161;&#208;&#187;&#208;&#190;&#208;&#185; 2">
<g id="&#208;&#161;&#208;&#187;&#208;&#190;&#208;&#185; 1">
<path id="Vector" d="M19.3226 35.8231C19.3663 29.9255 20.0997 25.0277 21.5381 22.9116C23.3511 20.228 27.1393 18.8847 32.9029 18.8817V0C22.8574 0 14.8681 2.64382 8.93497 7.93146C3.00541 13.2175 0.041006 20.9802 0.0417656 31.2196V42.4664C0.01495 42.7414 0 43.0204 0 43.302V70.9969H0.0417656V71H20.1217L20.1248 70.9969H24.804C27.0138 70.9561 29.1172 70.0546 30.6533 68.4897C32.1893 66.9249 33.0328 64.8244 32.999 62.6484V35.8231H19.3226Z" fill="#222222"/>
<path id="Vector_2" d="M48.6774 71.1767C48.6334 77.0743 47.9 81.9725 46.4621 84.0885C44.6488 86.772 40.8604 88.1153 35.0969 88.1184V107C45.1426 107 53.1319 104.356 59.0647 99.0683C64.9946 93.7824 67.9592 86.0196 67.9585 75.7802V64.5336C67.9853 64.2585 68 63.9794 68 63.6979V36.003H67.9585V36H47.8782L47.8752 36.003H43.196C40.9861 36.0437 38.8827 36.9452 37.3466 38.5101C35.8106 40.0749 34.9671 42.1754 35.001 44.3515V71.1767H48.6774Z" fill="#222222"/>
<path id="Vector_3" d="M113 13.9642H104.617C104.137 14.0352 103.646 14.0003 103.183 13.8621C102.72 13.724 102.297 13.4865 101.949 13.1684C101.601 12.8502 101.336 12.4603 101.175 12.0293C101.015 11.5983 100.964 11.1382 101.025 10.6854V6.315C100.964 5.86214 101.015 5.40198 101.175 4.97097C101.335 4.53995 101.6 4.14992 101.949 3.83175C102.297 3.51359 102.72 3.27602 103.183 3.13787C103.646 2.99972 104.137 2.96478 104.617 3.03581H113V5.222H104.617C104.457 5.19824 104.293 5.20982 104.139 5.25585C103.984 5.30187 103.844 5.38105 103.727 5.48713C103.611 5.5932 103.523 5.72325 103.47 5.86695C103.416 6.01065 103.399 6.16406 103.42 6.315V10.6854C103.399 10.8363 103.416 10.9897 103.47 11.1334C103.523 11.2771 103.611 11.4071 103.727 11.5132C103.844 11.6193 103.984 11.6985 104.139 11.7446C104.293 11.7906 104.457 11.8023 104.617 11.7786H113V13.9642Z" fill="#222222"/>
<path id="Vector_4" d="M49.8183 27.3969H51V32H48.6371V29.6985H40.3637V32H38V27.3969H39.1814V21.4518C39.1814 19.1504 40.363 17.9998 42.726 18H46.2731C48.637 18 49.8187 19.1506 49.8182 21.4518L49.8183 27.3969ZM47.4546 27.3969V21.4518C47.4546 20.6844 47.0589 20.3016 46.2731 20.3016H42.7261C41.9398 20.3016 41.5461 20.685 41.5449 21.4518V27.3969H47.4546Z" fill="#222222"/>
<path id="Vector_5" d="M90 29H87.5987V20.2008H83.9984C83.4133 20.2008 83.0133 20.5672 82.7986 21.3L80.4398 29H78C79.4785 24.6002 80.2784 22.0335 80.3998 21.3C81.1068 19.0997 82.3064 17.9997 83.9984 18H90V29Z" fill="#222222"/>
<path id="Vector_6" d="M103 25.8057C103 27.935 101.8 28.9997 99.3999 29H94.6011C92.1998 29 90.9994 27.9352 91 25.8057V21.1933C91 19.0642 92.2004 17.9998 94.6011 18H99.3999C101.801 18 103.001 19.0644 103 21.1933V25.8057ZM100.599 25.8057V21.1933C100.599 20.4834 100.199 20.1287 99.3999 20.1292H94.6011C93.8001 20.1292 93.4017 20.4834 93.4017 21.1933V25.8057C93.4017 26.5156 93.8001 26.8709 94.6011 26.8709H99.3999C99.5596 26.8944 99.7231 26.8835 99.8774 26.8389C100.032 26.7943 100.173 26.7172 100.289 26.6139C100.405 26.5106 100.494 26.3838 100.548 26.2435C100.602 26.1032 100.619 25.9534 100.599 25.8057Z" fill="#222222"/>
<path id="Vector_7" d="M60.5996 3L53.3994 10.627V3H51V3.62376L51.0054 3.60476V10.8873C51.0054 12.7006 51.8172 13.7237 53.4406 13.9566L60.5996 6.37343V14H63V3H60.5996Z" fill="#222222"/>
<path id="Vector_8" d="M101 5.20048V3H89V3.62011L89.0041 3.6047V10.8871C89.0041 12.8753 89.9806 13.9129 91.9334 14H101V11.8H91.4002V9.60005H98.5992V7.40067H91.4002V5.20048H101Z" fill="#222222"/>
<path id="Vector_9" d="M85.5997 3V7.40073H78.4017V3H76V3.64995L76.013 3.60468V10.8872C76.013 12.6828 76.8092 13.7031 78.4018 13.9482V9.60014H85.5998V14H88V3H85.5997Z" fill="#222222"/>
<path id="Vector_10" d="M74.9987 6.29891C74.9987 4.09922 73.9654 2.99958 71.8986 3H63V5.19933H71.3996C71.5599 5.17546 71.7239 5.18715 71.8786 5.23346C72.0333 5.27977 72.1744 5.35944 72.2908 5.46614C72.4072 5.57284 72.4957 5.70365 72.5491 5.8482C72.6026 5.99275 72.6197 6.14706 72.599 6.29891C72.6196 6.45073 72.6025 6.605 72.5489 6.7495C72.4954 6.894 72.407 7.02476 72.2906 7.13143C72.1742 7.23811 72.0332 7.31776 71.8785 7.36409C71.7239 7.41043 71.5599 7.42216 71.3996 7.39837H67.8V9.5966H71.3996C71.5599 9.57276 71.7238 9.58444 71.8784 9.63072C72.0331 9.67699 72.1742 9.7566 72.2905 9.86323C72.4069 9.96986 72.4954 10.1006 72.5489 10.2451C72.6024 10.3895 72.6196 10.5438 72.599 10.6956C72.6196 10.8474 72.6025 11.0017 72.549 11.1463C72.4955 11.2908 72.4071 11.4216 72.2907 11.5283C72.1744 11.635 72.0333 11.7147 71.8786 11.761C71.7239 11.8074 71.5599 11.8191 71.3996 11.7953H63V11.9435C63.1221 12.5512 63.4762 13.0955 63.9952 13.4734C64.5143 13.8514 65.1622 14.0366 65.8163 13.994H71.3996C73.7994 13.994 74.9991 13.0168 74.9987 11.0623C75.02 10.163 74.7784 9.27567 74.3005 8.49738C74.7424 7.83878 74.984 7.07825 74.9987 6.29891Z" fill="#222222"/>
<path id="Vector_11" d="M46.3861 7.38635H40.404V5.19332H48.779V3H38.0113V11.1108C37.9754 11.485 38.0252 11.8621 38.1572 12.2165C38.2893 12.5709 38.5006 12.8944 38.7767 13.165C39.0529 13.4356 39.3875 13.647 39.7579 13.7849C40.1282 13.9227 40.5257 13.9838 40.9232 13.964H46.3861C46.8656 14.0353 47.3561 14.0003 47.8187 13.8618C48.2814 13.7232 48.7036 13.4849 49.0517 13.1657C49.3999 12.8466 49.6646 12.4553 49.8248 12.0229C49.985 11.5905 50.0363 11.1289 49.9747 10.6745C50.0362 10.2202 49.9848 9.7587 49.8245 9.32642C49.6643 8.89413 49.3996 8.50299 49.0514 8.18396C48.7032 7.86492 48.2811 7.62676 47.8185 7.48832C47.3559 7.34988 46.8655 7.31497 46.3861 7.38635ZM46.3861 11.7713H40.404V9.57856H46.3861C46.5458 9.55496 46.7092 9.56672 46.8633 9.61293C47.0174 9.65914 47.158 9.73853 47.274 9.84483C47.39 9.95113 47.4782 10.0814 47.5316 10.2254C47.5851 10.3694 47.6023 10.5232 47.582 10.6745C47.6024 10.8259 47.5852 10.9798 47.5318 11.1238C47.4784 11.2679 47.3902 11.3983 47.2742 11.5047C47.1582 11.611 47.0176 11.6905 46.8634 11.7368C46.7093 11.7831 46.5459 11.7949 46.3861 11.7713Z" fill="#222222"/>
<path id="Vector_12" d="M61.6039 18L54.4167 25.6268V18H52.0207V26.0284C51.9761 26.3733 52.0038 26.7232 52.1021 27.0579C52.2004 27.3926 52.3674 27.7054 52.5935 27.9782C52.8196 28.251 53.1003 28.4785 53.4192 28.6475C53.7382 28.8164 54.0892 28.9235 54.4519 28.9625L61.6039 21.3736V29H64V18H61.6039Z" fill="#222222"/>
<path id="Vector_13" d="M73.4039 18H68.6116C66.2134 18 65.0145 19.0819 65.015 21.2457V26.1392C64.9398 26.8095 65.149 27.4806 65.5975 28.0078C66.0461 28.535 66.698 28.876 67.4128 28.9573V26.8358H74.6023V29H77V21.2457C77 19.0817 75.8013 17.9998 73.4039 18ZM74.6023 24.6724H67.4128V21.2457C67.4128 20.5242 67.8124 20.1637 68.6116 20.1642H73.4039C74.2023 20.1642 74.6018 20.5247 74.6023 21.2457V24.6724Z" fill="#222222"/>
<path id="Vector_14" d="M104.002 18V26.3362C103.975 26.9881 104.192 27.6263 104.61 28.1211C105.028 28.6159 105.615 28.9301 106.252 29V20.2091H113V18.0001L104.002 18Z" fill="#222222"/>
</g>
</g>
</g>
<defs>
<clipPath id="clip0_4_1795">
<rect width="113" height="107" fill="white"/>
</clipPath>
</defs>
</svg>
