<svg width="166" height="88" viewBox="0 0 166 88" fill="none" xmlns="http://www.w3.org/2000/svg">
<g id="glonass 1">
<g id="&#208;&#161;&#208;&#187;&#208;&#190;&#208;&#185; 1">
<path id="Vector" d="M89.4494 37C87.5719 38.3723 85.3152 39.1109 82.9996 39.1109C80.6841 39.1109 78.4274 38.3723 76.5498 37L64 49.7092C69.242 54.4067 76.0001 57 83 57C89.9999 57 96.758 54.4067 102 49.7092L89.4494 37Z" fill="#00B2BD"/>
<path id="Vector_2" d="M76.5504 20C78.4279 18.6277 80.6845 17.8892 83 17.8892C85.3155 17.8892 87.5721 18.6277 89.4496 20L102 7.29077C96.7579 2.59323 89.9999 0 83 0C76.0001 0 69.2421 2.59323 64 7.29077L76.5504 20Z" fill="#00B2BD"/>
<path id="Vector_3" d="M83.5004 36C84.9837 35.9999 86.4337 35.56 87.667 34.7359C88.9003 33.9117 89.8616 32.7404 90.4292 31.37C90.9968 29.9995 91.1453 28.4916 90.8559 27.0367C90.5665 25.5819 89.8522 24.2456 88.8033 23.1967C87.7544 22.1478 86.4181 21.4335 84.9633 21.1441C83.5084 20.8547 82.0005 21.0032 80.63 21.5708C79.2596 22.1384 78.0883 23.0997 77.2641 24.333C76.44 25.5663 76.0001 27.0163 76 28.4996C76.0023 30.4881 76.7932 32.3946 78.1993 33.8007C79.6054 35.2068 81.5119 35.9977 83.5004 36Z" fill="#535B7C"/>
<path id="Vector_4" d="M72.3122 37L75 34.4744C73.5521 32.5897 72.7728 30.3244 72.7728 27.9999C72.7728 25.6755 73.5521 23.4102 75 21.5255L72.3122 19C70.1664 21.5667 69 24.7361 69 28C69 31.2639 70.1664 34.4333 72.3122 37Z" fill="#535B7C"/>
<path id="Vector_5" d="M65.6919 28C65.6878 23.8052 67.2113 19.7402 70 16.5048L67.383 14C63.9083 17.9062 62 22.8693 62 28C62 33.1307 63.9083 38.0938 67.383 42L70 39.4951C67.2113 36.2597 65.6878 32.1948 65.6919 28Z" fill="#535B7C"/>
<path id="Vector_6" d="M108.364 28C108.368 34.0631 106.107 39.9218 102 44.4894L104.586 47C109.363 41.7578 112 34.9998 112 28C112 21.0002 109.363 14.2422 104.586 9L102 11.5106C106.107 16.0781 108.368 21.9369 108.364 28Z" fill="#535B7C"/>
<path id="Vector_7" d="M58.636 28C58.6322 21.9368 60.8933 16.0781 65 11.5106L62.4142 9C57.6371 14.2423 55 21.0002 55 28C55 34.9998 57.6371 41.7577 62.4142 47L65 44.4894C60.8934 39.9219 58.6322 34.0632 58.636 28Z" fill="#535B7C"/>
<path id="Vector_8" d="M99.6166 14L97 16.5048C99.785 19.7423 101.308 23.8059 101.308 27.9999C101.308 32.194 99.785 36.2576 97 39.4951L99.6166 42C103.092 38.0938 105 33.1307 105 28C105 22.8693 103.092 17.9062 99.6166 14Z" fill="#535B7C"/>
<path id="Vector_9" d="M94.6882 19L92 21.5255C93.4481 23.4102 94.2275 25.6755 94.2275 27.9999C94.2275 30.3244 93.4481 32.5897 92 34.4744L94.6882 37C96.8338 34.4331 98 31.2638 98 28C98 24.7362 96.8338 21.5669 94.6882 19Z" fill="#535B7C"/>
<path id="Vector_10" d="M5.81429 80.5608H10.3261L8.02311 73.8405H7.97701L5.81429 80.5608ZM10.0698 70L16 87H12.1865L11.0933 83.4876H4.8838L3.6978 87H0L6.00005 70H10.0698Z" fill="#535B7C"/>
<path id="Vector_11" d="M22.4726 79.0001C22.4432 80.0045 22.5912 81.0061 22.9093 81.9565C23.1456 82.6454 23.5263 83.2728 24.0246 83.7945C24.4376 84.2179 24.9413 84.5367 25.4956 84.7256C26.471 85.0707 27.5311 85.0707 28.5065 84.7256C29.0581 84.5381 29.5584 84.219 29.9661 83.7945C30.4588 83.2684 30.8384 82.6423 31.0807 81.9565C31.6783 80.0331 31.6783 77.967 31.0807 76.0436C30.8384 75.3578 30.4588 74.7317 29.9661 74.2055C29.5583 73.7812 29.0581 73.4624 28.5065 73.2752C27.5313 72.929 26.4709 72.929 25.4956 73.2752C24.9414 73.4638 24.4377 73.7823 24.0246 74.2055C23.5263 74.7273 23.1456 75.3547 22.9093 76.0436C22.5912 76.9941 22.4432 77.9957 22.4726 79.0001ZM19.0022 79.0001C18.9801 77.8337 19.1273 76.6705 19.4389 75.5485C19.6874 74.6724 20.0758 73.8446 20.5883 73.0987C21.0211 72.4734 21.5578 71.9309 22.1739 71.4961C22.7256 71.112 23.3196 70.7958 23.9436 70.5542C24.4921 70.3386 25.063 70.1884 25.645 70.1065C26.0943 70.0422 26.547 70.0066 27.0007 70C27.4545 70.0066 27.9076 70.0422 28.3572 70.1065C28.9389 70.1884 29.5096 70.3386 30.0578 70.5542C30.6818 70.7958 31.2758 71.112 31.8276 71.4961C32.4437 71.9311 32.9806 72.4735 33.4138 73.0987C33.9257 73.845 34.3141 74.6727 34.5633 75.5485C35.1456 77.8108 35.1456 80.1892 34.5633 82.4515C34.3143 83.3276 33.9259 84.1556 33.4138 84.902C32.9808 85.5272 32.4439 86.0695 31.8276 86.5039C31.2758 86.8883 30.6818 87.2047 30.0578 87.4467C29.5093 87.6614 28.9388 87.8116 28.3572 87.8944C27.9076 87.9584 27.4545 87.9937 27.0007 88C26.5471 87.9937 26.0943 87.9584 25.645 87.8944C25.0632 87.8116 24.4924 87.6615 23.9436 87.4467C23.3196 87.2047 22.7256 86.8883 22.1739 86.5039C21.5576 86.0696 21.0209 85.5274 20.5883 84.902C20.0757 84.1559 19.6873 83.3279 19.4389 82.4515C19.1273 81.3296 18.9801 80.1664 19.0022 79.0001Z" fill="#535B7C"/>
<path id="Vector_12" d="M58 70V72.9276H49.5047V87H46V70H58Z" fill="#535B7C"/>
<path id="Vector_13" d="M75 70V86.5639H71.4446V72.8525H66.6167V79.9249C66.6249 80.9026 66.5501 81.8793 66.3931 82.8451C66.2745 83.6214 66.0238 84.3732 65.6512 85.0699C65.3359 85.6552 64.8643 86.1477 64.2856 86.4962C63.6406 86.8499 62.907 87.0234 62.1664 86.9975C61.7811 86.9985 61.396 86.9797 61.0128 86.941C60.6699 86.906 60.3309 86.841 60 86.7468V84.0999C60.1434 84.1381 60.2889 84.1687 60.4357 84.1916C60.6419 84.2238 60.8506 84.239 61.0595 84.2369C61.4007 84.2495 61.7389 84.1705 62.0368 84.0088C62.3229 83.8243 62.5415 83.5569 62.6613 83.2448C62.8417 82.784 62.9488 82.2993 62.9789 81.8074C63.0336 81.2065 63.0611 80.4573 63.0613 79.56V70H75Z" fill="#535B7C"/>
<path id="Vector_14" d="M81.4726 79.0001C81.4432 80.0045 81.5912 81.0061 81.9093 81.9565C82.1456 82.6454 82.5263 83.2728 83.0247 83.7945C83.4376 84.2178 83.9409 84.5365 84.4949 84.7256C85.4706 85.0707 86.531 85.0707 87.5066 84.7256C88.0582 84.5381 88.5585 84.219 88.9662 83.7945C89.4588 83.2683 89.8385 82.6422 90.0808 81.9565C90.6782 80.0331 90.6782 77.967 90.0808 76.0436C89.8385 75.3578 89.4588 74.7317 88.9662 74.2055C88.5584 73.7813 88.0582 73.4624 87.5066 73.2752C86.5311 72.929 85.4704 72.929 84.4949 73.2752C83.941 73.464 83.4376 73.7825 83.0247 74.2055C82.5263 74.7272 82.1456 75.3547 81.9093 76.0436C81.5912 76.9941 81.4432 77.9957 81.4726 79.0001ZM78.0022 79.0001C77.9801 77.8337 78.1273 76.6705 78.4389 75.5485C78.6874 74.6724 79.0759 73.8446 79.5884 73.0987C80.0212 72.4734 80.5578 71.9309 81.1739 71.4961C81.7256 71.112 82.3196 70.7958 82.9436 70.5542C83.4921 70.3386 84.063 70.1884 84.645 70.1065C85.5437 69.9645 86.4584 69.9645 87.3572 70.1065C87.939 70.1884 88.5096 70.3386 89.058 70.5542C89.6819 70.7958 90.2759 71.112 90.8277 71.4961C91.4438 71.9311 91.9807 72.4735 92.4138 73.0987C92.9258 73.845 93.3141 74.6726 93.5633 75.5485C94.1456 77.8108 94.1456 80.1892 93.5633 82.4515C93.3143 83.3277 92.926 84.1556 92.4138 84.902C91.9809 85.5272 91.444 86.0695 90.8277 86.5039C90.2759 86.8882 89.6819 87.2047 89.058 87.4467C88.5094 87.6614 87.9388 87.8116 87.3572 87.8944C86.4583 88.0352 85.5438 88.0352 84.645 87.8944C84.0632 87.8116 83.4924 87.6615 82.9436 87.4467C82.3196 87.2047 81.7256 86.8883 81.1739 86.5039C80.5576 86.0697 80.0209 85.5274 79.5884 84.902C79.0757 84.156 78.6873 83.3279 78.4389 82.4515C78.1273 81.3296 77.9801 80.1664 78.0022 79.0001Z" fill="#535B7C"/>
<path id="Vector_15" d="M101.614 76.4398H108.387V70H112V87H108.387V79.3663H101.614V87H98V70H101.614V76.4398Z" fill="#535B7C"/>
<path id="Vector_16" d="M120.814 80.5608H125.326L123.023 73.8405H122.977L120.814 80.5608ZM125.07 70L131 87H127.186L126.093 83.4876H119.884L118.698 87H115L121 70H125.07Z" fill="#535B7C"/>
<path id="Vector_17" d="M143.494 76.0569C143.417 75.806 143.316 75.5029 143.193 75.1501C143.052 74.7506 142.832 74.3846 142.546 74.0746C142.261 73.7647 141.916 73.5174 141.532 73.3479C140.971 73.1071 140.365 72.9943 139.756 73.0177C139.288 73.0274 138.824 73.1192 138.387 73.2889C137.858 73.4919 137.385 73.8189 137.005 74.2431C136.531 74.7809 136.168 75.4095 135.937 76.0918C135.623 77.052 135.477 78.0607 135.508 79.072C135.505 79.8172 135.587 80.5603 135.751 81.2867C135.898 81.9548 136.158 82.5922 136.518 83.1711C136.853 83.7083 137.306 84.1596 137.841 84.4899C138.522 84.8687 139.298 85.036 140.072 84.9712C140.845 84.9064 141.583 84.6123 142.194 84.1253C142.883 83.4819 143.34 82.6238 143.494 81.6869H147C146.843 82.5748 146.561 83.4354 146.164 84.2427C145.793 84.9991 145.285 85.6781 144.667 86.2445C144.036 86.8138 143.303 87.254 142.508 87.5407C140.583 88.1913 138.497 88.1496 136.599 87.4226C135.669 87.0486 134.836 86.4648 134.161 85.7154C133.446 84.9025 132.904 83.9481 132.57 82.9124C132.17 81.6573 131.978 80.3436 132.002 79.0247C131.978 77.6888 132.178 76.3586 132.594 75.091C132.94 74.0434 133.497 73.0805 134.231 72.2639C134.915 71.5181 135.756 70.9385 136.692 70.5683C137.661 70.1865 138.693 69.9945 139.733 70.0026C140.837 69.9746 141.935 70.175 142.961 70.5916C143.789 70.9377 144.543 71.446 145.178 72.0875C146.218 73.1583 146.861 74.5604 147 76.0569H143.494Z" fill="#535B7C"/>
<path id="Vector_18" d="M162.494 76.0569C162.417 75.806 162.316 75.5029 162.193 75.1501C162.052 74.7506 161.832 74.3846 161.546 74.0746C161.261 73.7647 160.916 73.5174 160.532 73.3479C159.971 73.1071 159.365 72.9943 158.756 73.0177C158.288 73.0274 157.824 73.1192 157.387 73.2889C156.858 73.4919 156.385 73.8189 156.005 74.2431C155.531 74.7809 155.168 75.4095 154.937 76.0918C154.623 77.052 154.477 78.0607 154.508 79.072C154.505 79.8172 154.587 80.5603 154.751 81.2867C154.898 81.9548 155.158 82.5922 155.518 83.1711C155.853 83.7083 156.306 84.1596 156.841 84.4899C157.522 84.8687 158.298 85.036 159.072 84.9712C159.846 84.9064 160.584 84.6123 161.194 84.1253C161.883 83.4819 162.34 82.6238 162.494 81.6869H166C165.843 82.5748 165.561 83.4354 165.164 84.2427C164.793 84.9991 164.285 85.6781 163.667 86.2445C163.037 86.8138 162.303 87.254 161.508 87.5407C159.583 88.1913 157.497 88.1496 155.599 87.4226C154.669 87.0486 153.836 86.4648 153.161 85.7154C152.446 84.9025 151.904 83.9481 151.57 82.9124C151.17 81.6573 150.978 80.3436 151.002 79.0247C150.978 77.6888 151.178 76.3586 151.594 75.091C151.94 74.0434 152.497 73.0805 153.231 72.2639C153.915 71.5181 154.756 70.9385 155.692 70.5683C156.661 70.1865 157.693 69.9945 158.733 70.0026C159.837 69.9746 160.935 70.175 161.961 70.5916C162.789 70.9377 163.543 71.446 164.178 72.0875C165.218 73.1583 165.861 74.5603 166 76.0569H162.494Z" fill="#535B7C"/>
</g>
</g>
</svg>
