<svg width="113" height="116" viewBox="0 0 113 116" fill="none" xmlns="http://www.w3.org/2000/svg">
<g id="&#208;&#188;&#208;&#190;&#209;&#129;&#208;&#186;&#208;&#178;&#208;&#190;&#209;&#129;&#208;&#186;&#208;&#184;&#208;&#185; &#208;&#188;&#208;&#181;&#209;&#130;&#209;&#128;&#208;&#190;&#208;&#191;&#208;&#190;&#208;&#187;&#208;&#184;&#209;&#130;&#208;&#181;&#208;&#189; 1" clip-path="url(#clip0_4_1754)">
<g id="&#208;&#161;&#208;&#187;&#208;&#190;&#208;&#185; 2">
<g id="&#208;&#161;&#208;&#187;&#208;&#190;&#208;&#185; 1">
<path id="Vector" d="M52.8643 73.3251L56.4939 77L78.7863 54.4302C83.1875 49.9693 86.1838 44.2877 87.3968 38.1033C88.6097 31.9189 87.9848 25.5093 85.6009 19.6843C83.2171 13.8594 79.1814 8.88054 74.0037 5.37694C68.826 1.87335 62.7387 0.00221856 56.5111 1.97166e-06C50.2834 -0.00221462 44.1948 1.86458 39.0147 5.36449C33.8346 8.8644 29.7954 13.8404 27.4075 19.6636C25.0197 25.4868 24.3903 31.896 25.5989 38.0813C26.8076 44.2666 29.8 49.9503 34.198 54.4143C34.5555 54.7807 35.0123 55.0314 35.5106 55.1347C36.0089 55.2379 36.5262 55.1891 36.9971 54.9944C37.468 54.7997 37.8711 54.4679 38.1556 54.041C38.44 53.6141 38.5928 53.1113 38.5948 52.5963C38.5888 51.8913 38.3074 51.2174 37.812 50.7218C34.1311 46.9805 31.6282 42.2184 30.6198 37.0374C29.6113 31.8563 30.1426 26.4888 32.1465 21.6134C34.1503 16.7379 37.5368 12.5733 41.8778 9.64598C46.2188 6.71862 51.3196 5.15989 56.5354 5.16679C61.7513 5.1737 66.848 6.74594 71.1814 9.6848C75.5149 12.6236 78.8906 16.7972 80.8818 21.6779C82.873 26.5587 83.3904 31.9275 82.3686 37.1059C81.3468 42.2843 78.8317 47.0398 75.141 50.7713L52.8643 73.3251Z" fill="#F24944"/>
<path id="Vector_2" d="M71.5968 38.6538L63.4022 18L56.5 30.0626L49.5978 18L41.4037 38.6538H39V41.7667H51.3738V38.6538H49.5214L51.3242 33.5065L56.5 42L61.6758 33.5046L63.4782 38.6538H61.6262V41.7667H74V38.6538H71.5968Z" fill="#F24944"/>
<path id="Vector_3" d="M11.2088 82H12.8116L16.0362 89.6052L19.4025 82H21.0047L23 93.8426H20.6477L19.5805 86.6757L16.3208 94H15.6792L12.5625 86.6757L11.3518 93.8426H9L11.2088 82Z" fill="#F24944"/>
<path id="Vector_4" d="M31.714 90.0077C31.714 89.5894 31.5841 89.1805 31.3408 88.8327C31.0975 88.4849 30.7518 88.2138 30.3472 88.0537C29.9427 87.8936 29.4975 87.8518 29.068 87.9334C28.6386 88.015 28.2441 88.2164 27.9345 88.5122C27.6249 88.808 27.414 89.1849 27.3286 89.5952C27.2432 90.0055 27.287 90.4307 27.4546 90.8172C27.6221 91.2037 27.9059 91.534 28.27 91.7664C28.6341 91.9988 29.0621 92.1228 29.5 92.1228C29.7915 92.1256 30.0807 92.0727 30.3506 91.9674C30.6205 91.862 30.8657 91.7063 31.0718 91.5094C31.278 91.3124 31.441 91.0782 31.5512 90.8204C31.6615 90.5625 31.7168 90.2863 31.714 90.0077ZM32.6753 87.0621C33.0937 87.4399 33.4269 87.8954 33.6547 88.4005C33.8825 88.9057 34 89.45 34 90C34 90.55 33.8825 91.0943 33.6547 91.5995C33.4269 92.1046 33.0937 92.5601 32.6753 92.9379C31.7987 93.6676 30.6614 94.0464 29.5 93.9955C28.3386 94.0461 27.2015 93.6673 26.3247 92.9379C25.9063 92.5601 25.5731 92.1046 25.3453 91.5995C25.1175 91.0943 25 90.55 25 90C25 89.45 25.1175 88.9057 25.3453 88.4005C25.5731 87.8954 25.9063 87.4399 26.3247 87.0621C27.2015 86.3327 28.3386 85.9539 29.5 86.0045C30.6614 85.9536 31.7987 86.3324 32.6753 87.0621Z" fill="#F24944"/>
<path id="Vector_5" d="M41 88.5356C40.5341 88.0961 39.9149 87.8593 39.2767 87.8765C38.9969 87.8624 38.7172 87.9075 38.4558 88.0089C38.1944 88.1103 37.9569 88.2657 37.7588 88.4652C37.5607 88.6646 37.4063 88.9037 37.3056 89.1669C37.2049 89.4301 37.1601 89.7116 37.1741 89.9933C37.1684 90.2794 37.2211 90.5637 37.3288 90.8285C37.4366 91.0934 37.5972 91.3331 37.8007 91.533C38.0042 91.7328 38.2463 91.8885 38.5119 91.9904C38.7776 92.0924 39.0612 92.1383 39.3452 92.1255C39.9594 92.1244 40.5505 91.8895 41 91.4681V93.5315C40.4022 93.8383 39.7409 93.9987 39.0699 93.9996C38.0083 94.0136 36.9807 93.6233 36.1929 92.9068C35.8064 92.5368 35.5009 92.0895 35.296 91.5937C35.0911 91.0979 34.9914 90.5645 35.0031 90.0277C34.9819 89.4949 35.0704 88.9634 35.2627 88.4666C35.4551 87.9697 35.7473 87.5182 36.1211 87.1403C36.4948 86.7625 36.9421 86.4664 37.4348 86.2706C37.9275 86.0748 38.455 85.9835 38.9844 86.0025C39.682 85.992 40.3724 86.1465 41 86.4533L41 88.5356Z" fill="#F24944"/>
<path id="Vector_6" d="M45.1884 86V89.1043L48.094 86H50.8198L47.304 89.5662L51 94H48.2008L45.5103 90.6916L45.1884 91.0251V94H43V86H45.1884Z" fill="#F24944"/>
<path id="Vector_7" d="M57.714 90.0078C57.714 89.589 57.5841 89.1796 57.3408 88.8314C57.0975 88.4832 56.7518 88.2118 56.3472 88.0515C55.9427 87.8913 55.4975 87.8493 55.068 87.931C54.6386 88.0127 54.2441 88.2144 53.9345 88.5106C53.6249 88.8067 53.414 89.184 53.3286 89.5947C53.2432 90.0055 53.287 90.4312 53.4546 90.8181C53.6221 91.205 53.9059 91.5357 54.27 91.7684C54.6341 92.0011 55.0621 92.1253 55.5 92.1253C55.7915 92.128 56.0807 92.0751 56.3506 91.9696C56.6205 91.8641 56.8657 91.7083 57.0718 91.5111C57.278 91.3139 57.441 91.0794 57.5512 90.8213C57.6615 90.5632 57.7168 90.2866 57.714 90.0078ZM58.6753 87.0587C59.0937 87.437 59.4269 87.893 59.6547 88.3987C59.8825 88.9045 60 89.4493 60 90C60 90.5507 59.8825 91.0955 59.6547 91.6013C59.4269 92.107 59.0937 92.563 58.6753 92.9413C57.7721 93.6269 56.653 94 55.5 94C54.347 94 53.2279 93.6269 52.3247 92.9413C51.9063 92.563 51.573 92.107 51.3453 91.6013C51.1175 91.0955 51 90.5507 51 90C51 89.4493 51.1175 88.9045 51.3453 88.3987C51.573 87.893 51.9063 87.437 52.3247 87.0587C53.2279 86.3731 54.347 86 55.5 86C56.653 86 57.7721 86.3731 58.6753 87.0587Z" fill="#F24944"/>
<path id="Vector_8" d="M63.9331 92.2274C64.192 92.2487 64.4503 92.1777 64.6712 92.0244C64.7562 91.9467 64.824 91.848 64.8695 91.736C64.9149 91.6239 64.9366 91.5016 64.933 91.3785C64.9372 91.2659 64.9153 91.1541 64.8694 91.054C64.8235 90.9539 64.7552 90.869 64.6712 90.8076C64.4627 90.6725 64.2238 90.6084 63.9835 90.6228H62.9999V92.2274H63.9331ZM63.9168 89.1847C64.1002 89.1859 64.2808 89.1349 64.442 89.0365C64.5259 88.9795 64.5945 88.8981 64.6406 88.8008C64.6866 88.7036 64.7085 88.5941 64.7038 88.4839C64.7093 88.3748 64.6914 88.2657 64.6515 88.166C64.6116 88.0663 64.5509 87.9789 64.4746 87.9113C64.2933 87.8043 64.0881 87.7598 63.8845 87.7832H62.9999V89.1847H63.9168ZM64.13 86.0121C64.7246 85.9514 65.3198 86.1205 65.8177 86.4915C66.0331 86.6744 66.2077 86.9114 66.3273 87.1836C66.447 87.4559 66.5085 87.7558 66.507 88.0595C66.5063 88.412 66.4124 88.7564 66.2372 89.0487C66.062 89.3409 65.8135 89.5679 65.5233 89.7007C65.8686 89.7813 66.1901 89.9588 66.4581 90.2166C66.6393 90.4067 66.7814 90.6389 66.8747 90.897C66.9679 91.1552 67.01 91.4332 66.998 91.7115C67.0087 92.0529 66.9458 92.3921 66.8147 92.7002C66.6836 93.0083 66.4882 93.2761 66.2452 93.4808C65.7765 93.8368 65.2203 94.0179 64.6552 93.9986H61V86.0121L64.13 86.0121Z" fill="#F24944"/>
<path id="Vector_9" d="M75 88.5356C74.5341 88.0961 73.9149 87.8593 73.2767 87.8765C72.9969 87.8624 72.7173 87.9075 72.4558 88.0089C72.1944 88.1103 71.9569 88.2657 71.7588 88.4652C71.5607 88.6646 71.4063 88.9037 71.3056 89.1669C71.2049 89.4301 71.1601 89.7116 71.1741 89.9933C71.1684 90.2794 71.2211 90.5637 71.3288 90.8285C71.4366 91.0934 71.5972 91.3331 71.8007 91.533C72.0042 91.7328 72.2463 91.8885 72.5119 91.9904C72.7776 92.0924 73.0612 92.1383 73.3452 92.1255C73.9594 92.1244 74.5505 91.8895 75 91.4681V93.5315C74.4022 93.8383 73.7409 93.9987 73.0699 93.9996C72.0083 94.0136 70.9807 93.6233 70.1929 92.9068C69.8064 92.5368 69.5009 92.0895 69.296 91.5937C69.0911 91.0979 68.9914 90.5645 69.0031 90.0277C68.9819 89.4949 69.0703 88.9634 69.2627 88.4666C69.4551 87.9697 69.7473 87.5182 70.1211 87.1403C70.4948 86.7625 70.9421 86.4664 71.4348 86.2706C71.9275 86.0748 72.455 85.9835 72.9844 86.0025C73.682 85.992 74.3724 86.1465 75 86.4533L75 88.5356Z" fill="#F24944"/>
<path id="Vector_10" d="M79.1889 86V89.1043L82.0945 86H84.8203L81.3044 89.5662L85 94H82.2013L79.5108 90.6916L79.1889 91.0251V94H77V86H79.1889Z" fill="#F24944"/>
<path id="Vector_11" d="M88.1987 86V90.9315L91.8017 86H94V94H91.8017V89.066L88.1987 94H86V86H88.1987Z" fill="#F24944"/>
<path id="Vector_12" d="M102.954 83.7014C102.432 85.2344 100.955 85.6025 100 85.6025C99.0457 85.6025 97.5676 85.2344 97.0457 83.7014L98.4861 83C98.5716 83.3414 98.7683 83.6428 99.0435 83.8542C99.3188 84.0657 99.6562 84.1746 100 84.163C100.345 84.1781 100.684 84.0705 100.96 83.8585C101.236 83.6465 101.431 83.3432 101.514 83L102.954 83.7014ZM98.1985 87.0055V91.934L101.802 87.0055H104V95H101.802V90.0696L98.1985 95H96V87.0055L98.1985 87.0055Z" fill="#F24944"/>
<path id="Vector_13" d="M2.20888 100H3.81122L7.03598 107.605L10.4023 100H12.0051L14 111.843H11.6481L10.5808 104.676L7.32056 112H6.67897L3.56215 104.676L2.35187 111.843H0L2.20888 100Z" fill="#F24944"/>
<path id="Vector_14" d="M20.9522 107.005C20.8812 106.584 20.6594 106.201 20.3261 105.925C19.9929 105.649 19.57 105.497 19.1328 105.497C18.6957 105.497 18.2728 105.649 17.9395 105.925C17.6063 106.201 17.3844 106.584 17.3135 107.005H20.9522ZM22.9406 109.656C22.7097 110.211 21.8399 111.995 19.1592 111.995C18.6205 112.021 18.0821 111.941 17.5759 111.759C17.0697 111.577 16.6061 111.298 16.2127 110.938C15.8069 110.564 15.4889 110.108 15.2803 109.602C15.0718 109.097 14.9777 108.553 15.0045 108.009C14.9846 107.466 15.0783 106.925 15.28 106.418C15.4817 105.912 15.7871 105.451 16.1774 105.064C16.5619 104.706 17.0164 104.428 17.5137 104.247C18.011 104.065 18.5408 103.983 19.0712 104.007C19.6345 103.973 20.1981 104.067 20.7182 104.28C21.2384 104.494 21.7012 104.821 22.0706 105.238C22.7249 106.082 23.0518 107.125 22.9933 108.182V108.356H17.2412C17.2317 108.805 17.3619 109.246 17.6147 109.621C17.7937 109.853 18.0278 110.039 18.297 110.163C18.5661 110.286 18.862 110.344 19.1592 110.331C19.522 110.343 19.8812 110.257 20.1975 110.083C20.5137 109.909 20.7748 109.654 20.9522 109.344L22.9406 109.656Z" fill="#F24944"/>
<path id="Vector_15" d="M28.0106 105.923V112H25.9894V105.923H24V104H30V105.923H28.0106Z" fill="#F24944"/>
<path id="Vector_16" d="M33.8491 108.065C33.8558 108.483 33.9797 108.889 34.2053 109.233C34.4309 109.577 34.7482 109.844 35.1172 109.999C35.4863 110.154 35.8907 110.191 36.2797 110.105C36.6687 110.019 37.0249 109.815 37.3036 109.517C37.5823 109.219 37.7711 108.841 37.8463 108.431C37.9215 108.02 37.8797 107.596 37.7262 107.21C37.5727 106.825 37.3143 106.496 36.9835 106.264C36.6527 106.032 36.2641 105.909 35.8667 105.909C35.598 105.905 35.3313 105.958 35.0828 106.066C34.8342 106.174 34.6089 106.333 34.4204 106.534C34.232 106.736 34.0842 106.975 33.986 107.238C33.8878 107.501 33.8412 107.783 33.8491 108.065ZM34.051 116H32V104.248H34.051V105.239C34.3196 104.845 34.676 104.526 35.089 104.31C35.502 104.094 35.9591 103.988 36.4201 104.001C38.571 104.001 40 105.751 40 108.065C40 110.399 38.5209 112.148 36.3702 112.148C35.9166 112.159 35.4675 112.051 35.0628 111.835C34.6582 111.619 34.3106 111.302 34.051 110.91L34.051 116Z" fill="#F24944"/>
<path id="Vector_17" d="M47.714 108.008C47.714 107.589 47.5841 107.18 47.3408 106.831C47.0975 106.483 46.7518 106.212 46.3472 106.052C45.9427 105.891 45.4975 105.849 45.068 105.931C44.6386 106.013 44.2441 106.214 43.9345 106.511C43.6249 106.807 43.414 107.184 43.3286 107.595C43.2432 108.005 43.287 108.431 43.4546 108.818C43.6221 109.205 43.9059 109.536 44.27 109.768C44.6341 110.001 45.0621 110.125 45.5 110.125C45.7915 110.128 46.0807 110.075 46.3506 109.97C46.6205 109.864 46.8657 109.708 47.0719 109.511C47.278 109.314 47.441 109.079 47.5512 108.821C47.6615 108.563 47.7168 108.287 47.714 108.008ZM48.6753 105.059C49.0937 105.437 49.4269 105.893 49.6547 106.399C49.8825 106.904 50 107.449 50 108C50 108.551 49.8825 109.096 49.6547 109.601C49.4269 110.107 49.0937 110.563 48.6753 110.941C47.7721 111.627 46.653 112 45.5 112C44.347 112 43.2279 111.627 42.3247 110.941C41.9063 110.563 41.5731 110.107 41.3453 109.601C41.1175 109.096 41 108.551 41 108C41 107.449 41.1175 106.904 41.3453 106.399C41.5731 105.893 41.9063 105.437 42.3247 105.059C43.2279 104.373 44.347 104 45.5 104C46.653 104 47.7721 104.373 48.6753 105.059Z" fill="#F24944"/>
<path id="Vector_18" d="M59 104V112H56.9181V105.923H54.0823V112H52V104H59Z" fill="#F24944"/>
<path id="Vector_19" d="M67.714 108.008C67.714 107.589 67.5841 107.18 67.3408 106.831C67.0975 106.483 66.7518 106.212 66.3472 106.052C65.9427 105.891 65.4975 105.849 65.068 105.931C64.6386 106.013 64.2441 106.214 63.9345 106.511C63.6249 106.807 63.414 107.184 63.3286 107.595C63.2432 108.005 63.287 108.431 63.4546 108.818C63.6221 109.205 63.9059 109.536 64.27 109.768C64.6341 110.001 65.0621 110.125 65.5 110.125C65.7915 110.128 66.0807 110.075 66.3506 109.97C66.6205 109.864 66.8657 109.708 67.0719 109.511C67.278 109.314 67.441 109.079 67.5512 108.821C67.6615 108.563 67.7168 108.287 67.714 108.008ZM68.6753 105.059C69.0937 105.437 69.4269 105.893 69.6547 106.399C69.8825 106.904 70 107.449 70 108C70 108.551 69.8825 109.096 69.6547 109.601C69.4269 110.107 69.0937 110.563 68.6753 110.941C67.7721 111.627 66.653 112 65.5 112C64.347 112 63.2279 111.627 62.3247 110.941C61.9063 110.563 61.5731 110.107 61.3453 109.601C61.1175 109.096 61 108.551 61 108C61 107.449 61.1175 106.904 61.3453 106.399C61.5731 105.893 61.9063 105.437 62.3247 105.059C63.2279 104.373 64.347 104 65.5 104C66.653 104 67.7721 104.373 68.6753 105.059Z" fill="#F24944"/>
<path id="Vector_20" d="M78 111.924H75.7507V105.904H73.5766V108.813C73.6253 109.66 73.3556 110.494 72.8196 111.155C72.5401 111.438 72.2036 111.659 71.8321 111.804C71.4606 111.949 71.0624 112.015 70.6636 111.997C70.4403 112 70.2174 111.976 70 111.924V110.022C70.1158 110.043 70.2332 110.055 70.3509 110.058C70.5241 110.07 70.6977 110.041 70.8577 109.974C71.0178 109.908 71.1598 109.804 71.2725 109.673C71.4759 109.378 71.5731 109.024 71.5487 108.668V104H78L78 111.924Z" fill="#F24944"/>
<path id="Vector_21" d="M82.1988 104V108.932L85.8017 104H88V112H85.8017V107.066L82.1988 112H80V104H82.1988Z" fill="#F24944"/>
<path id="Vector_22" d="M93.0107 105.923V112H90.988V105.923H89V104H95V105.923H93.0107Z" fill="#F24944"/>
<path id="Vector_23" d="M101.952 107.005C101.881 106.584 101.659 106.201 101.326 105.925C100.993 105.649 100.57 105.497 100.133 105.497C99.6957 105.497 99.2728 105.649 98.9395 105.925C98.6063 106.201 98.3844 106.584 98.3135 107.005H101.952ZM103.941 109.656C103.71 110.211 102.84 111.995 100.159 111.995C99.6205 112.021 99.0821 111.941 98.5759 111.759C98.0697 111.577 97.6061 111.298 97.2127 110.938C96.8069 110.564 96.4889 110.108 96.2804 109.602C96.0718 109.097 95.9777 108.553 96.0045 108.009C95.9846 107.466 96.0783 106.925 96.28 106.418C96.4817 105.912 96.7871 105.451 97.1774 105.064C97.5619 104.706 98.0164 104.428 98.5137 104.247C99.011 104.065 99.5408 103.983 100.071 104.007C100.634 103.973 101.198 104.067 101.718 104.28C102.238 104.494 102.701 104.821 103.071 105.238C103.725 106.082 104.052 107.125 103.993 108.182V108.356H98.2412C98.2317 108.805 98.3619 109.246 98.6147 109.621C98.7937 109.853 99.0278 110.039 99.2969 110.163C99.5661 110.286 99.862 110.344 100.159 110.331C100.522 110.343 100.881 110.257 101.197 110.083C101.514 109.909 101.775 109.654 101.952 109.344L103.941 109.656Z" fill="#F24944"/>
<path id="Vector_24" d="M106 104H108.063V106.826H110.937V104H113V112H110.937V108.749H108.063V112H106V104Z" fill="#F24944"/>
</g>
</g>
</g>
<defs>
<clipPath id="clip0_4_1754">
<rect width="113" height="116" fill="white"/>
</clipPath>
</defs>
</svg>
