<svg width="81" height="134" viewBox="0 0 81 134" fill="none" xmlns="http://www.w3.org/2000/svg">
<g id="novosib 1">
<g id="Layer 1">
<path id="Vector" fill-rule="evenodd" clip-rule="evenodd" d="M33 1L1.0008 1.00014V76.7377C0.961897 80.5835 2.31082 88.0953 10.2815 87.8185L33 88V1Z" fill="white"/>
<path id="Vector_2" fill-rule="evenodd" clip-rule="evenodd" d="M48 1H79.9992V76.7377C80.0377 80.5835 78.7626 87.9697 70.8512 87.6927L48 88V1Z" fill="white"/>
<path id="Vector_3" fill-rule="evenodd" clip-rule="evenodd" d="M31 1L50.8694 1.00249L51 88.6984C45.6239 88.6986 40.9529 93.5101 40.9529 98C40.9528 93.8862 36.6533 88.6499 31 88.7082V1Z" fill="#0075BF"/>
<path id="Vector_4" d="M31 73H1V74H31V73Z" fill="#333333"/>
<path id="Vector_5" d="M80 73H50V74H80V73Z" fill="#333333"/>
<path id="Vector_6" d="M51 72H31V74H51V72Z" fill="#F8F9FA"/>
<path id="Vector_7" fill-rule="evenodd" clip-rule="evenodd" d="M12.843 70L12 69.7926L13.0923 69L14 69.1936L12.843 70Z" fill="#E30613"/>
<path id="Vector_8" fill-rule="evenodd" clip-rule="evenodd" d="M10.843 70L10 69.7926L11.0923 69L12 69.1936L10.843 70Z" fill="#E30613"/>
<path id="Vector_9" fill-rule="evenodd" clip-rule="evenodd" d="M6.07669 26.756C6.14617 26.5936 6.24793 26.4481 6.37536 26.3289C6.5028 26.2096 6.65308 26.1193 6.81648 26.0638C6.97989 26.0082 7.15278 25.9886 7.32398 26.0063C7.49518 26.024 7.66087 26.0786 7.81034 26.1665C8.53847 26.8388 8.45328 27.0188 9.00974 27.9487C9.2248 28.3081 9.715 28.7463 10.2088 29.346C11.4616 30.9988 12.343 32.9178 12.7896 34.9645C13.4554 37.9964 12.4245 40.7336 11.3249 42.95C10.5656 44.2682 9.72823 45.5211 9.04702 46.9047C8.5601 48.001 8.05828 48.892 8.09619 50.3348C8.13612 51.2019 8.37801 52.0171 9.47046 51.7899C9.92086 51.7144 10.2932 51.3044 10.6953 50.7641C10.7882 50.6395 10.9734 50.5061 11.0581 50.3702C10.9341 51.6572 11.1521 52.9747 10.6802 53.9742C10.4177 54.299 10.0873 54.5584 9.71381 54.7327C9.34031 54.907 8.9334 54.9919 8.52358 54.9808C7.89364 55.0576 7.25768 54.9021 6.72822 54.5417C6.19877 54.1813 5.80996 53.6394 5.63059 53.0118C3.85145 48.0222 6.40184 39.2135 6.40453 35.6229C6.40772 31.1812 4.79003 28.5956 6.07669 26.756Z" fill="#333333"/>
<path id="Vector_10" fill-rule="evenodd" clip-rule="evenodd" d="M10.808 16.6342C10.7137 17.0769 10.7581 17.5393 10.9347 17.9538C10.851 16.771 10.8268 15.7725 11.6105 15.1409C12.3327 14.7065 13.2409 15.3286 13.4999 16.2971C13.5155 15.8933 13.7957 15.0653 14.1022 15.1741C14.5013 15.1624 14.3616 16.0613 14.6658 16.4707C15.925 16.9163 17.1036 17.5774 18.1531 18.4267C18.6089 18.7901 18.9743 18.8693 19.0369 19.3679C19.1542 20.6487 18.0515 20.7153 16.6138 20.457C16.308 20.7413 17.078 20.9925 17.4008 21.0355C17.4293 21.1434 17.4179 21.2584 17.369 21.3581C17.32 21.4577 17.2371 21.5348 17.1363 21.5742C16.4109 21.6917 15.6743 21.7172 14.9429 21.6501C14.3619 21.6982 14.2136 22.7447 15.2622 23.2475C18.9229 24.7722 20.9794 26.6918 23 28.8899L16.4886 33C15.5 29.9174 13.6759 27.1266 10.8549 24.3648C9.77282 23.0542 9.06468 21.7341 9.00032 20.0034C8.99174 19.3265 9.15416 18.6591 9.47136 18.0679C9.78856 17.4767 10.2494 16.9823 10.808 16.6342Z" fill="#333333"/>
<path id="Vector_11" fill-rule="evenodd" clip-rule="evenodd" d="M16.2439 18.1084C16.7837 18.2645 17.0346 18.4731 16.9962 18.7784C16.9577 19.0837 16.1928 19.0308 15.653 18.8749C15.113 18.7188 14.9069 18.4317 15.0385 18.1917C15.1702 17.9518 15.7038 17.9525 16.2439 18.1084Z" fill="white"/>
<path id="Vector_12" fill-rule="evenodd" clip-rule="evenodd" d="M16.5116 18C16.6096 18.0023 16.7047 18.0333 16.7852 18.0892C16.8657 18.1452 16.928 18.2235 16.9644 18.3145C17.0007 18.4056 17.0095 18.5053 16.9896 18.6013C16.9698 18.6973 16.9221 18.7853 16.8526 18.8544C16.7831 18.9236 16.6949 18.9708 16.5988 18.9901C16.5027 19.0095 16.403 19.0002 16.3122 18.9634C16.2213 18.9266 16.1433 18.8639 16.0878 18.7831C16.0323 18.7023 16.0018 18.607 16 18.509C16 18.4419 16.0132 18.3755 16.039 18.3136C16.0647 18.2516 16.1024 18.1954 16.15 18.1481C16.1975 18.1008 16.2539 18.0634 16.316 18.038C16.378 18.0125 16.4445 17.9996 16.5116 18Z" fill="#333333"/>
<path id="Vector_13" fill-rule="evenodd" clip-rule="evenodd" d="M19.0272 19C19.3398 19.0708 19.6801 19.0535 19.9303 19.2847C20.2027 19.7433 19.5929 20.0853 19.534 19.9812C19.5221 19.8207 19.5406 19.5882 19.4134 19.5445C19.2796 19.5077 19.2093 19.657 19.1697 19.7424C19.013 19.5116 18.9631 19.2519 19.0272 19Z" fill="white"/>
<path id="Vector_14" fill-rule="evenodd" clip-rule="evenodd" d="M18 21.3828C18.5461 21.3522 19.0611 21.508 19.6849 21.2637C19.9437 21.0892 20.2883 20.9945 20.644 21.0002C20.9998 21.006 21.3381 21.1116 21.5857 21.2942C21.9668 21.4481 22.5757 21.2445 22.9999 21.2117C23.0018 21.3235 22.9686 21.4342 22.9028 21.5356C22.837 21.637 22.7403 21.7267 22.6198 21.7979C22.4992 21.8691 22.3578 21.9202 22.2061 21.9473C22.0543 21.9744 21.896 21.9769 21.7427 21.9545C21.1795 21.9204 21.106 21.6497 20.5076 21.625C19.991 21.649 19.9417 21.9771 19.5078 22C18.6822 21.9491 18.652 21.5866 18 21.3828Z" fill="#E30613"/>
<path id="Vector_15" fill-rule="evenodd" clip-rule="evenodd" d="M15.0133 22.4416C15.1121 22.0102 15.3923 21.9587 16.025 22.0226C15.6544 22.0577 15.6203 22.5204 15.8465 22.7977C16.5273 23.6312 18.4963 24.7506 20 26C18.62 24.9908 17.1314 24.1527 15.5646 23.5027C15.3721 23.4152 15.2132 23.2633 15.1132 23.071C15.0133 22.8787 14.9781 22.6571 15.0133 22.4416Z" fill="white"/>
<path id="Vector_16" fill-rule="evenodd" clip-rule="evenodd" d="M12.3094 16.0697C12.5854 15.8279 12.9989 16.2442 13 16.8679C12.4984 16.758 12.3539 17.0724 12.2783 18C11.9123 17.5538 11.8918 16.4001 12.3094 16.0697Z" fill="white"/>
<path id="Vector_17" fill-rule="evenodd" clip-rule="evenodd" d="M30.3249 23.1975C29.8296 22.4972 27.5159 23.7102 28.6078 26.0292C28.6455 30.6848 25.2197 30.4718 23 29.3044C24.1115 31.0434 25.348 31.8891 25.9973 34C27.6205 33.2386 28.9221 31.9486 29.6788 30.3513C30.2287 28.3126 31.9361 23.3369 30.3249 23.1975Z" fill="#333333"/>
<path id="Vector_18" fill-rule="evenodd" clip-rule="evenodd" d="M31 22.7399C30.5604 22.2357 30.4939 22.5566 30.2335 23C29.9814 22.9242 29.9101 22.2443 30.1361 22.0635C30.2947 21.9673 30.4632 21.9807 30.6181 22.1019C30.7729 22.2232 30.9065 22.4462 31 22.7399Z" fill="white"/>
<path id="Vector_19" fill-rule="evenodd" clip-rule="evenodd" d="M31 23.74C30.5604 23.2359 30.494 23.5567 30.2334 24C29.9815 23.9242 29.91 23.2441 30.1361 23.0634C30.2947 22.9672 30.4632 22.9808 30.618 23.1021C30.7729 23.2234 30.9064 23.4464 31 23.74Z" fill="white"/>
<path id="Vector_20" fill-rule="evenodd" clip-rule="evenodd" d="M31 24.3302C30.5604 24.1052 30.494 24.2484 30.2334 24.4464C29.9815 24.4125 29.9101 24.109 30.136 24.0283C30.2946 23.9854 30.4631 23.9914 30.618 24.0455C30.7729 24.0996 30.9064 24.1992 31 24.3302Z" fill="white"/>
<path id="Vector_21" fill-rule="evenodd" clip-rule="evenodd" d="M18.1442 55.6933C17.6132 51.1232 18.6126 49.3084 20.0998 47C19.7419 48.8233 19.6487 49.9758 21.3071 50.429C25.5934 52.7238 26.079 54.9698 24.6531 61.7316C24.1986 62.7788 25.2537 64.5604 26.4613 65.576C27.85 65.7339 29.52 65.1836 29.9994 66.7645C30.0302 68.1128 28.9418 69.161 27.0484 68.9795C24.0814 68.1322 24.0214 65.101 22.0217 63.0304C22.1099 61.656 22.7743 60.9132 21.8426 59.7391C20.9754 58.4037 18.7383 58.4042 18.1442 55.6933Z" fill="#333333"/>
<path id="Vector_22" fill-rule="evenodd" clip-rule="evenodd" d="M16.5367 33.1085L23.216 29C24.8803 31.1151 25.4841 32.9604 26.3026 35.1345C26.8836 36.3594 27.3414 36.1918 28.1119 34.7154C28.9285 33.2662 29.1507 33.1072 29.9932 32.6494L32.9665 32.6492C33.0199 32.6492 32.9942 33.116 32.9909 33.177C32.9904 34.0671 33.0175 35.4872 30.7996 36.1477C29.9637 36.216 29.5968 35.9788 29.1552 36.4382C28.3662 37.3581 28.6183 39.7735 27.0632 39.7892C25.6526 39.6665 24.7375 38.3722 23.2678 36.4761C23.6128 37.2671 23.764 37.9238 24.5627 38.5384C23.4838 43.1001 22.2373 43.7502 20.6725 46.1411C19.4783 48.1301 18.0315 49.6984 17.9848 53.044C17.8589 54.7317 18.479 56.0059 18.2558 57.9693C18.1548 58.9523 17.9464 61.0017 16.2385 62.144C14.7598 63.4405 12.3904 62.7116 10.739 63.6637C10.167 64.1352 9.75929 65.6895 10.0613 67.1662C10.0595 67.3599 10.1341 67.5468 10.2693 67.687C10.4045 67.8273 10.5896 67.91 10.7854 67.9175C12.4126 67.694 13.6729 68.0203 13.9423 69.1024C14.0311 70.1052 11.2158 71.2036 10.1551 70.9676C9.01518 70.7512 8.24669 68.9866 8.03035 67.7549C8.02025 66.3913 8.01013 65.0277 8 63.6641C8.14438 61.1116 11.5368 62.461 10.8927 58.1697C10.3917 56.3084 10.5836 55.4077 11.2134 53.7209C11.2202 51.3314 11.0054 49.1794 12.4818 46.9973C14.669 42.5426 17.7511 38.4225 16.5367 33.1085Z" fill="#333333"/>
<path id="Vector_23" fill-rule="evenodd" clip-rule="evenodd" d="M28.0171 68.1074C28.2387 67.9684 28.5136 67.9711 28.8853 68.0765C28.9976 68.2306 29.0279 68.393 28.9742 68.5524C28.9204 68.7119 28.7838 68.8646 28.5739 69C28.4573 68.6301 27.8956 68.3196 28.0171 68.1074Z" fill="white"/>
<path id="Vector_24" fill-rule="evenodd" clip-rule="evenodd" d="M29 68.1902C29.0521 67.9755 29.7794 67.9317 29.9231 68.1147C30.1928 68.5058 29.6878 68.7204 29.4128 69C29.5003 68.5056 29.1276 68.5706 29 68.1902Z" fill="white"/>
<path id="Vector_25" fill-rule="evenodd" clip-rule="evenodd" d="M30 67.17C30.0357 67.0246 30.7746 66.9081 30.9267 67.1021C31.212 67.5167 30.5927 67.7038 30.3033 68C30.6045 67.4924 30.0464 67.5329 30 67.17Z" fill="white"/>
<path id="Vector_26" fill-rule="evenodd" clip-rule="evenodd" d="M30.0288 67.2015C30.0671 67.063 30.5358 66.8577 30.8832 67.1447C31.2905 67.5285 30.526 67.7178 30.2166 68C30.6866 67.4185 29.8367 67.4432 30.0288 67.2015Z" fill="white"/>
<path id="Vector_27" fill-rule="evenodd" clip-rule="evenodd" d="M12.0173 70.1082C12.2356 69.9687 12.5048 69.971 12.8682 70.0757C13.1939 70.4475 12.8492 70.7189 12.5557 71C12.4446 70.6302 11.8965 70.3206 12.0173 70.1082Z" fill="white"/>
<path id="Vector_28" fill-rule="evenodd" clip-rule="evenodd" d="M12 70.1912C12.0537 69.9765 12.7822 69.9312 12.9247 70.1139C13.1916 70.5042 12.6843 70.7199 12.4072 71C12.4983 70.5055 12.1247 70.5713 12 70.1912Z" fill="white"/>
<path id="Vector_29" fill-rule="evenodd" clip-rule="evenodd" d="M13 70.1711C13.037 70.0257 13.7775 69.9078 13.9282 70.1013C14.2105 70.5151 13.5889 70.7034 13.2969 71C13.6024 70.492 13.0436 70.5337 13 70.1711Z" fill="white"/>
<path id="Vector_30" fill-rule="evenodd" clip-rule="evenodd" d="M14.0294 69.1984C14.0367 69.1497 14.0782 69.1036 14.1472 69.0679C14.2161 69.0322 14.3083 69.009 14.4083 69.0021C14.5084 68.9953 14.6103 69.0052 14.697 69.0303C14.7837 69.0553 14.8501 69.094 14.885 69.1398C15.2891 69.5245 14.5224 69.716 14.2105 70C14.6856 69.4152 13.8351 69.4414 14.0294 69.1984Z" fill="white"/>
<path id="Vector_31" fill-rule="evenodd" clip-rule="evenodd" d="M32.7312 32C32.8544 32.9649 32.548 33.0156 32.0137 33.4097C31.9099 33.9118 32.4192 34.2118 32.7159 33.821C32.9001 33.5389 32.9973 33.2278 32.9999 32.9119C33.0026 32.596 32.9106 32.2839 32.7312 32Z" fill="white"/>
<path id="Vector_32" fill-rule="evenodd" clip-rule="evenodd" d="M32.6658 32C32.8504 32.4844 32.5365 32.5078 32.0075 32.7017C31.93 32.9526 32.4745 33.1063 32.758 32.9124C32.9312 32.7717 33.0143 32.6115 32.998 32.4502C32.9817 32.2888 32.8666 32.1329 32.6658 32Z" fill="white"/>
<path id="Vector_33" fill-rule="evenodd" clip-rule="evenodd" d="M68.157 70L69 69.7926L67.9077 69L67 69.1936L68.157 70Z" fill="#E30613"/>
<path id="Vector_34" fill-rule="evenodd" clip-rule="evenodd" d="M70.1568 70L71 69.7929L69.9075 69L69 69.1936L70.1568 70Z" fill="#E30613"/>
<path id="Vector_35" fill-rule="evenodd" clip-rule="evenodd" d="M74.9232 26.7559C74.8538 26.5936 74.752 26.4481 74.6246 26.3288C74.4972 26.2096 74.3469 26.1193 74.1835 26.0637C74.0201 26.0082 73.8472 25.9886 73.676 26.0063C73.5048 26.0241 73.3391 26.0786 73.1897 26.1666C72.4616 26.8389 72.5467 27.0188 71.9904 27.9487C71.7752 28.308 71.2851 28.7464 70.7913 29.3461C69.5385 30.9988 68.657 32.9177 68.2104 34.9644C67.5446 37.9963 68.5755 40.7336 69.6752 42.9501C70.4345 44.2681 71.2717 45.5211 71.953 46.9046C72.44 48.0011 72.9418 48.892 72.9038 50.3347C72.8638 51.2019 72.622 52.0171 71.5296 51.7898C71.0791 51.7143 70.7069 51.3044 70.3047 50.764C70.212 50.6394 70.0267 50.506 69.9419 50.3702C70.066 51.6573 69.8479 52.9745 70.3198 53.9742C70.5823 54.299 70.9127 54.5583 71.2862 54.7327C71.6598 54.907 72.0667 54.9919 72.4765 54.9809C73.1064 55.0576 73.7424 54.902 74.2718 54.5416C74.8012 54.1812 75.19 53.6393 75.3693 53.0117C77.1486 48.0222 74.5981 39.2135 74.5955 35.6228C74.5923 31.1813 76.21 28.5955 74.9232 26.7559Z" fill="#333333"/>
<path id="Vector_36" fill-rule="evenodd" clip-rule="evenodd" d="M70.192 16.6342C70.2863 17.0769 70.2418 17.5392 70.0652 17.9537C70.1489 16.7709 70.1731 15.7725 69.3894 15.1409C68.6673 14.7065 67.759 15.3286 67.5002 16.2969C67.4845 15.8931 67.2042 15.0652 66.8979 15.1741C66.4986 15.1622 66.6384 16.0612 66.3341 16.4706C65.075 16.9162 63.8964 17.5773 62.847 18.4267C62.391 18.7901 62.0257 18.8694 61.9631 19.3679C61.8459 20.6488 62.9484 20.7152 64.3863 20.4571C64.692 20.7413 63.9221 20.9925 63.5991 21.0354C63.5707 21.1433 63.582 21.2584 63.631 21.358C63.6799 21.4577 63.7629 21.5347 63.8636 21.5741C64.5891 21.6917 65.3257 21.7172 66.0571 21.6501C66.6382 21.6982 66.7865 22.7448 65.7379 23.2474C62.077 24.7721 60.0207 26.6919 58 28.89L64.5114 33C65.5 29.9174 67.324 27.1267 70.1451 24.3649C71.2271 23.0541 71.9352 21.7342 71.9997 20.0034C72.0082 19.3265 71.8458 18.6592 71.5286 18.068C71.2114 17.4768 70.7505 16.9824 70.192 16.6342Z" fill="#333333"/>
<path id="Vector_37" fill-rule="evenodd" clip-rule="evenodd" d="M64.7562 18.1085C64.2161 18.2645 63.9654 18.4732 64.0038 18.7784C64.0423 19.0837 64.8071 19.0309 65.3471 18.8748C65.887 18.7189 66.0932 18.4317 65.9614 18.1918C65.8297 17.9518 65.296 17.9525 64.7562 18.1085Z" fill="white"/>
<path id="Vector_38" fill-rule="evenodd" clip-rule="evenodd" d="M65.4887 18C65.3907 18.0022 65.2955 18.0332 65.215 18.0891C65.1344 18.145 65.0721 18.2233 65.0357 18.3144C64.9993 18.4054 64.9905 18.5051 65.0103 18.6011C65.0302 18.6971 65.0778 18.7852 65.1473 18.8543C65.2167 18.9235 65.305 18.9707 65.4011 18.9901C65.4972 19.0095 65.5969 19.0002 65.6877 18.9634C65.7786 18.9266 65.8566 18.8639 65.9122 18.7831C65.9677 18.7023 65.9982 18.607 66 18.509C66 18.4419 65.9868 18.3756 65.9611 18.3137C65.9353 18.2517 65.8976 18.1955 65.8501 18.1482C65.8026 18.1009 65.7462 18.0635 65.6842 18.0381C65.6222 18.0126 65.5557 17.9997 65.4887 18Z" fill="#333333"/>
<path id="Vector_39" fill-rule="evenodd" clip-rule="evenodd" d="M61.9728 19C61.6603 19.0708 61.3198 19.0536 61.0696 19.2848C60.7974 19.7433 61.407 20.0852 61.466 19.9813C61.4779 19.8206 61.4595 19.5883 61.5867 19.5444C61.7203 19.5077 61.7906 19.657 61.8302 19.7423C61.987 19.5116 62.0369 19.2519 61.9728 19Z" fill="white"/>
<path id="Vector_40" fill-rule="evenodd" clip-rule="evenodd" d="M63 21.3829C62.4538 21.3522 61.939 21.508 61.3151 21.2637C61.0563 21.0892 60.7117 20.9946 60.3559 21.0002C60.0002 21.0059 59.6619 21.1115 59.4143 21.2941C59.0331 21.4481 58.4242 21.2445 58.0001 21.2117C57.9982 21.3235 58.0314 21.4342 58.0972 21.5356C58.1629 21.6371 58.2597 21.7267 58.3802 21.7979C58.5008 21.8692 58.6422 21.9202 58.7939 21.9473C58.9457 21.9744 59.104 21.9769 59.2573 21.9545C59.8206 21.9204 59.894 21.6497 60.4925 21.625C61.0089 21.649 61.0582 21.9771 61.4922 22C62.3177 21.949 62.348 21.5866 63 21.3829Z" fill="#E30613"/>
<path id="Vector_41" fill-rule="evenodd" clip-rule="evenodd" d="M65.9862 22.4509C65.8834 22.0105 65.5923 21.9579 64.9346 22.023C65.3199 22.059 65.3551 22.5315 65.12 22.8145C64.4125 23.6658 62.5629 24.724 61 26C62.3676 24.998 63.8496 24.17 65.4131 23.5345C65.6133 23.4452 65.7785 23.29 65.8823 23.0937C65.9862 22.8973 66.0228 22.671 65.9862 22.4509Z" fill="white"/>
<path id="Vector_42" fill-rule="evenodd" clip-rule="evenodd" d="M68.6906 16.0698C68.4146 15.8278 68.001 16.2442 68 16.8677C68.5015 16.758 68.6461 17.0724 68.7216 18C69.0877 17.5538 69.1082 16.4002 68.6906 16.0698Z" fill="white"/>
<path id="Vector_43" fill-rule="evenodd" clip-rule="evenodd" d="M50.6243 22.1972C51.0874 21.5262 53.3725 22.6088 52.3728 24.8174C52.4632 29.1971 55.8712 29.0462 58 27.8921C56.769 29.3701 55.6592 30.0713 55.0967 32C53.4991 31.4611 52.1891 30.3514 51.4483 28.9095C50.8575 27.0058 49.0598 22.369 50.6243 22.1972Z" fill="#333333"/>
<path id="Vector_44" fill-rule="evenodd" clip-rule="evenodd" d="M50 22.7841C50.4348 22.2506 50.5055 22.5693 50.7725 23C51.0243 22.9088 51.0874 22.22 50.8582 22.0517C50.6979 21.9644 50.529 21.9881 50.3752 22.1194C50.2213 22.2507 50.0902 22.4831 50 22.7841Z" fill="white"/>
<path id="Vector_45" fill-rule="evenodd" clip-rule="evenodd" d="M50 23.7842C50.4348 23.2506 50.5055 23.5693 50.7725 24C51.0243 23.9088 51.0874 23.2201 50.8582 23.0517C50.6979 22.9644 50.529 22.9881 50.3752 23.1194C50.2213 23.2507 50.0902 23.4831 50 23.7842Z" fill="white"/>
<path id="Vector_46" fill-rule="evenodd" clip-rule="evenodd" d="M50 23.3477C50.4347 23.1112 50.5054 23.2526 50.7724 23.4434C51.0243 23.4029 51.0874 23.0976 50.8583 23.023C50.6979 22.9842 50.529 22.9947 50.3752 23.0529C50.2213 23.1111 50.0901 23.2142 50 23.3477Z" fill="white"/>
<path id="Vector_47" fill-rule="evenodd" clip-rule="evenodd" d="M61.8558 55.6934C62.3868 51.1232 61.3874 49.3084 59.9002 47C60.258 48.8234 60.3511 49.9759 58.6929 50.4291C54.4067 52.7237 53.921 54.9698 55.3468 61.7316C55.8014 62.7787 54.7463 64.5604 53.5387 65.5759C52.15 65.7339 50.4801 65.1835 50.0006 66.7645C49.9698 68.1128 51.0583 69.161 52.9515 68.9795C55.9185 68.1322 55.9785 65.101 57.9782 63.0304C57.8902 61.656 57.2256 60.9133 58.1573 59.7392C59.0246 58.4036 61.2616 58.4042 61.8558 55.6934Z" fill="#333333"/>
<path id="Vector_48" fill-rule="evenodd" clip-rule="evenodd" d="M64.4632 33.1085L57.7841 29C56.1198 31.1151 55.5159 32.9604 54.6974 35.1345C54.1164 36.3594 53.6586 36.1918 52.8882 34.7154C52.0714 33.266 51.8492 33.1072 51.0069 32.6492H48.0335C47.9801 32.6491 48.0057 33.1159 48.009 33.1768C48.0095 34.0671 47.9826 35.4872 50.2004 36.1477C51.0364 36.216 51.4031 35.9787 51.8448 36.4382C52.6339 37.3581 52.3818 39.7734 53.9368 39.7892C55.3475 39.6664 56.2625 38.3722 57.7324 36.4761C57.3873 37.267 57.236 37.9236 56.4374 38.5382C57.5162 43.1 58.7628 43.7501 60.3275 46.1411C61.5217 48.13 62.9686 49.6983 63.0151 53.044C63.1411 54.7317 62.5211 56.0057 62.7442 57.9692C62.8452 58.9523 63.0537 61.0016 64.7616 62.1439C66.2402 63.4403 68.6096 62.7116 70.2612 63.6636C70.8332 64.1352 71.2408 65.6895 70.9388 67.1661C70.9406 67.3598 70.8659 67.5466 70.7308 67.6869C70.5956 67.8272 70.4104 67.9098 70.2146 67.9174C68.5874 67.694 67.3272 68.0202 67.0579 69.1023C66.9691 70.1052 69.7842 71.2036 70.8448 70.9676C71.985 70.7512 72.7534 68.9864 72.9696 67.7548C72.9797 66.3912 72.9899 65.0276 73 63.664C72.8558 61.1116 69.4632 62.461 70.1073 58.1696C70.6083 56.3084 70.4164 55.4077 69.7866 53.7208C69.7799 51.3314 69.9948 49.1794 68.5183 46.9972C66.331 42.5426 63.2489 38.4225 64.4632 33.1085Z" fill="#333333"/>
<path id="Vector_49" fill-rule="evenodd" clip-rule="evenodd" d="M52.9829 68.1074C52.7611 67.9684 52.4863 67.9711 52.1148 68.0765C52.0024 68.2306 51.9721 68.393 52.0258 68.5524C52.0795 68.7118 52.216 68.8645 52.4259 69C52.5425 68.6302 53.1044 68.3196 52.9829 68.1074Z" fill="white"/>
<path id="Vector_50" fill-rule="evenodd" clip-rule="evenodd" d="M52 68.1903C51.948 67.9754 51.2207 67.9318 51.0769 68.1148C50.8072 68.5057 51.3122 68.7204 51.5872 69C51.4999 68.5057 51.8726 68.5706 52 68.1903Z" fill="white"/>
<path id="Vector_51" fill-rule="evenodd" clip-rule="evenodd" d="M52 67.17C51.9643 67.0246 51.2255 66.9081 51.0733 67.1021C50.7881 67.5166 51.4073 67.7038 51.6966 68C51.3957 67.4924 51.9536 67.5329 52 67.17Z" fill="white"/>
<path id="Vector_52" fill-rule="evenodd" clip-rule="evenodd" d="M50.9712 66.2015C50.9332 66.063 50.4642 65.8577 50.1168 66.1447C49.7095 66.5284 50.4741 66.7177 50.7835 67C50.3134 66.4185 51.1633 66.4431 50.9712 66.2015Z" fill="white"/>
<path id="Vector_53" fill-rule="evenodd" clip-rule="evenodd" d="M69.9828 70.1082C69.7645 69.9688 69.495 69.9709 69.1319 70.0756C68.8061 70.4476 69.1509 70.7189 69.4444 71C69.5555 70.6303 70.1034 70.3207 69.9828 70.1082Z" fill="white"/>
<path id="Vector_54" fill-rule="evenodd" clip-rule="evenodd" d="M69 70.1912C68.9463 69.9765 68.218 69.9312 68.0753 70.1139C67.8084 70.5042 68.3156 70.7199 68.5929 71C68.5017 70.5056 68.8752 70.5713 69 70.1912Z" fill="white"/>
<path id="Vector_55" fill-rule="evenodd" clip-rule="evenodd" d="M68 70.171C67.9631 70.0256 67.2226 69.9078 67.0718 70.1014C66.7895 70.515 67.411 70.7033 67.7031 71C67.3975 70.492 67.9565 70.5337 68 70.171Z" fill="white"/>
<path id="Vector_56" fill-rule="evenodd" clip-rule="evenodd" d="M67.9706 69.1983C67.9634 69.1496 67.9218 69.1036 67.8528 69.0678C67.7839 69.0321 67.6917 69.0089 67.5917 69.0021C67.4916 68.9953 67.3898 69.0052 67.3031 69.0303C67.2163 69.0554 67.15 69.094 67.1151 69.1399C66.7107 69.5245 67.4776 69.7161 67.7897 70C67.3142 69.4152 68.1649 69.4415 67.9706 69.1983Z" fill="white"/>
<path id="Vector_57" fill-rule="evenodd" clip-rule="evenodd" d="M48.2688 32C48.1458 32.9649 48.4519 33.0157 48.9863 33.4098C49.09 33.912 48.5807 34.2118 48.284 33.821C48.0999 33.5389 48.0027 33.2277 48.0001 32.9119C47.9974 32.596 48.0894 32.2839 48.2688 32Z" fill="white"/>
<path id="Vector_58" fill-rule="evenodd" clip-rule="evenodd" d="M48.3342 32C48.1497 32.4844 48.4634 32.5077 48.9925 32.7016C49.0701 32.9526 48.5254 33.1063 48.2419 32.9124C48.0688 32.7717 47.9857 32.6115 48.002 32.4502C48.0183 32.2888 48.1334 32.1329 48.3342 32Z" fill="white"/>
<path id="Vector_59" fill-rule="evenodd" clip-rule="evenodd" d="M29 32H52V30.3794C52 30.3666 51.9975 30.3675 51.9919 30.3537C50.348 26.3493 47.475 24.2189 44.3897 23.2885C44.3346 23.272 44.0593 23.2034 43.9682 23.1739C43.9475 23.1674 43.9731 23.1359 43.9731 23.1244L43.9682 22H37.0092V23.1871C37.0092 23.1874 37.0392 23.1732 37.009 23.1832C36.9428 23.2057 36.7844 23.2422 36.7579 23.2501C34.9857 23.776 33.3635 24.6895 32.0178 25.9195C30.6721 27.1494 29.6393 28.6624 29 30.3405V32Z" fill="url(#paint0_linear_4_1633)"/>
<path id="Vector_60" fill-rule="evenodd" clip-rule="evenodd" d="M41.496 97.1984L41.5281 96.859L41.5817 96.5121L41.6563 96.1594L41.7522 95.802L41.869 95.4413L42.0061 95.0789L42.1633 94.7164L42.3403 94.3547L42.5363 93.9953L42.751 93.6396L42.9839 93.2892L43.2343 92.9448L43.5016 92.6082L43.7854 92.2804L44.0848 91.9627L44.3995 91.6562L44.7287 91.3622L45.0719 91.0819L45.4281 90.8163L45.7973 90.5665L46.1782 90.3338L46.5707 90.1189L46.974 89.9232L47.3877 89.7472L47.8109 89.5923L48.2437 89.4593L48.6851 89.3492L49.1355 89.263L49.5939 89.2017L50.0602 89.1658L51.3147 89.1427L51.3243 89.0748L70.9378 88.916L71.6804 88.9195L72.4207 88.8759L73.1273 88.7864L73.7999 88.6528L74.4389 88.4767L75.0441 88.2602L75.6152 88.0057L76.1522 87.7156L76.6553 87.3924L77.1245 87.0393L77.5602 86.6591L77.963 86.2552L78.3342 85.8299L78.6744 85.3866L78.9852 84.9276L79.268 84.4557L79.5238 83.9731L79.7542 83.4821L79.9604 82.9852L80.1437 82.4844L80.3057 81.9817L80.4474 81.4791L80.57 80.9788L80.6746 80.4828L80.7627 79.9927L80.835 79.5109L80.8929 79.0392L80.9372 78.5793L80.9691 78.1335L80.9894 77.7035L80.9994 77.2911L81 76.9082V0.000275707L0 0V76.9083L0.000505658 77.2904L0.0100212 77.7008L0.029558 78.1285L0.0601733 78.5718L0.1032 79.0285L0.159236 79.4969L0.229569 79.9748L0.315301 80.4608L0.417857 80.9523L0.537882 81.448L0.67703 81.9454L0.836128 82.4431L1.01702 82.9387L1.22043 83.4303L1.44807 83.9158L1.70126 84.3932L1.9814 84.8598L2.28971 85.3133L2.62772 85.7514L2.99648 86.1712L3.39729 86.57L3.83082 86.9449L4.29786 87.2929L4.79874 87.6111L5.33391 87.8966L5.90296 88.147L6.50612 88.3596L7.14306 88.5324L7.81402 88.6633L8.51882 88.7509L9.25781 88.7932L9.99676 88.7894L29.7472 89.0569L29.754 89.1252L31.0118 89.1599L31.4604 89.197L31.9048 89.2578L32.3442 89.3418L32.7782 89.448L33.2057 89.5758L33.6268 89.7243L34.0401 89.8928L34.4452 90.0804L34.8411 90.2863L35.2269 90.5098L35.602 90.7499L35.9659 91.0057L36.3173 91.2764L36.6557 91.5607L36.9803 91.8582L37.2903 92.1675L37.5847 92.4875L37.863 92.8175L38.1244 93.1565L38.368 93.5031L38.5935 93.8566L38.7999 94.2158L38.9866 94.5796L39.1533 94.9467L39.2991 95.3165L39.4235 95.6876L39.5264 96.0592L39.6068 96.4301L39.6647 96.7991L39.6997 97.1659L40.5944 100L41.496 97.1984ZM0.886464 0.886124L80.1135 0.886399V76.9078C80.1523 80.7678 78.8188 88.3076 70.9363 88.0299L50.5543 88.1948L50.5435 88.2708C44.8946 88.2126 40.5984 93.4305 40.5982 97.5298C40.5982 93.0558 35.9309 88.2613 30.5591 88.261L30.5513 88.1817L10.0005 87.9032C2.11848 88.1814 0.847988 80.7678 0.886464 76.9078V0.886124Z" fill="#0075BF"/>
<path id="Vector_61" d="M4 103H10V111H8.98523V103.944H5.00956V111H4V103Z" fill="#222222"/>
<path id="Vector_62" d="M12 113V105.129H12.8893V105.869C13.0739 105.602 13.3166 105.38 13.5996 105.218C13.8955 105.066 14.226 104.991 14.5594 105.001C15.0217 104.993 15.4756 105.123 15.8608 105.376C16.2453 105.637 16.5418 106.005 16.7122 106.434C16.9077 106.909 17.0054 107.419 16.9995 107.932C17.008 108.472 16.8999 109.008 16.6824 109.504C16.4922 109.945 16.1707 110.319 15.7606 110.576C15.3813 110.817 14.9401 110.946 14.4889 110.948C14.1845 110.953 13.8835 110.883 13.6133 110.744C13.3669 110.619 13.1498 110.443 12.976 110.23V113H12ZM12.8839 108.007C12.8373 108.583 12.9966 109.157 13.3339 109.63C13.4631 109.794 13.6285 109.926 13.8174 110.017C14.0063 110.108 14.2137 110.155 14.4239 110.155C14.6393 110.154 14.8517 110.105 15.0448 110.011C15.238 109.917 15.4067 109.78 15.5381 109.611C15.8863 109.12 16.0503 108.524 16.0018 107.926C16.0455 107.348 15.8855 106.772 15.5489 106.297C15.4231 106.131 15.2599 105.995 15.0723 105.902C14.8846 105.808 14.6775 105.758 14.4672 105.757C14.2509 105.762 14.0387 105.817 13.8473 105.917C13.6559 106.017 13.4905 106.159 13.3639 106.332C13.0121 106.819 12.8424 107.41 12.8839 108.007Z" fill="#222222"/>
<path id="Vector_63" d="M20.8549 110.159C20.564 110.432 20.2312 110.651 19.8708 110.807C19.5463 110.934 19.2024 110.998 18.8562 110.995C18.3591 111.03 17.8679 110.865 17.4811 110.534C17.3246 110.386 17.2004 110.204 17.1175 110C17.0345 109.796 16.9946 109.576 17.0006 109.354C16.9977 109.085 17.0602 108.82 17.1819 108.584C17.2959 108.361 17.459 108.169 17.6576 108.026C17.8602 107.882 18.0838 107.774 18.3195 107.707C18.5889 107.64 18.8621 107.592 19.1373 107.561C19.6935 107.508 20.2432 107.395 20.7783 107.226C20.7816 107.094 20.7834 107.009 20.7834 106.973C20.7985 106.822 20.7831 106.669 20.7381 106.525C20.6932 106.38 20.6198 106.248 20.5227 106.136C20.2232 105.894 19.8504 105.777 19.4747 105.807C19.1395 105.78 18.8046 105.864 18.5164 106.046C18.2763 106.267 18.1148 106.567 18.0588 106.897L17.1591 106.768C17.22 106.411 17.3582 106.073 17.5629 105.782C17.777 105.513 18.0587 105.312 18.3757 105.204C18.7722 105.062 19.189 104.994 19.6076 105.002C19.9909 104.989 20.3733 105.047 20.7374 105.175C20.9824 105.259 21.2025 105.409 21.3764 105.609C21.5208 105.802 21.619 106.029 21.6626 106.271C21.7012 106.568 21.7166 106.868 21.7086 107.167V108.463C21.6944 109.035 21.714 109.608 21.7675 110.177C21.8074 110.419 21.886 110.652 22 110.866H21.0389C20.9381 110.644 20.8758 110.404 20.8549 110.159ZM20.7783 107.988C20.2922 108.17 19.7879 108.294 19.2754 108.355C19.0015 108.386 18.732 108.451 18.4728 108.55C18.3246 108.614 18.1982 108.724 18.1099 108.865C18.0051 109.039 17.9626 109.246 17.9903 109.45C18.018 109.653 18.114 109.84 18.2608 109.975C18.4933 110.164 18.7834 110.256 19.076 110.234C19.4061 110.241 19.7321 110.156 20.0217 109.988C20.2862 109.837 20.4991 109.602 20.63 109.316C20.7439 109.007 20.7944 108.676 20.7782 108.344L20.7783 107.988Z" fill="#222222"/>
<path id="Vector_64" d="M24 105.003H25.9035C26.2553 104.988 26.6072 105.029 26.9471 105.123C27.1807 105.207 27.3849 105.36 27.5342 105.563C27.6996 105.781 27.7863 106.052 27.7795 106.329C27.7845 106.545 27.7347 106.76 27.6351 106.952C27.5312 107.136 27.3817 107.289 27.2015 107.396C27.433 107.476 27.6333 107.63 27.7727 107.835C27.9265 108.058 28.0061 108.326 27.9996 108.599C27.9996 108.802 27.955 109.001 27.8693 109.184C27.7835 109.366 27.6587 109.526 27.5043 109.652C27.1152 109.906 26.6573 110.026 26.197 109.995H24V105.003ZM24.8256 107.104H25.7063C25.9491 107.114 26.1923 107.095 26.431 107.048C26.5672 107.007 26.6896 106.928 26.7841 106.82C26.8867 106.709 26.9427 106.561 26.9401 106.409C26.9504 106.3 26.9302 106.19 26.8818 106.093C26.8335 105.995 26.759 105.914 26.6671 105.858C26.3718 105.734 26.0524 105.681 25.7338 105.704H24.8256L24.8256 107.104ZM24.8256 109.299H25.9127C26.2423 109.327 26.5734 109.27 26.8759 109.133C26.9662 109.069 27.039 108.983 27.0872 108.882C27.1354 108.781 27.1574 108.669 27.1511 108.557C27.1506 108.395 27.0973 108.239 26.9997 108.112C26.9038 107.979 26.7633 107.887 26.6053 107.854C26.3476 107.811 26.0865 107.793 25.8255 107.8H24.8256L24.8256 109.299Z" fill="#222222"/>
<path id="Vector_65" d="M29 105H29.8245V108.814L32.1111 105H33V110H32.1753V106.21L29.8891 110H29V105Z" fill="#222222"/>
<path id="Vector_66" d="M34 105H38V105.702H36.4145V110H35.5851V105.702H34V105Z" fill="#222222"/>
<path id="Vector_67" d="M43.0159 109.022L43.9636 109.147C43.8415 109.689 43.5486 110.171 43.1333 110.514C42.6118 110.875 41.9919 111.043 41.3708 110.991C40.7497 110.938 40.1626 110.669 39.7014 110.225C39.2094 109.624 38.9596 108.843 39.0058 108.049C38.9578 107.232 39.2099 106.426 39.7094 105.801C39.9417 105.538 40.2248 105.33 40.5394 105.192C40.8539 105.054 41.1928 104.989 41.533 105.002C41.8642 104.99 42.194 105.054 42.4999 105.189C42.8059 105.324 43.0808 105.528 43.3061 105.785C43.7953 106.399 44.0418 107.189 43.9942 107.99C43.9942 108.048 43.9924 108.134 43.9893 108.25H39.9539C39.9519 108.781 40.131 109.295 40.4581 109.698C40.6027 109.861 40.7782 109.991 40.9731 110.077C41.168 110.164 41.378 110.206 41.5892 110.2C41.8975 110.21 42.2001 110.111 42.4501 109.919C42.7181 109.686 42.9149 109.374 43.0159 109.022ZM40.0044 107.45H43.0261C43.0161 107.059 42.8954 106.68 42.6796 106.363C42.5442 106.183 42.3711 106.038 42.174 105.941C41.9768 105.843 41.7611 105.795 41.5436 105.801C41.3471 105.796 41.1517 105.833 40.9691 105.91C40.7865 105.988 40.6205 106.103 40.4812 106.25C40.1848 106.572 40.0145 107 40.0044 107.45Z" fill="#222222"/>
<path id="Vector_68" d="M45.9612 105H50V110.957H49.1354V105.836H46.8308V108.803C46.8428 109.261 46.8234 109.718 46.7728 110.172C46.7291 110.403 46.6162 110.607 46.4544 110.75C46.2351 110.931 45.9689 111.018 45.7007 110.997C45.4974 110.997 45.2642 110.982 45 110.952V110.111H45.3815C45.5128 110.12 45.6443 110.098 45.768 110.046C45.8048 110.026 45.8376 109.998 45.8642 109.963C45.8909 109.928 45.9108 109.886 45.9226 109.841C45.9602 109.539 45.9732 109.232 45.9612 108.927L45.9612 105Z" fill="#222222"/>
<path id="Vector_69" d="M51 105H51.8255V106.951H52.8712C53.4247 106.915 53.9752 107.057 54.4465 107.357C54.6232 107.481 54.7665 107.649 54.8631 107.845C54.9597 108.041 55.0066 108.259 54.9993 108.478C55.0012 108.68 54.9611 108.879 54.8816 109.064C54.8021 109.248 54.685 109.413 54.5382 109.547C54.1191 109.881 53.5924 110.04 53.0638 109.992H51V105ZM51.8255 109.296H52.6925C53.0756 109.324 53.4596 109.256 53.8116 109.099C53.9183 109.039 54.0064 108.949 54.0656 108.84C54.1248 108.731 54.1528 108.608 54.1462 108.483C54.1456 108.374 54.1233 108.267 54.0807 108.168C54.0381 108.068 53.9761 107.979 53.8985 107.905C53.5736 107.691 53.1857 107.601 52.8026 107.651H51.8255V109.296Z" fill="#222222"/>
<path id="Vector_70" d="M61.0444 108.767L62 108.891C61.9285 109.487 61.6437 110.037 61.1983 110.439C60.7576 110.815 60.1929 111.015 59.6138 110.998C59.2618 111.013 58.9108 110.951 58.5844 110.819C58.2581 110.686 57.9641 110.484 57.7223 110.228C57.2096 109.612 56.9534 108.822 57.007 108.022C56.9948 107.464 57.0997 106.91 57.3149 106.396C57.5009 105.952 57.8308 105.584 58.2512 105.351C58.6697 105.118 59.141 104.998 59.6194 105.002C60.1677 104.979 60.7073 105.146 61.1467 105.475C61.5565 105.814 61.8274 106.291 61.908 106.817L60.9637 106.963C60.9026 106.629 60.7349 106.324 60.4859 106.093C60.2545 105.898 59.9596 105.794 59.657 105.802C59.4315 105.795 59.2073 105.838 59.0009 105.929C58.7945 106.02 58.6112 106.157 58.4643 106.328C58.1184 106.811 57.9558 107.402 58.0058 107.995C57.9552 108.589 58.1114 109.182 58.4479 109.675C58.5879 109.844 58.7648 109.98 58.9651 110.071C59.1653 110.161 59.3837 110.205 59.6035 110.198C59.9552 110.209 60.2975 110.084 60.5586 109.848C60.8415 109.555 61.0133 109.173 61.0444 108.767Z" fill="#222222"/>
<path id="Vector_71" d="M62 105H66V105.702H64.4145V110H63.5851V105.702H62V105Z" fill="#222222"/>
<path id="Vector_72" d="M67 105.003H68.9033C69.2551 104.988 69.6071 105.029 69.9471 105.123C70.1807 105.207 70.3849 105.36 70.5342 105.563C70.6996 105.781 70.7863 106.052 70.7795 106.329C70.7845 106.545 70.7347 106.76 70.6351 106.952C70.5312 107.136 70.3817 107.289 70.2015 107.396C70.433 107.476 70.6333 107.63 70.7727 107.835C70.9265 108.058 71.0061 108.326 70.9996 108.599C70.9995 108.802 70.9549 109.001 70.8691 109.184C70.7834 109.366 70.6587 109.526 70.5043 109.652C70.1152 109.906 69.6572 110.026 69.1968 109.995H67V105.003ZM67.8256 107.104H68.7063C68.9492 107.114 69.1923 107.095 69.431 107.048C69.5672 107.007 69.6895 106.928 69.784 106.82C69.8867 106.709 69.9429 106.561 69.9403 106.409C69.9505 106.3 69.9303 106.19 69.8819 106.093C69.8335 105.995 69.759 105.914 69.6671 105.859C69.3718 105.734 69.0524 105.681 68.7338 105.704H67.8256L67.8256 107.104ZM67.8256 109.299H68.9129C69.2424 109.327 69.5733 109.27 69.8757 109.133C69.9662 109.069 70.0391 108.983 70.0873 108.882C70.1355 108.781 70.1574 108.669 70.1509 108.557C70.1505 108.395 70.0972 108.239 69.9997 108.112C69.9037 107.979 69.7633 107.887 69.6053 107.854C69.3476 107.811 69.0865 107.793 68.8255 107.8H67.8256V109.299Z" fill="#222222"/>
<path id="Vector_73" d="M72.0091 108C71.9762 107.565 72.0329 107.129 72.1749 106.72C72.317 106.312 72.5411 105.943 72.831 105.639C73.2968 105.211 73.893 104.984 74.5049 105.002C74.8375 104.989 75.169 105.051 75.4779 105.185C75.7869 105.318 76.0666 105.52 76.299 105.777C76.5406 106.066 76.7265 106.405 76.846 106.773C76.9655 107.14 77.0163 107.53 76.9954 107.919C77.0219 108.518 76.9163 109.115 76.6873 109.661C76.4867 110.079 76.1742 110.422 75.7905 110.647C75.3971 110.881 74.9543 111.002 74.5049 110.998C74.1703 111.013 73.8367 110.951 73.5254 110.818C73.2142 110.685 72.9324 110.483 72.6981 110.226C72.2056 109.61 71.958 108.811 72.0091 108ZM72.9364 108C72.8948 108.59 73.0532 109.176 73.3823 109.65C73.5219 109.823 73.6942 109.961 73.8875 110.055C74.0808 110.15 74.2907 110.199 74.503 110.198C74.7154 110.198 74.9252 110.149 75.1183 110.054C75.3114 109.959 75.4834 109.82 75.6227 109.647C75.9537 109.163 76.112 108.567 76.0685 107.968C76.1071 107.389 75.9475 106.815 75.62 106.355C75.4806 106.183 75.3087 106.045 75.1158 105.951C74.923 105.856 74.7136 105.807 74.5017 105.807C74.2899 105.806 74.0804 105.855 73.8873 105.949C73.6942 106.043 73.522 106.181 73.3822 106.352C73.053 106.825 72.8945 107.411 72.9365 108H72.9364Z" fill="#222222"/>
<path id="Vector_74" d="M4 123V115H5.01217V118.285H8.98783V115H10V123H8.98783V119.229H5.01217V123H4Z" fill="#222222"/>
<path id="Vector_75" d="M11.0091 120C10.9762 119.565 11.0328 119.129 11.1749 118.72C11.317 118.312 11.541 117.943 11.831 117.639C12.2967 117.211 12.893 116.984 13.5048 117.002C13.8374 116.989 14.1689 117.051 14.4778 117.185C14.7868 117.318 15.0665 117.52 15.2989 117.777C15.5404 118.066 15.7263 118.405 15.8459 118.773C15.9654 119.14 16.0163 119.53 15.9955 119.919C16.0219 120.518 15.9162 121.115 15.6871 121.661C15.4864 122.079 15.174 122.422 14.7903 122.647C14.3969 122.881 13.9542 123.002 13.5048 122.998C13.1703 123.013 12.8366 122.951 12.5254 122.818C12.2142 122.685 11.9323 122.483 11.6981 122.226C11.2056 121.61 10.958 120.811 11.0091 120ZM11.9362 120C11.8945 120.59 12.053 121.177 12.3822 121.65C12.5218 121.823 12.6941 121.961 12.8874 122.055C13.0807 122.15 13.2906 122.199 13.5029 122.198C13.7152 122.198 13.9249 122.149 14.118 122.054C14.3111 121.959 14.4831 121.82 14.6223 121.647C14.9535 121.163 15.1119 120.567 15.0683 119.968C15.107 119.389 14.9474 118.815 14.6199 118.355C14.4805 118.183 14.3086 118.045 14.1157 117.951C13.9229 117.856 13.7135 117.807 13.5017 117.807C13.2898 117.806 13.0803 117.855 12.8873 117.949C12.6942 118.043 12.522 118.181 12.3822 118.352C12.0528 118.825 11.8943 119.411 11.9362 120Z" fill="#222222"/>
<path id="Vector_76" d="M17 117.003H18.9035C19.2553 116.988 19.6072 117.029 19.9471 117.123C20.1807 117.207 20.3849 117.36 20.5342 117.563C20.6996 117.781 20.7863 118.052 20.7795 118.329C20.7845 118.545 20.7347 118.76 20.6351 118.952C20.5312 119.136 20.3817 119.289 20.2015 119.396C20.433 119.476 20.6333 119.63 20.7727 119.835C20.9265 120.058 21.0061 120.326 20.9996 120.599C20.9996 120.802 20.955 121.001 20.8693 121.184C20.7835 121.366 20.6587 121.526 20.5043 121.652C20.1152 121.906 19.6573 122.026 19.197 121.995H17V117.003ZM17.8256 119.104H18.7063C18.9491 119.114 19.1923 119.095 19.431 119.048C19.5672 119.007 19.6896 118.928 19.7841 118.82C19.8867 118.709 19.9427 118.561 19.9401 118.409C19.9504 118.3 19.9302 118.19 19.8818 118.093C19.8335 117.995 19.759 117.914 19.6671 117.858C19.3718 117.734 19.0524 117.681 18.7338 117.704H17.8256V119.104ZM17.8256 121.299H18.9127C19.2423 121.327 19.5734 121.27 19.8759 121.133C19.9662 121.069 20.039 120.983 20.0872 120.882C20.1355 120.781 20.1574 120.669 20.1511 120.557C20.1506 120.395 20.0973 120.239 19.9997 120.112C19.9038 119.979 19.7633 119.887 19.6053 119.854C19.3476 119.811 19.0865 119.793 18.8255 119.8H17.8256V121.299Z" fill="#222222"/>
<path id="Vector_77" d="M22.0091 120C21.9762 119.565 22.0328 119.129 22.1749 118.72C22.317 118.312 22.541 117.943 22.831 117.639C23.2967 117.211 23.893 116.984 24.5048 117.002C24.8374 116.989 25.1689 117.051 25.4778 117.185C25.7868 117.318 26.0665 117.52 26.2989 117.777C26.5404 118.066 26.7263 118.405 26.8459 118.773C26.9654 119.14 27.0163 119.53 26.9955 119.919C27.0219 120.518 26.9162 121.115 26.6871 121.661C26.4864 122.079 26.174 122.422 25.7903 122.647C25.3969 122.881 24.9542 123.002 24.5048 122.998C24.1703 123.013 23.8366 122.951 23.5254 122.818C23.2142 122.685 22.9323 122.483 22.6981 122.226C22.2056 121.61 21.958 120.811 22.0091 120ZM22.9362 120C22.8945 120.59 23.053 121.177 23.3822 121.65C23.5218 121.823 23.6941 121.961 23.8874 122.055C24.0807 122.15 24.2906 122.199 24.5029 122.198C24.7152 122.198 24.9249 122.149 25.118 122.054C25.3111 121.959 25.4831 121.82 25.6223 121.647C25.9535 121.163 26.1119 120.567 26.0683 119.968C26.107 119.389 25.9474 118.815 25.6199 118.355C25.4805 118.183 25.3086 118.045 25.1157 117.951C24.9229 117.856 24.7135 117.807 24.5017 117.807C24.2898 117.806 24.0803 117.855 23.8873 117.949C23.6942 118.043 23.522 118.181 23.3822 118.352C23.0528 118.825 22.8943 119.411 22.9362 120Z" fill="#222222"/>
<path id="Vector_78" d="M32.0444 120.767L33 120.891C32.9285 121.487 32.6437 122.037 32.1983 122.439C31.7576 122.815 31.1929 123.015 30.6138 122.998C30.2618 123.013 29.9108 122.951 29.5844 122.819C29.2581 122.686 28.9641 122.484 28.7223 122.228C28.2096 121.612 27.9534 120.822 28.007 120.022C27.9949 119.464 28.0998 118.91 28.3146 118.396C28.5009 117.952 28.8307 117.584 29.2512 117.351C29.6697 117.118 30.141 116.998 30.6194 117.002C31.1677 116.979 31.7073 117.146 32.1467 117.475C32.5565 117.814 32.8274 118.291 32.908 118.817L31.9637 118.963C31.9026 118.629 31.7349 118.324 31.4858 118.093C31.2545 117.898 30.9596 117.794 30.657 117.802C30.4315 117.795 30.2073 117.838 30.0009 117.929C29.7945 118.02 29.6112 118.157 29.4643 118.328C29.1184 118.811 28.9558 119.402 29.0055 119.995C28.955 120.589 29.1113 121.182 29.4479 121.675C29.5879 121.844 29.7648 121.98 29.9651 122.071C30.1653 122.161 30.3837 122.205 30.6035 122.198C30.9552 122.209 31.2975 122.084 31.5586 121.848C31.8415 121.555 32.0133 121.173 32.0444 120.767Z" fill="#222222"/>
<path id="Vector_79" d="M34 117H34.8247V120.814L37.1112 117H38V122H37.1753V118.21L34.8892 122H34V117Z" fill="#222222"/>
<path id="Vector_80" d="M43.1049 115L43.8966 115.01C43.8913 115.29 43.8092 115.561 43.6602 115.792C43.5387 115.939 43.3738 116.039 43.192 116.075C42.82 116.129 42.4443 116.15 42.069 116.138C41.5548 116.099 41.0385 116.176 40.5549 116.364C40.2819 116.519 40.0746 116.776 39.9745 117.085C39.8434 117.497 39.777 117.928 39.7779 118.363C39.9778 118.035 40.2493 117.762 40.5696 117.568C40.8827 117.388 41.2345 117.297 41.5908 117.303C41.9122 117.293 42.2318 117.355 42.5287 117.485C42.8256 117.615 43.0931 117.809 43.3137 118.055C43.7883 118.613 44.0338 119.346 43.9962 120.094C44.0176 120.65 43.8989 121.202 43.6524 121.694C43.4528 122.076 43.1746 122.406 42.8382 122.659C42.4126 122.901 41.9332 123.018 41.4501 122.998C40.9671 122.978 40.4979 122.822 40.0915 122.546C39.7368 122.235 39.4611 121.836 39.2894 121.384C39.0609 120.586 38.9666 119.751 39.0105 118.919C39.0105 117.447 39.2471 116.455 39.7203 115.944C40.0164 115.668 40.3626 115.458 40.738 115.326C41.1133 115.194 41.5101 115.144 41.9044 115.178C42.2517 115.189 42.5994 115.179 42.9456 115.147C42.9823 115.14 43.0166 115.123 43.0447 115.097C43.0728 115.071 43.0937 115.037 43.1049 115ZM43.0599 120.068C43.0805 119.56 42.9432 119.059 42.6688 118.641C42.5428 118.459 42.3762 118.314 42.1837 118.217C41.9912 118.12 41.7789 118.074 41.5657 118.085C41.3434 118.074 41.1219 118.122 40.9218 118.225C40.7216 118.327 40.5492 118.481 40.4202 118.672C40.1314 119.137 39.9902 119.686 40.017 120.241C39.9821 120.777 40.1413 121.308 40.4626 121.725C40.5992 121.89 40.7682 122.021 40.9578 122.11C41.1474 122.199 41.3531 122.243 41.5605 122.24C41.7739 122.243 41.9847 122.19 42.1739 122.086C42.363 121.982 42.5247 121.83 42.6441 121.644C42.9402 121.179 43.086 120.626 43.0599 120.068Z" fill="#222222"/>
<path id="Vector_81" d="M46 117H46.8247V120.814L49.1112 117H50V122H49.1753V118.21L46.8892 122H46V117Z" fill="#222222"/>
<path id="Vector_82" d="M51 125V117.129H51.8892V117.869C52.0739 117.602 52.3167 117.38 52.5997 117.218C52.8955 117.066 53.2258 116.991 53.5592 117.001C54.0214 116.992 54.4753 117.123 54.8605 117.376C55.2451 117.636 55.5417 118.005 55.712 118.434C55.9074 118.909 56.0052 119.419 55.9996 119.932C56.0079 120.472 55.8997 121.008 55.6822 121.504C55.4921 121.945 55.1706 122.319 54.7605 122.576C54.3812 122.817 53.94 122.946 53.4889 122.948C53.1845 122.953 52.8836 122.883 52.6134 122.744C52.367 122.618 52.1499 122.443 51.976 122.23V125L51 125ZM51.884 120.007C51.8374 120.583 51.9967 121.157 52.3343 121.63C52.4634 121.794 52.6287 121.926 52.8175 122.017C53.0064 122.108 53.2138 122.155 53.4239 122.155C53.6393 122.154 53.8517 122.105 54.0448 122.011C54.2379 121.917 54.4066 121.78 54.538 121.611C54.8862 121.12 55.0503 120.524 55.0019 119.926C55.0454 119.348 54.8853 118.772 54.5488 118.297C54.423 118.131 54.2599 117.995 54.0722 117.902C53.8846 117.808 53.6775 117.758 53.4672 117.757C53.2509 117.762 53.0387 117.817 52.8474 117.917C52.656 118.017 52.4906 118.159 52.364 118.332C52.0122 118.819 51.8425 119.41 51.884 120.007Z" fill="#222222"/>
<path id="Vector_83" d="M61.0444 120.767L62 120.891C61.9285 121.487 61.6437 122.037 61.1983 122.439C60.7576 122.815 60.1929 123.015 59.6138 122.998C59.2618 123.013 58.9108 122.951 58.5844 122.819C58.2581 122.686 57.9641 122.484 57.7223 122.228C57.2096 121.612 56.9534 120.822 57.007 120.022C56.9948 119.464 57.0997 118.91 57.3149 118.396C57.5009 117.952 57.8307 117.584 58.2512 117.351C58.6697 117.118 59.141 116.998 59.6194 117.002C60.1677 116.979 60.7073 117.146 61.1467 117.475C61.5565 117.814 61.8274 118.291 61.908 118.817L60.9637 118.963C60.9026 118.629 60.7349 118.324 60.4859 118.093C60.2545 117.898 59.9596 117.794 59.657 117.802C59.4315 117.795 59.2073 117.838 59.0009 117.929C58.7945 118.02 58.6112 118.157 58.4643 118.328C58.1184 118.811 57.9558 119.402 58.0058 119.995C57.9552 120.589 58.1114 121.182 58.4479 121.675C58.5879 121.844 58.7648 121.98 58.9651 122.071C59.1653 122.161 59.3837 122.205 59.6035 122.198C59.9552 122.209 60.2975 122.084 60.5586 121.848C60.8415 121.555 61.0133 121.173 61.0444 120.767Z" fill="#222222"/>
<path id="Vector_84" d="M63 117.002H63.9254V119.162C64.1459 119.183 64.3669 119.127 64.5451 119.007C64.7678 118.731 64.9437 118.427 65.0668 118.103C65.1786 117.827 65.3271 117.565 65.509 117.322C65.6098 117.205 65.7455 117.116 65.8997 117.068C66.1316 117.015 66.3705 116.993 66.6093 117.002H66.7943V117.703L66.5373 117.698C66.3733 117.679 66.2071 117.714 66.0692 117.798C65.9291 117.988 65.8184 118.196 65.7401 118.414C65.6494 118.656 65.5195 118.885 65.3548 119.092C65.2034 119.24 65.0193 119.357 64.8147 119.435C65.3306 119.628 65.7488 119.991 65.9869 120.452L67 122H65.982L64.9949 120.452C64.8619 120.218 64.6822 120.01 64.4651 119.838C64.3072 119.737 64.118 119.685 63.9254 119.689V122H63V117.002Z" fill="#222222"/>
<path id="Vector_85" d="M67.0091 120C66.9762 119.565 67.0329 119.129 67.1749 118.72C67.317 118.312 67.5411 117.943 67.831 117.639C68.2968 117.211 68.893 116.984 69.5049 117.002C69.8375 116.989 70.169 117.051 70.4779 117.185C70.7869 117.318 71.0666 117.52 71.299 117.777C71.5406 118.066 71.7265 118.405 71.846 118.773C71.9655 119.14 72.0163 119.53 71.9954 119.919C72.0219 120.518 71.9163 121.115 71.6873 121.661C71.4867 122.079 71.1742 122.422 70.7905 122.647C70.397 122.881 69.9543 123.002 69.5049 122.998C69.1703 123.013 68.8367 122.951 68.5254 122.818C68.2142 122.685 67.9323 122.483 67.6981 122.226C67.2056 121.61 66.958 120.811 67.0091 120ZM67.9364 120C67.8948 120.59 68.0532 121.176 68.3822 121.65C68.5219 121.823 68.6942 121.961 68.8875 122.055C69.0808 122.15 69.2907 122.199 69.503 122.198C69.7154 122.198 69.9252 122.149 70.1183 122.054C70.3114 121.959 70.4834 121.82 70.6227 121.647C70.9537 121.163 71.112 120.567 71.0685 119.968C71.1071 119.389 70.9475 118.815 70.62 118.355C70.4806 118.183 70.3087 118.045 70.1158 117.951C69.923 117.856 69.7136 117.807 69.5017 117.807C69.2899 117.806 69.0804 117.855 68.8873 117.949C68.6942 118.043 68.522 118.181 68.3822 118.352C68.053 118.825 67.8945 119.411 67.9364 120H67.9364Z" fill="#222222"/>
<path id="Vector_86" d="M73 117.197H73.8247V121.623L76.1112 117.197H77V123H76.1753V118.601L73.8892 123H73V117.197ZM75.8637 115H76.4271C76.4041 115.401 76.2543 115.776 76.008 116.049C75.7461 116.305 75.4138 116.436 75.0757 116.416C74.7365 116.436 74.4028 116.307 74.1386 116.052C73.8918 115.778 73.7419 115.401 73.7195 115H74.2829C74.3103 115.215 74.4004 115.411 74.5374 115.555C74.6847 115.685 74.8653 115.749 75.0482 115.738C75.2467 115.754 75.4441 115.692 75.6096 115.56C75.7484 115.416 75.8387 115.217 75.8637 115H75.8637Z" fill="#222222"/>
<path id="Vector_87" d="M21.0091 131C20.9762 130.565 21.0328 130.129 21.1749 129.72C21.317 129.312 21.541 128.943 21.831 128.639C22.2967 128.211 22.893 127.984 23.5048 128.002C23.8374 127.989 24.1689 128.051 24.4778 128.185C24.7868 128.318 25.0665 128.52 25.2989 128.777C25.5404 129.066 25.7263 129.405 25.8459 129.773C25.9654 130.14 26.0163 130.53 25.9955 130.919C26.0219 131.518 25.9162 132.115 25.6871 132.661C25.4864 133.079 25.174 133.422 24.7903 133.647C24.3969 133.881 23.9542 134.002 23.5048 133.998C23.1703 134.013 22.8366 133.951 22.5254 133.818C22.2142 133.685 21.9323 133.483 21.6981 133.226C21.2056 132.61 20.958 131.811 21.0091 131ZM21.9362 131C21.8945 131.59 22.053 132.177 22.3822 132.65C22.5218 132.823 22.6941 132.961 22.8874 133.055C23.0807 133.15 23.2906 133.199 23.5029 133.198C23.7152 133.198 23.9249 133.149 24.118 133.054C24.3111 132.959 24.4831 132.82 24.6223 132.647C24.9535 132.163 25.1119 131.567 25.0683 130.968C25.107 130.389 24.9474 129.815 24.6199 129.355C24.4805 129.183 24.3086 129.045 24.1157 128.951C23.9229 128.856 23.7135 128.807 23.5017 128.807C23.2898 128.806 23.0803 128.855 22.8873 128.949C22.6942 129.043 22.522 129.181 22.3822 129.352C22.0528 129.825 21.8943 130.411 21.9362 131Z" fill="#222222"/>
<path id="Vector_88" d="M31.1048 126L31.8966 126.01C31.8913 126.29 31.8091 126.561 31.6601 126.792C31.5387 126.939 31.374 127.039 31.1923 127.075C30.8202 127.129 30.4443 127.15 30.0688 127.138C29.5546 127.099 29.0383 127.176 28.5546 127.364C28.2818 127.519 28.0746 127.776 27.9744 128.085C27.8432 128.497 27.7767 128.928 27.7776 129.362C27.9777 129.035 28.2492 128.763 28.5696 128.568C28.8826 128.388 29.2343 128.297 29.5906 128.303C29.912 128.293 30.2316 128.355 30.5285 128.485C30.8255 128.615 31.093 128.809 31.3136 129.055C31.7885 129.613 32.034 130.346 31.9962 131.094C32.0175 131.65 31.8989 132.202 31.6523 132.694C31.4528 133.076 31.1746 133.406 30.838 133.659C30.4124 133.901 29.9331 134.018 29.45 133.998C28.967 133.978 28.4978 133.822 28.0914 133.546C27.7367 133.235 27.4611 132.836 27.2895 132.384C27.0609 131.586 26.9665 130.751 27.0105 129.919C27.0105 128.446 27.2471 127.455 27.7202 126.944C28.0163 126.668 28.3624 126.458 28.7378 126.326C29.1132 126.194 29.5099 126.144 29.9042 126.178C30.2516 126.189 30.5993 126.179 30.9455 126.147C30.9823 126.14 31.0166 126.123 31.0447 126.097C31.0728 126.071 31.0936 126.038 31.1048 126ZM31.0598 131.068C31.0806 130.56 30.9434 130.059 30.6691 129.641C30.5431 129.459 30.3763 129.314 30.1837 129.217C29.9912 129.12 29.7788 129.074 29.5655 129.085C29.3432 129.074 29.1218 129.122 28.9217 129.225C28.7215 129.327 28.5491 129.481 28.4202 129.672C28.1313 130.137 27.99 130.686 28.0167 131.241C27.9818 131.777 28.1411 132.308 28.4626 132.725C28.5991 132.89 28.7681 133.021 28.9576 133.11C29.1472 133.199 29.3529 133.243 29.5603 133.24C29.7737 133.243 29.9845 133.19 30.1737 133.086C30.3629 132.982 30.5245 132.83 30.644 132.644C30.9401 132.179 31.0859 131.626 31.0598 131.068Z" fill="#222222"/>
<path id="Vector_89" d="M32.9612 128H37V133.957H36.1354V128.836H33.8308V131.803C33.8428 132.261 33.8234 132.718 33.7728 133.172C33.7291 133.403 33.6162 133.607 33.4544 133.75C33.2351 133.931 32.9689 134.018 32.7007 133.997C32.4974 133.997 32.2642 133.982 32 133.952V133.111H32.3814C32.5127 133.12 32.6443 133.098 32.7679 133.046C32.8047 133.026 32.8376 132.998 32.8642 132.963C32.8909 132.928 32.9108 132.886 32.9225 132.841C32.9602 132.539 32.9732 132.232 32.9612 131.927L32.9612 128Z" fill="#222222"/>
<path id="Vector_90" d="M42.855 133.159C42.564 133.432 42.2312 133.651 41.8708 133.807C41.5464 133.934 41.2026 133.998 40.8564 133.995C40.3593 134.03 39.868 133.865 39.4811 133.534C39.3245 133.386 39.2004 133.204 39.1174 133C39.0344 132.796 38.9945 132.576 39.0006 132.354C38.9978 132.085 39.0602 131.82 39.182 131.584C39.2959 131.361 39.459 131.169 39.6576 131.026C39.8603 130.882 40.0839 130.774 40.3195 130.707C40.5889 130.64 40.8621 130.592 41.1374 130.561C41.6936 130.507 42.2433 130.395 42.7785 130.226C42.7816 130.094 42.7834 130.009 42.7834 129.973C42.7986 129.822 42.7832 129.669 42.7382 129.525C42.6932 129.38 42.6197 129.248 42.5225 129.136C42.2231 128.894 41.8503 128.777 41.4747 128.807C41.1395 128.78 40.8046 128.864 40.5164 129.046C40.2763 129.267 40.1149 129.567 40.059 129.897L39.1593 129.768C39.2201 129.411 39.3582 129.073 39.5629 128.782C39.777 128.513 40.0586 128.312 40.3755 128.204C40.7721 128.062 41.1889 127.994 41.6076 128.002C41.991 127.989 42.3735 128.047 42.7376 128.175C42.9825 128.259 43.2025 128.409 43.3764 128.609C43.5208 128.802 43.619 129.029 43.6626 129.271C43.7011 129.568 43.7164 129.868 43.7084 130.167V131.463C43.6943 132.035 43.714 132.608 43.7675 133.178C43.8073 133.419 43.8859 133.652 44 133.866H43.039C42.9379 133.644 42.8756 133.404 42.855 133.159ZM42.7785 130.988C42.2922 131.17 41.7879 131.294 41.2752 131.355C41.0013 131.386 40.732 131.451 40.4728 131.55C40.3246 131.614 40.198 131.724 40.1096 131.865C40.005 132.039 39.9626 132.246 39.9904 132.45C40.0181 132.653 40.114 132.84 40.2608 132.975C40.4933 133.164 40.7834 133.256 41.076 133.234C41.4062 133.241 41.7322 133.156 42.0219 132.988C42.2863 132.837 42.4991 132.602 42.63 132.316C42.7439 132.007 42.7945 131.676 42.7785 131.344L42.7785 130.988Z" fill="#222222"/>
<path id="Vector_91" d="M49.0444 131.767L50 131.891C49.9285 132.487 49.6437 133.037 49.1983 133.439C48.7576 133.815 48.1929 134.015 47.6138 133.998C47.2618 134.013 46.9108 133.951 46.5844 133.819C46.2581 133.686 45.9641 133.484 45.7223 133.228C45.2096 132.612 44.9534 131.822 45.007 131.022C44.9948 130.464 45.0997 129.91 45.3149 129.396C45.5009 128.952 45.8308 128.584 46.2512 128.351C46.6697 128.118 47.141 127.998 47.6194 128.002C48.1677 127.979 48.7073 128.146 49.1467 128.475C49.5565 128.814 49.8274 129.291 49.908 129.817L48.9637 129.963C48.9026 129.629 48.7349 129.324 48.4859 129.093C48.2545 128.898 47.9596 128.794 47.657 128.802C47.4315 128.795 47.2073 128.838 47.0009 128.929C46.7945 129.02 46.6112 129.157 46.4643 129.328C46.1184 129.811 45.9558 130.402 46.0058 130.995C45.9552 131.589 46.1114 132.182 46.4479 132.675C46.5879 132.844 46.7648 132.98 46.9651 133.071C47.1653 133.161 47.3837 133.205 47.6035 133.198C47.9552 133.209 48.2975 133.084 48.5586 132.848C48.8415 132.555 49.0133 132.173 49.0444 131.767Z" fill="#222222"/>
<path id="Vector_92" d="M50 128H54V128.702H52.4145V133H51.5851V128.702H50V128Z" fill="#222222"/>
<path id="Vector_93" d="M55 128H55.8247V131.814L58.1112 128H59V133H58.1753V129.21L55.8892 133H55V128Z" fill="#222222"/>
</g>
</g>
<defs>
<linearGradient id="paint0_linear_4_1633" x1="30.723" y1="20.9751" x2="49.5607" y2="40.5136" gradientUnits="userSpaceOnUse">
<stop stop-color="#FDD5A5"/>
<stop offset="0.11" stop-color="#D7B46A"/>
<stop offset="0.22" stop-color="#FFFBDC"/>
<stop offset="0.33" stop-color="#D7B46A"/>
<stop offset="0.43" stop-color="#E0C17D"/>
<stop offset="0.5" stop-color="#FFFBDC"/>
<stop offset="0.58" stop-color="#EFDAA6"/>
<stop offset="0.7" stop-color="#D7B46A"/>
<stop offset="1" stop-color="#FDD5A5"/>
</linearGradient>
</defs>
</svg>
