<svg width="165" height="27" viewBox="0 0 165 27" fill="none" xmlns="http://www.w3.org/2000/svg">
<g id="qnap 1">
<g id="&#229;&#156;&#150;&#229;&#177;&#164; 1">
<path id="Vector" d="M161 6V2.00214H162.508C162.743 1.99043 162.978 2.02692 163.202 2.10996C163.361 2.18301 163.493 2.3171 163.579 2.49032C163.673 2.67181 163.722 2.88061 163.721 3.09317C163.726 3.35917 163.642 3.61689 163.487 3.81062C163.288 4.02749 163.032 4.15802 162.761 4.18058C162.859 4.23178 162.951 4.29895 163.033 4.38012C163.177 4.53763 163.302 4.71647 163.406 4.91211L164 6H163.433L162.983 5.16741C162.851 4.92876 162.743 4.74431 162.658 4.61717C162.594 4.51423 162.516 4.42429 162.428 4.35094C162.366 4.30076 162.296 4.26454 162.223 4.24412C162.14 4.22884 162.056 4.22257 161.973 4.22539H161.451V6H161ZM161.451 3.7658H162.419C162.582 3.77283 162.745 3.74784 162.901 3.69186C163.01 3.64895 163.103 3.56411 163.166 3.45112C163.226 3.34511 163.257 3.2205 163.257 3.09317C163.259 3.00498 163.244 2.91742 163.213 2.83673C163.183 2.75604 163.138 2.6842 163.081 2.62632C162.922 2.4893 162.725 2.42455 162.528 2.44396H161.451V3.7658Z" fill="#0C2E82"/>
<path id="Vector_2" d="M159 4.00112C159 3.60699 159.078 3.21672 159.228 2.85259C159.379 2.48846 159.6 2.1576 159.879 1.87891C160.157 1.60023 160.488 1.37917 160.852 1.22836C161.216 1.07756 161.606 0.999958 162 1C162.394 1.00005 162.785 1.07771 163.148 1.22856C163.512 1.37941 163.843 1.60049 164.122 1.87917C164.4 2.15785 164.621 2.48868 164.772 2.85276C164.923 3.21685 165 3.60706 165 4.00112C165 4.39502 164.922 4.78506 164.771 5.14895C164.621 5.51284 164.4 5.84346 164.121 6.12193C163.843 6.4004 163.512 6.62127 163.148 6.77193C162.784 6.92259 162.394 7.00009 162 7C161.607 7.00018 161.216 6.92275 160.853 6.77214C160.489 6.62152 160.158 6.40067 159.879 6.12219C159.601 5.84371 159.38 5.51306 159.229 5.14912C159.078 4.78519 159 4.39509 159 4.00112ZM159.441 4.00112C159.442 4.67951 159.713 5.32966 160.192 5.80923C160.672 6.2888 161.322 6.5587 162 6.55983C162.679 6.55873 163.329 6.28887 163.809 5.80932C164.289 5.32977 164.559 4.6796 164.561 4.00112C164.559 3.32229 164.289 2.67164 163.809 2.1916C163.33 1.71155 162.679 1.4412 162 1.43971C161.322 1.44123 160.672 1.71162 160.192 2.19169C159.712 2.67175 159.442 3.32238 159.441 4.00112Z" fill="#0C2E82"/>
<path id="Vector_3" d="M116.995 27H106.407V19.8051H91.5852V27H81.0032V5.86647C80.9735 5.03752 81.1481 4.2137 81.5125 3.46399C81.8768 2.71428 82.4202 2.0605 83.0973 1.5574C84.4622 0.51696 86.413 -0.00217076 88.9498 6.8221e-06H109.094C111.632 6.8221e-06 113.582 0.519137 114.944 1.5574C115.615 2.06334 116.152 2.71878 116.508 3.46862C116.865 4.21846 117.032 5.04079 116.995 5.86647V27ZM106.407 14.8364V7.01902H91.5852V14.8364H106.407Z" fill="#0C2E82"/>
<path id="Vector_4" d="M155.279 1.35238C154.198 0.524446 152.538 0.0834848 150.314 0.0122009L150.352 0.00282927H149.935C149.845 0.000960706 149.761 0 149.668 0H130.651L130.641 0.00282927H130.022C127.463 0.00282927 125.495 0.522586 124.115 1.5621C123.45 2.0503 122.912 2.68246 122.546 3.40773C122.179 4.133 121.994 4.93113 122.006 5.73793H122.004V5.80268C122.004 5.82987 122 5.84817 122 5.86973H122.004V27H132.686V19.9472H149.961C154.654 19.9472 157 18.1342 157 14.4875V5.82987C157 3.75086 156.423 2.26293 155.279 1.35238ZM146.128 14.0174H132.537V7.01902H146.128V14.0174Z" fill="#0C2E82"/>
<path id="Vector_5" d="M67.5143 0.00651653H65.9471V15.7098C65.8781 15.8739 65.7276 15.9977 65.4067 15.9405C65.2736 15.9099 65.1518 15.8433 65.0551 15.7483C63.2824 13.0582 56.456 3.84839 54.2731 0.914015C54.2666 0.90417 54.2542 0.895718 54.2451 0.88352H54.2513C54.2182 0.849848 54.1819 0.819374 54.1429 0.792516C54.1326 0.769632 54.1144 0.751046 54.0915 0.740026C53.4637 0.220765 52.6567 -0.0418401 51.8372 0.00651653H43.353C42.903 -0.0217361 42.4519 0.0420864 42.0283 0.193939C41.6047 0.345791 41.2178 0.582361 40.8923 0.888654C40.2965 1.53739 39.9815 2.38843 40.0143 3.26126L40 3.27153V27H49.9214C49.9214 27 49.8648 14.4651 49.84 10.7687C49.8823 10.5257 50.0617 10.1693 50.8199 10.2622C50.9027 10.2684 50.983 10.2927 51.055 10.3333C51.1269 10.374 51.1886 10.4299 51.2356 10.4971C53.1505 13.4981 65.6956 27 65.6956 27H76V0.00651653H67.5143Z" fill="#0C2E82"/>
<path id="Vector_6" d="M22.7177 20.7561C22.5593 20.6473 22.4021 20.5392 22.2459 20.4318H11.1668V6.42336H25.9164V18.3066C30.3464 19.6289 33.3927 21.3317 35.4676 22.9487C35.8379 22.0045 36.018 21.0017 35.9986 19.9932V7.0515C35.9986 2.60815 33.2867 0.26533 27.863 0.0230475V0.00321154H26.9777C26.9442 0.00321154 26.9129 0 26.8809 0V0.00321154H9.12105C3.03936 0.00321154 -0.000985686 2.35264 2.3971e-07 7.0515V19.9932C2.3971e-07 24.6635 3.04035 26.9991 9.12105 27H26.9069V26.9945C27.7827 26.9958 28.6573 26.9348 29.5236 26.8118C28.0389 24.7641 25.2884 22.5382 22.7177 20.7561Z" fill="#0C2E82"/>
<path id="Vector_7" d="M19 17C22.3369 19.0866 28.416 23.2274 30.427 27H38C36.7066 24.7269 32.3337 19.2474 19 17Z" fill="#E41F1A"/>
</g>
</g>
</svg>
