<svg width="107" height="79" viewBox="0 0 107 79" fill="none" xmlns="http://www.w3.org/2000/svg">
<g id="&#209;&#128;&#208;&#182;&#208;&#180; 1" clip-path="url(#clip0_4_1781)">
<g id="&#208;&#161;&#208;&#187;&#208;&#190;&#208;&#185; 2">
<g id="Layer 1">
<path id="Vector" d="M75.798 4.14836V5.8456H90.6589C91.8999 5.7074 93.1462 6.05625 94.1247 6.81569C94.8998 7.77415 95.2549 8.99419 95.1123 10.2084V24.7433C95.2546 25.9569 94.8995 27.1761 94.1247 28.1339C93.6415 28.5126 93.0865 28.794 92.4917 28.9618C91.8969 29.1296 91.274 29.1806 90.6589 29.1118H83.4769C82.236 29.1118 80.6298 29.1118 80.0089 27.7781C79.8242 27.1596 79.8191 26.503 79.9943 25.8818C80.1694 25.2606 80.5178 24.6995 81.0004 24.2611L90.6589 11.6568H75.798L69.8575 19.4141C68.8147 20.4688 68.161 21.8337 68 23.2928C68.1508 24.7536 68.806 26.1204 69.8575 27.1677L71.3437 29.1118C72.603 31.069 74.2965 32.7237 76.2986 33.953C78.7054 34.8336 81.2858 35.1654 83.8435 34.9231H90.2855C93.9978 34.9231 99.5676 34.9231 103.282 31.2817C107 27.6517 107 22.3227 107 20.3844V14.5654C107 12.6232 107 7.29615 103.282 3.66047C99.5676 0.0286986 93.9978 0.0324213 90.2855 0.0324213L80.0089 0.0286985C79.4319 -0.0388968 78.8468 0.0132372 78.2917 0.181703C77.7367 0.35017 77.2242 0.631187 76.7875 1.00644C76.407 1.43314 76.1222 1.93331 75.9517 2.47455C75.7813 3.01579 75.7289 3.58604 75.798 4.14836Z" fill="#CD202C"/>
<path id="Vector_2" d="M58.0031 12H73L55.005 36H40L58.0031 12Z" fill="#CD202C"/>
<path id="Vector_3" d="M0.0292504 16.2001C-0.0393977 15.6356 0.0131058 15.0633 0.183401 14.5199C0.353696 13.9764 0.638032 13.4737 1.01821 13.044C1.45757 12.6721 1.97137 12.3939 2.52677 12.2274C3.08217 12.0609 3.66696 12.0096 4.24376 12.0768H29.1445C31.7054 11.8351 34.2888 12.1658 36.7 13.044C38.7058 14.2781 40.3997 15.9412 41.6542 17.9083L43.1441 19.8405C44.1952 20.8906 44.8498 22.2597 45 23.7224C44.8354 25.1801 44.1829 26.5436 43.1441 27.6005L37.1951 35.3623H22.3278L31.9954 22.7515C32.4761 22.3117 32.8229 21.7501 32.9973 21.1292C33.1717 20.5082 33.1669 19.852 32.9834 19.2336C32.3643 17.9083 30.7548 17.9083 29.5174 17.9083H17.8696V47H5.97545V17.9083H0.0292504V16.2001Z" fill="#CD202C"/>
<path id="Vector_4" d="M22.8635 70C26 70 26 71.99 26 73.676V74.3238C26 76.0101 26 78 22.8635 78H22.1384C19 78 19 76.0101 19 74.3238V73.676C19 71.99 19 70 22.1384 70H22.8635ZM20.2075 74.1295C20.2075 76.8543 20.217 76.8543 22.5001 76.8543C24.7944 76.8543 24.7944 76.8421 24.7944 74.1295V73.8704C24.7944 71.1457 24.7832 71.1457 22.5001 71.1457C20.2075 71.1457 20.2075 71.1558 20.2075 73.8704V74.1295Z" fill="#48443E"/>
<path id="Vector_5" d="M32.1185 70L35 76.6241V77H33.8804L33.1072 75.2203H28.8908L28.1176 77H27V76.6241L29.8813 70H32.1185ZM29.2792 74.3315H32.7185C32.1139 73.277 31.721 72.1309 31.5587 70.9481H30.4411C30.2776 72.1309 29.884 73.2769 29.2792 74.3315Z" fill="#48443E"/>
<path id="Vector_6" d="M39.8624 70C43 70 43 71.99 43 73.676V74.3238C43 76.0101 43 78 39.8624 78H39.1374C36 78 36 76.0101 36 74.3238V73.676C36 71.99 36 70 39.1374 70H39.8624ZM37.2072 74.1295C37.2072 76.8543 37.2166 76.8543 39.5009 76.8543C41.7928 76.8543 41.7928 76.8421 41.7928 74.1295V73.8704C41.7928 71.1457 41.7834 71.1457 39.5009 71.1457C37.2072 71.1457 37.2072 71.1558 37.2072 73.8704V74.1295Z" fill="#48443E"/>
<path id="Vector_7" d="M49 74.6198V74.3819L50.9996 72H51.3324V72.9513L50.1339 74.3819L50.3338 74.6198C51.1328 75.5711 51.4656 75.9688 51.4656 76.6433V77H50.9996L49 74.6198ZM51.5323 74.6198V74.3819L53.5338 72H53.8668V72.9513L52.6662 74.3819L52.8661 74.6198C53.667 75.5711 54 75.9688 54 76.6433V77H53.5338L51.5323 74.6198Z" fill="#48443E"/>
<path id="Vector_8" d="M56 70H58.5108C60.8363 70 62 70 62 72.4314C62 74.8648 60.8363 74.8648 58.5108 74.8648H57.1026V77H56V70ZM57.1026 73.9147H59.2446C60.8363 73.9147 60.8364 73.9147 60.8364 72.4314C60.8364 70.9481 60.8363 70.9481 59.2446 70.9481H57.1026V73.9147Z" fill="#48443E"/>
<path id="Vector_9" d="M65.5469 73.5L63 70.3556V70H64.2793C65.6228 71.6612 66.3253 72.5316 66.3253 73.0259H67.924V70H69.0758V73.0259H70.6745C70.6745 72.5316 71.3773 71.6612 72.7205 70H74V70.3556L71.4531 73.5L74 76.6444V77H72.7205C71.3773 75.3388 70.6745 74.4684 70.6745 73.9741H69.0758V77H67.924V73.9741H66.3253C66.3253 74.4684 65.6228 75.3388 64.2793 77H63V76.6444L65.5469 73.5Z" fill="#48443E"/>
<path id="Vector_10" d="M74 76.4641H74.5798C75.6885 74.4929 76.1823 72.2449 75.9995 70H81.2892V76.4641H82V76.8854C81.7698 77.5715 81.6186 78.2808 81.549 79H80.4939V78.6182L80.7839 77.4768H75.031V79H74V76.4641ZM75.9995 76.4641H80.1294V71.0127H77.0325C77.1193 72.8837 76.7658 74.7491 75.9995 76.4641Z" fill="#48443E"/>
<path id="Vector_11" d="M86.4677 74.3819V74.6198L84.4681 77H84.1332V76.0487L85.3338 74.6198L85.1339 74.3819C84.333 73.4287 84 73.0312 84 72.3567V72H84.4681L86.4677 74.3819ZM89 74.3819V74.6198L87.0004 77H86.6676V76.0487L87.868 74.6198L87.6662 74.3819C86.8672 73.4287 86.5344 73.0312 86.5344 72.3567V72H87.0004L89 74.3819Z" fill="#48443E"/>
</g>
</g>
</g>
<defs>
<clipPath id="clip0_4_1781">
<rect width="107" height="79" fill="white"/>
</clipPath>
</defs>
</svg>
