<svg width="165" height="101" viewBox="0 0 165 101" fill="none" xmlns="http://www.w3.org/2000/svg">
<g id="&#208;&#178;&#208;&#181;&#208;&#186;&#208;&#191;&#209;&#128;&#208;&#190; 1">
<g id="&#208;&#161;&#208;&#187;&#208;&#190;&#208;&#185; 1">
<path id="Vector" d="M13.1447 78C15.069 78 17.1529 78.0993 18.6923 79.5117C19.4935 80.2676 20.4232 81.7462 20.4232 84.3746C20.4232 85.9189 19.9427 88.6458 16.3833 89.1389V89.3031C17.6029 89.412 18.753 89.932 19.6537 90.7817C20.936 92.0956 21 93.6404 21 94.8881C21 96.6626 20.7759 98.4047 18.7562 99.7516C18.2111 100.113 16.672 101 13.7543 101H0V78H13.1447ZM7.69484 87.1672H9.8104C10.2916 87.1672 11.478 87.1347 12.0873 86.4113C12.4258 85.9373 12.5852 85.3537 12.5362 84.7685C12.5789 84.399 12.5405 84.0244 12.4239 83.6721C12.3073 83.3197 12.1154 82.9985 11.8623 82.7318C11.204 82.3057 10.4243 82.1205 9.65018 82.2063H7.69484V87.1672ZM7.69484 96.7943H10.0034C10.516 96.7943 11.7021 96.7612 12.376 96.0391C12.8058 95.5064 13.013 94.8213 12.9525 94.1329C13.0142 93.3884 12.7962 92.6479 12.3431 92.0625C11.7384 91.5622 10.9708 91.3159 10.1956 91.3734H7.69484V96.7943Z" fill="#263D4A"/>
<path id="Vector_2" d="M41.5516 78V82.4691H31.6871V87.2988H37.2282V91.5045H31.6871V96.5315H42V101H24V78H41.5516Z" fill="#263D4A"/>
<path id="Vector_3" d="M52.9043 78V86.9706H54.7485C55.0874 87.0182 55.433 86.9765 55.7508 86.8496C56.0686 86.7226 56.3476 86.515 56.56 86.2471C56.9879 85.6891 57.0207 84.8347 57.0207 83.389V81.056C57.0207 79.7745 57.3173 78.7234 58.2723 78H65.9133C65.354 78.5261 64.4643 79.5773 64.4643 82.1077V84.3416C64.4643 86.116 64.1677 86.9375 63.3775 87.8244C62.8365 88.4827 62.077 88.9258 61.2366 89.0734V89.172C61.7714 89.2247 62.2897 89.386 62.7598 89.6459C63.2298 89.9057 63.6417 90.2587 63.97 90.6831C64.4235 91.5005 64.6827 92.4108 64.7277 93.3439L64.8259 94.9218C64.9254 96.6957 64.7934 98.2405 65.9133 99.8166C66.2312 100.249 66.5956 100.646 67 101H59.4911C58.9429 100.85 58.4578 100.527 58.1078 100.08C57.4819 99.2585 57.4161 97.8785 57.3836 96.6626L57.3173 94.3956C57.2845 93.377 57.3173 92.5232 56.4943 91.8983C55.9075 91.5246 55.2101 91.3625 54.5182 91.439H52.9043V101H45V78H52.9043Z" fill="#263D4A"/>
<path id="Vector_4" d="M88 78V101H80.3194V82.4691H75.68V101H68V78L88 78Z" fill="#263D4A"/>
<path id="Vector_5" d="M105.498 78C108.453 78 112 78.362 112 84.243C112 87.3313 111.573 88.6789 110.193 89.7956C108.88 90.8803 106.844 91.5045 103.1 91.5045H99.8817V101H92V78L105.498 78ZM101.721 87.2989C102.377 87.2989 103.527 87.2989 104.118 86.6092C104.473 86.0272 104.645 85.3516 104.61 84.6705C104.665 84.0134 104.479 83.3589 104.085 82.8298C103.527 82.2063 102.607 82.2063 101.983 82.2063H99.8817V87.2989H101.721Z" fill="#263D4A"/>
<path id="Vector_6" d="M114.001 85.164C114.001 83.5255 113.87 80.9876 116.364 79.3492C118.332 78.0641 121.088 78 124.5 78C127.912 78 130.668 78.0641 132.637 79.3492C135.13 80.9876 134.999 83.5255 134.999 85.164V93.8372C134.999 95.475 135.13 98.0123 132.637 99.6508C130.668 100.936 127.912 101 124.5 101C121.088 101 118.332 100.936 116.364 99.6508C113.87 98.0123 114.001 95.475 114.001 93.8372V85.164ZM127.125 84.9389C127.197 84.1986 127.025 83.4551 126.632 82.8183C126.02 82.36 125.271 82.1117 124.5 82.1117C123.729 82.1117 122.98 82.36 122.368 82.8183C121.975 83.4551 121.803 84.1987 121.876 84.9389V94.0617C121.803 94.8017 121.975 95.545 122.368 96.1816C122.98 96.64 123.729 96.8883 124.5 96.8883C125.271 96.8883 126.02 96.64 126.632 96.1816C127.025 95.5451 127.197 94.8018 127.125 94.0617V84.9389Z" fill="#263D4A"/>
<path id="Vector_7" d="M148.859 78L150.992 87.1347H151.188L153.288 78H165V101H157.127V83.6843H156.929L152.861 101H147.022L142.954 83.6843H142.757V101H138V78L148.859 78Z" fill="#263D4A"/>
<path id="Vector_8" d="M84 54.6558C71.8127 52.16 66.5773 50.0898 64 48C64.4917 48.4216 65.1341 48.998 65.6419 49.401C66.9387 50.4178 68.3204 51.3304 69.7731 52.1295C70.9724 52.7806 72.217 53.3516 73.4982 53.8384C75.0969 54.4011 75.6549 54.5745 76.1549 54.6995C78.7534 55.1143 81.4067 55.0996 84 54.6558Z" fill="#1E2A39"/>
<path id="Vector_9" d="M60.9531 44.9376C62.9723 47.1467 67.9693 48.9648 74.292 51.112C79.4546 52.8656 82.6647 54.0018 83.7101 55C87.139 52.8417 83.7237 48.6931 73.5586 42.669C60.1125 34.7005 55.0815 31.7188 55.0059 27L55 27.5359C55.0147 29.6881 55.2549 31.833 55.7167 33.9359C56.0617 35.4654 56.5403 36.9623 57.1471 38.4094C57.739 39.8483 58.4525 41.2348 59.2799 42.5543C59.7137 43.1938 60.2782 44.0559 60.74 44.6764C60.8039 44.7543 60.8852 44.8622 60.9531 44.9376Z" fill="#DA6D2C"/>
<path id="Vector_10" d="M56.001 22.6115C56.2833 25.4265 58.9986 28.1513 64.8039 31.4486C68.4954 33.5445 92.6819 45.5559 92.8371 45.6274C95.1854 46.6964 96.6799 46.8175 98.9426 47C99.8841 37.7197 89.1781 28.3053 71.5999 16.1235C64.2325 11.0173 62.5729 8.46318 65.0247 6L64.851 6.15741C63.6771 7.23284 62.5939 8.40338 61.6124 9.6571C60.6381 10.8953 59.7687 12.2128 59.0134 13.5957C58.2505 14.9761 57.6068 16.4192 57.0892 17.9093C56.757 18.9926 56.3373 20.4448 56.0771 21.5474C56.02 21.8991 55.9945 22.2553 56.001 22.6115Z" fill="#007B84"/>
<path id="Vector_11" d="M83.9569 0.368358C84.7428 3.37039 74.589 8.88309 69.1336 11.8454C60.36 16.6088 57.0771 18.3909 56 22C56.2699 20.8945 56.6526 19.4239 56.9928 18.3377C58.0195 15.3383 59.5182 12.5321 61.4292 10.0309C62.3923 8.76901 63.4549 7.59074 64.6063 6.50796L64.7763 6.34951C67.6547 4.02346 70.7508 3.25097 83.7814 0C83.8502 0.117335 83.9089 0.240584 83.9569 0.368358Z" fill="#008F9D"/>
<path id="Vector_12" d="M84.9037 0.0201224C89.95 0.386198 104.765 5.20555 85.0577 22.099C78.1062 28.0581 69.9769 32.4507 63.2805 38.7489C59.7826 42.0393 59.6606 43.3362 60.7105 45C60.2703 44.3596 59.6698 43.5141 59.2579 42.8545C57.6085 40.1668 56.4107 37.2227 55.713 34.1412C55.2554 32.0148 55.0165 29.8465 55 27.6707L55.0059 27.129C55.4561 23.2806 58.3568 21.0744 67.4434 15.9661C76.2396 11.0199 90.9614 2.743 83.6647 0C84.0364 0.00583994 84.5333 -0.00717297 84.9037 0.0201224Z" fill="#EF811A"/>
<path id="Vector_13" d="M98.1587 2.54673C100.09 3.64395 101.895 4.94606 103.54 6.42993C103.997 6.8776 104.623 7.45752 105.061 7.92182C122.087 27.2976 90.4567 45.3216 80.0627 51.245C75.8826 53.6268 74.643 54.5523 76.0178 55L75.9826 54.9901C74.477 54.5326 74.3198 54.4846 73.3256 54.1046C72.0456 53.6019 70.8012 53.015 69.6008 52.3477C68.1495 51.5232 66.7679 50.5846 65.4693 49.5409C64.9761 49.1099 64.3045 48.5502 63.8274 48.1007C61.5313 45.476 63.877 43.1932 72.5895 37.2096C91.5739 24.1723 101.103 17.6285 101.417 9.5438C101.437 8.32031 101.496 4.59825 97.12 2C97.4718 2.17343 97.8181 2.35567 98.1587 2.54673Z" fill="#163B78"/>
</g>
</g>
</svg>
