<svg width="24" height="24" viewBox="0 0 24 24" fill="none" xmlns="http://www.w3.org/2000/svg">
<g id="icon/20/file/application">
<path id="icon color" fill-rule="evenodd" clip-rule="evenodd" d="M19.5 16.5V19.5H16.5V16.5H19.5ZM20.25 15H15.75C15.3358 15 15 15.3358 15 15.75V20.25C15 20.6642 15.3358 21 15.75 21H20.25C20.6642 21 21 20.6642 21 20.25V15.75C21 15.3358 20.6642 15 20.25 15ZM19.5 9V12H16.5V9H19.5ZM20.25 7.5H15.75C15.3358 7.5 15 7.83579 15 8.25V12.75C15 13.1642 15.3358 13.5 15.75 13.5H20.25C20.6642 13.5 21 13.1642 21 12.75V8.25C21 7.83579 20.6642 7.5 20.25 7.5ZM12 16.5V19.5H9V16.5H12ZM12.75 15H8.25C7.83579 15 7.5 15.3358 7.5 15.75V20.25C7.5 20.6642 7.83579 21 8.25 21H12.75C13.1642 21 13.5 20.6642 13.5 20.25V15.75C13.5 15.3358 13.1642 15 12.75 15ZM12 4.5V12H4.5V4.5H12ZM12 3H4.5C3.67157 3 3 3.67157 3 4.5V12C3 12.8284 3.67157 13.5 4.5 13.5H12C12.8284 13.5 13.5 12.8284 13.5 12V4.5C13.5 3.67157 12.8284 3 12 3Z" fill="#5C4DD8"/>
<mask id="mask0_319_1847" style="mask-type:luminance" maskUnits="userSpaceOnUse" x="3" y="3" width="18" height="18">
<path id="icon color_2" fill-rule="evenodd" clip-rule="evenodd" d="M19.5 16.5V19.5H16.5V16.5H19.5ZM20.25 15H15.75C15.3358 15 15 15.3358 15 15.75V20.25C15 20.6642 15.3358 21 15.75 21H20.25C20.6642 21 21 20.6642 21 20.25V15.75C21 15.3358 20.6642 15 20.25 15ZM19.5 9V12H16.5V9H19.5ZM20.25 7.5H15.75C15.3358 7.5 15 7.83579 15 8.25V12.75C15 13.1642 15.3358 13.5 15.75 13.5H20.25C20.6642 13.5 21 13.1642 21 12.75V8.25C21 7.83579 20.6642 7.5 20.25 7.5ZM12 16.5V19.5H9V16.5H12ZM12.75 15H8.25C7.83579 15 7.5 15.3358 7.5 15.75V20.25C7.5 20.6642 7.83579 21 8.25 21H12.75C13.1642 21 13.5 20.6642 13.5 20.25V15.75C13.5 15.3358 13.1642 15 12.75 15ZM12 4.5V12H4.5V4.5H12ZM12 3H4.5C3.67157 3 3 3.67157 3 4.5V12C3 12.8284 3.67157 13.5 4.5 13.5H12C12.8284 13.5 13.5 12.8284 13.5 12V4.5C13.5 3.67157 12.8284 3 12 3Z" fill="white"/>
</mask>
<g mask="url(#mask0_319_1847)">
</g>
</g>
</svg>
