<svg width="24" height="24" viewBox="0 0 24 24" fill="none" xmlns="http://www.w3.org/2000/svg">
<g id="image-24">
<path id="Vector" fill-rule="evenodd" clip-rule="evenodd" d="M18.7663 4.99998H5.23294C5.17106 4.99998 5.11171 5.02456 5.06795 5.06832C5.02419 5.11208 4.99961 5.17142 4.99961 5.23331V18.7666C4.99961 18.8954 5.10414 19 5.23294 19H5.41028L14.5784 9.83184C14.7301 9.68016 14.9101 9.55983 15.1083 9.47774C15.3065 9.39564 15.5189 9.35339 15.7334 9.35339C15.9479 9.35339 16.1603 9.39564 16.3585 9.47774C16.5567 9.55983 16.7367 9.68016 16.8884 9.83184L18.9996 11.943V5.23331C18.9996 5.17142 18.975 5.11208 18.9313 5.06832C18.8875 5.02456 18.8282 4.99998 18.7663 4.99998V4.99998ZM18.9996 13.9226L15.8981 10.8212C15.8765 10.7994 15.8507 10.7822 15.8224 10.7704C15.794 10.7587 15.7636 10.7526 15.7329 10.7526C15.7023 10.7526 15.6719 10.7587 15.6435 10.7704C15.6152 10.7822 15.5894 10.7994 15.5677 10.8212L7.38988 19H18.7663C18.8282 19 18.8875 18.9754 18.9313 18.9316C18.975 18.8879 18.9996 18.8285 18.9996 18.7666V13.9226V13.9226ZM5.23294 3.59998C4.79976 3.59998 4.38431 3.77206 4.078 4.07837C3.77169 4.38468 3.59961 4.80012 3.59961 5.23331V18.7666C3.59961 19.6682 4.33134 20.4 5.23294 20.4H18.7663C19.1995 20.4 19.6149 20.2279 19.9212 19.9216C20.2275 19.6153 20.3996 19.1998 20.3996 18.7666V5.23331C20.3996 4.80012 20.2275 4.38468 19.9212 4.07837C19.6149 3.77206 19.1995 3.59998 18.7663 3.59998H5.23294ZM8.73294 9.66664C8.98048 9.66664 9.21787 9.56831 9.39291 9.39327C9.56794 9.21824 9.66628 8.98084 9.66628 8.73331C9.66628 8.48577 9.56794 8.24838 9.39291 8.07334C9.21787 7.89831 8.98048 7.79998 8.73294 7.79998C8.48541 7.79998 8.24801 7.89831 8.07298 8.07334C7.89794 8.24838 7.79961 8.48577 7.79961 8.73331C7.79961 8.98084 7.89794 9.21824 8.07298 9.39327C8.24801 9.56831 8.48541 9.66664 8.73294 9.66664V9.66664ZM8.73294 11.0666C9.35178 11.0666 9.94527 10.8208 10.3829 10.3832C10.8204 9.94564 11.0663 9.35215 11.0663 8.73331C11.0663 8.11447 10.8204 7.52098 10.3829 7.08339C9.94527 6.64581 9.35178 6.39998 8.73294 6.39998C8.1141 6.39998 7.52061 6.64581 7.08303 7.08339C6.64544 7.52098 6.39961 8.11447 6.39961 8.73331C6.39961 9.35215 6.64544 9.94564 7.08303 10.3832C7.52061 10.8208 8.1141 11.0666 8.73294 11.0666V11.0666Z" fill="#5C4DD8"/>
</g>
</svg>
